<?xml version="1.0" encoding="UTF-8"?>
<svg version="1.1" id="Capa_1" xmlns="http://www.w3.org/2000/svg" xmlns:xlink="http://www.w3.org/1999/xlink" x="0px" y="0px"
	 viewBox="0 0 287.068 287.068" style="enable-background:new 0 0 287.068 287.068;" xml:space="preserve">
<g fill="#{sdcol(icon)}" fill-opacity="1">
	<g id="Dibujo">
		<path d="M221.606,76.504c2.827,0,5.653-1.076,7.806-3.235l15.618-15.618c4.312-4.312,4.312-11.301,0-15.612
			c-4.312-4.312-11.306-4.312-15.612,0L213.8,57.657c-4.312,4.312-4.312,11.301,0,15.612
			C215.953,75.427,218.779,76.504,221.606,76.504z M44.164,143.534c0-6.095-4.946-11.041-11.041-11.041H11.041
			C4.946,132.493,0,137.44,0,143.534c0,6.095,4.946,11.041,11.041,11.041h22.082C39.218,154.575,44.164,149.629,44.164,143.534z
			 M57.657,213.8l-15.618,15.618c-4.312,4.312-4.312,11.301,0,15.612c2.153,2.159,4.98,3.235,7.806,3.235s5.653-1.077,7.806-3.235
			l15.618-15.618c4.312-4.312,4.312-11.301,0-15.612C68.963,209.488,61.963,209.488,57.657,213.8z M57.657,73.269
			c2.153,2.159,4.98,3.235,7.806,3.235c2.827,0,5.653-1.076,7.806-3.235c4.312-4.312,4.312-11.301,0-15.612L57.651,42.039
			c-4.306-4.312-11.306-4.312-15.612,0c-4.312,4.312-4.312,11.301,0,15.612L57.657,73.269z M143.534,44.164
			c6.095,0,11.041-4.946,11.041-11.041V11.041C154.575,4.946,149.629,0,143.534,0c-6.095,0-11.041,4.946-11.041,11.041v22.082
			C132.493,39.218,137.44,44.164,143.534,44.164z M276.027,132.493h-22.082c-6.095,0-11.041,4.946-11.041,11.041
			c0,6.095,4.946,11.041,11.041,11.041h22.082c6.095,0,11.041-4.946,11.041-11.041C287.068,137.44,282.122,132.493,276.027,132.493z
			 M229.412,213.8c-4.306-4.312-11.306-4.312-15.612,0c-4.312,4.312-4.312,11.301,0,15.612l15.618,15.618
			c2.153,2.159,4.98,3.235,7.806,3.235c2.827,0,5.648-1.077,7.806-3.235c4.312-4.312,4.312-11.301,0-15.612L229.412,213.8z
			 M143.534,242.904c-6.095,0-11.041,4.946-11.041,11.041v22.082c0,6.095,4.946,11.041,11.041,11.041
			c6.095,0,11.041-4.946,11.041-11.041v-22.082C154.575,247.851,149.629,242.904,143.534,242.904z M143.534,66.247
			c-42.619,0-77.288,34.669-77.288,77.288s34.669,77.288,77.288,77.288s77.288-34.669,77.288-77.288S186.153,66.247,143.534,66.247z
			 M143.534,198.74c-30.44,0-55.205-24.765-55.205-55.205s24.765-55.205,55.205-55.205s55.205,24.765,55.205,55.205
			S173.975,198.74,143.534,198.74z"/>
	</g>
</g>
<g>
</g>
<g>
</g>
<g>
</g>
<g>
</g>
<g>
</g>
<g>
</g>
<g>
</g>
<g>
</g>
<g>
</g>
<g>
</g>
<g>
</g>
<g>
</g>
<g>
</g>
<g>
</g>
<g>
</g>
</svg>
