<?xml version="1.0" encoding="UTF-8"?>
<svg version="1.1" id="Capa_1" xmlns="http://www.w3.org/2000/svg" xmlns:xlink="http://www.w3.org/1999/xlink" x="0px" y="0px"
	 viewBox="0 0 320.192 320.192" style="enable-background:new 0 0 320.192 320.192;" xml:space="preserve">
<g fill="#{sdcol(iconactive)}" fill-opacity="1">
	<g id="Dibujo_15_">
		<g>
			<path d="M259.466,132.493c-2.799,0-6.139,0.436-9.319,1.016c-11.56-39.593-47.747-67.262-90.051-67.262
				c-42.309,0-78.491,27.669-90.051,67.262c-3.18-0.58-6.52-1.016-9.319-1.016C27.244,132.493,0,159.737,0,193.219
				s27.244,60.726,60.726,60.726h198.74c33.482,0,60.726-27.244,60.726-60.726S292.948,132.493,259.466,132.493z M259.466,231.863
				H60.726c-21.309,0-38.644-17.34-38.644-38.644s17.335-38.644,38.644-38.644c1.529,0,3.991,0.375,6.592,0.894v10.147
				c0,6.095,4.946,11.041,11.041,11.041c6.095,0,11.041-4.946,11.041-11.041v-17.809c5.94-34.503,35.541-59.478,70.696-59.478
				c35.171,0,64.784,25.003,70.707,59.534v17.754c0,6.095,4.946,11.041,11.041,11.041c6.1,0,11.041-4.946,11.041-11.041v-10.141
				c2.595-0.519,5.068-0.9,6.581-0.9c21.304,0,38.644,17.34,38.644,38.644S280.77,231.863,259.466,231.863z"/>
		</g>
	</g>
</g>
<g>
</g>
<g>
</g>
<g>
</g>
<g>
</g>
<g>
</g>
<g>
</g>
<g>
</g>
<g>
</g>
<g>
</g>
<g>
</g>
<g>
</g>
<g>
</g>
<g>
</g>
<g>
</g>
<g>
</g>
</svg>
