<?xml version="1.0" encoding="UTF-8" standalone="no"?>
<!-- Generator: Adobe Illustrator 16.0.0, SVG Export Plug-In . SVG Version: 6.00 Build 0)  -->

<svg
   xmlns:dc="http://purl.org/dc/elements/1.1/"
   xmlns:cc="http://creativecommons.org/ns#"
   xmlns:rdf="http://www.w3.org/1999/02/22-rdf-syntax-ns#"
   xmlns:svg="http://www.w3.org/2000/svg"
   xmlns="http://www.w3.org/2000/svg"
   xmlns:sodipodi="http://sodipodi.sourceforge.net/DTD/sodipodi-0.dtd"
   xmlns:inkscape="http://www.inkscape.org/namespaces/inkscape"
   version="1.1"
   id="Capa_1"
   x="0px"
   y="0px"
   width="939.85px"
   height="939.85px"
   viewBox="0 0 939.85 939.85"
   style="enable-background:new 0 0 939.85 939.85;"
   xml:space="preserve"
   inkscape:version="0.91 r13725"
   sodipodi:docname="ico_edit.svg"><metadata
     id="metadata49"><rdf:RDF><cc:Work
         rdf:about=""><dc:format>image/svg+xml</dc:format><dc:type
           rdf:resource="http://purl.org/dc/dcmitype/StillImage" /></cc:Work></rdf:RDF></metadata><defs
     id="defs47" /><sodipodi:namedview
     pagecolor="#ffffff"
     bordercolor="#666666"
     borderopacity="1"
     objecttolerance="10"
     gridtolerance="10"
     guidetolerance="10"
     inkscape:pageopacity="0"
     inkscape:pageshadow="2"
     inkscape:window-width="1920"
     inkscape:window-height="1017"
     id="namedview45"
     showgrid="false"
     inkscape:zoom="0.25110391"
     inkscape:cx="-724.79956"
     inkscape:cy="469.925"
     inkscape:window-x="-8"
     inkscape:window-y="-8"
     inkscape:window-maximized="1"
     inkscape:current-layer="Capa_1" /><g
     id="g3"
     style="fill:#{sdcol(iconselected)};fill-opacity:1"><path
       d="M802.225,802.225c183.5-183.5,183.5-481.1,0-664.6s-481.1-183.5-664.6,0s-183.5,481.1,0,664.6   S618.725,985.725,802.225,802.225z M200.524,549.125c0.3-11.9,4.601-23.7,13.7-32.8l297.3-297.301l59.7-59.7   c13-13,31.9-18.699,50.5-15.3c13,2.4,25,8.7,34.7,18.4l121,121c9.7,9.7,16.1,21.7,18.4,34.7c3.399,18.699-2.301,37.6-15.301,50.5   l-59.699,59.8l-297.301,297.3c-9.1,9.101-21,13.5-32.899,13.8c-0.9,0-125.4,0-125.4,0c-16.4-0.1-32.8-7.5-45.1-19.8   c-12.2-12.2-19.5-28.7-19.601-45.1C200.524,674.625,200.425,550.024,200.524,549.125z"
       id="path5"
       style="fill:#{sdcol(iconselected)};fill-opacity:1" /><g
       id="g7"
       style="fill:#{sdcol(iconselected)};fill-opacity:1"><path
         d="M682.225,399.024l53.3-53.3c7-7,6.2-20.3-0.6-27.1l-115.7-115.7c-6.399-6.4-17.1-6.5-23.5-0.2l-54.899,54.9    L682.225,399.024L682.225,399.024z"
         id="path9"
         style="fill:#{sdcol(iconselected)};fill-opacity:1" /><path
         d="M422.024,657.825c0.2,0.199,0.4,0.399,0.601,0.699l230-230l-141.3-141.5l-230,230c0.199,0.2,0.5,0.4,0.699,0.601    L422.024,657.825z"
         id="path11"
         style="fill:#{sdcol(iconselected)};fill-opacity:1" /><path
         d="M253.925,685.825c3.2,3.199,7.399,5.199,11.5,5.199h122.9l-139.601-139.5l-0.3,122.801    C248.425,678.325,250.824,682.725,253.925,685.825z"
         id="path13"
         style="fill:#{sdcol(iconselected)};fill-opacity:1" /></g></g><g
     id="g15" /><g
     id="g17" /><g
     id="g19" /><g
     id="g21" /><g
     id="g23" /><g
     id="g25" /><g
     id="g27" /><g
     id="g29" /><g
     id="g31" /><g
     id="g33" /><g
     id="g35" /><g
     id="g37" /><g
     id="g39" /><g
     id="g41" /><g
     id="g43" /></svg>