<?xml version="1.0" encoding="UTF-8" standalone="no"?>
<!-- Generator: Adobe Illustrator 16.0.0, SVG Export Plug-In . SVG Version: 6.00 Build 0)  -->

<svg
   xmlns:dc="http://purl.org/dc/elements/1.1/"
   xmlns:cc="http://creativecommons.org/ns#"
   xmlns:rdf="http://www.w3.org/1999/02/22-rdf-syntax-ns#"
   xmlns:svg="http://www.w3.org/2000/svg"
   xmlns="http://www.w3.org/2000/svg"
   xmlns:sodipodi="http://sodipodi.sourceforge.net/DTD/sodipodi-0.dtd"
   xmlns:inkscape="http://www.inkscape.org/namespaces/inkscape"
   version="1.1"
   id="Capa_1"
   x="0px"
   y="0px"
   width="612px"
   height="612px"
   viewBox="0 0 612 612"
   style="enable-background:new 0 0 612 612;"
   xml:space="preserve"
   inkscape:version="0.91 r13725"
   sodipodi:docname="ico_arrow_left.svg"><metadata
     id="metadata44"><rdf:RDF><cc:Work
         rdf:about=""><dc:format>image/svg+xml</dc:format><dc:type
           rdf:resource="http://purl.org/dc/dcmitype/StillImage" /></cc:Work></rdf:RDF></metadata><defs
     id="defs42" /><sodipodi:namedview
     pagecolor="#ffffff"
     bordercolor="#666666"
     borderopacity="1"
     objecttolerance="10"
     gridtolerance="10"
     guidetolerance="10"
     inkscape:pageopacity="0"
     inkscape:pageshadow="2"
     inkscape:window-width="1920"
     inkscape:window-height="1017"
     id="namedview40"
     showgrid="false"
     inkscape:zoom="0.38562092"
     inkscape:cx="-471.9661"
     inkscape:cy="306"
     inkscape:window-x="-8"
     inkscape:window-y="-8"
     inkscape:window-maximized="1"
     inkscape:current-layer="Capa_1" /><g
     id="g3"
     style="fill:#{sdcol(icon)};fill-opacity:1"><g
       id="Left"
       style="fill:#{sdcol(icon)};fill-opacity:1"><g
         id="g6"
         style="fill:#{sdcol(icon)};fill-opacity:1"><path
           d="M353.812,172.125c-7.478,0-14.21,2.926-19.335,7.612l-0.058-0.077L219.67,284.848c-5.91,5.451-9.295,13.101-9.295,21.152     s3.385,15.701,9.295,21.152L334.42,432.34l0.058-0.076c5.125,4.686,11.857,7.611,19.335,7.611     c15.836,0,28.688-12.852,28.688-28.688c0-8.357-3.634-15.836-9.353-21.076l0.058-0.076L281.52,306l91.685-84.054l-0.058-0.077     c5.719-5.221,9.353-12.68,9.353-21.057C382.5,184.977,369.648,172.125,353.812,172.125z M306,0C137.012,0,0,137.012,0,306     s137.012,306,306,306s306-137.012,306-306S474.988,0,306,0z M306,554.625C168.912,554.625,57.375,443.088,57.375,306     S168.912,57.375,306,57.375S554.625,168.912,554.625,306S443.088,554.625,306,554.625z"
           id="path8"
           style="fill:#{sdcol(icon)};fill-opacity:1" /></g></g></g><g
     id="g10" /><g
     id="g12" /><g
     id="g14" /><g
     id="g16" /><g
     id="g18" /><g
     id="g20" /><g
     id="g22" /><g
     id="g24" /><g
     id="g26" /><g
     id="g28" /><g
     id="g30" /><g
     id="g32" /><g
     id="g34" /><g
     id="g36" /><g
     id="g38" /></svg>