<?xml version="1.0" encoding="UTF-8" standalone="no"?>
<!-- Generator: Adobe Illustrator 19.1.0, SVG Export Plug-In . SVG Version: 6.00 Build 0)  -->

<svg
   xmlns:dc="http://purl.org/dc/elements/1.1/"
   xmlns:cc="http://creativecommons.org/ns#"
   xmlns:rdf="http://www.w3.org/1999/02/22-rdf-syntax-ns#"
   xmlns:svg="http://www.w3.org/2000/svg"
   xmlns="http://www.w3.org/2000/svg"
   xmlns:sodipodi="http://sodipodi.sourceforge.net/DTD/sodipodi-0.dtd"
   xmlns:inkscape="http://www.inkscape.org/namespaces/inkscape"
   version="1.1"
   id="Capa_1"
   x="0px"
   y="0px"
   viewBox="0 0 484.6 484.6"
   style="enable-background:new 0 0 484.6 484.6;"
   xml:space="preserve"
   inkscape:version="0.91 r13725"
   sodipodi:docname="ico_remotetimer.svg"><metadata
     id="metadata59"><rdf:RDF><cc:Work
         rdf:about=""><dc:format>image/svg+xml</dc:format><dc:type
           rdf:resource="http://purl.org/dc/dcmitype/StillImage" /></cc:Work></rdf:RDF></metadata><defs
     id="defs57" /><sodipodi:namedview
     pagecolor="#ffffff"
     bordercolor="#666666"
     borderopacity="1"
     objecttolerance="10"
     gridtolerance="10"
     guidetolerance="10"
     inkscape:pageopacity="0"
     inkscape:pageshadow="2"
     inkscape:window-width="1920"
     inkscape:window-height="1017"
     id="namedview55"
     showgrid="false"
     inkscape:zoom="0.48699958"
     inkscape:cx="-13.347034"
     inkscape:cy="242.3"
     inkscape:window-x="-8"
     inkscape:window-y="-8"
     inkscape:window-maximized="1"
     inkscape:current-layer="Capa_1" /><g
     id="g3"
     style="fill:#{sdcol(iconactive)};fill-opacity:1"><g
       id="g5"
       style="fill:#{sdcol(iconactive)};fill-opacity:1"><path
         d="M297.2,396.6c-3.2,0-6.3,1.3-8.5,3.5s-3.5,5.3-3.5,8.5s1.3,6.3,3.5,8.5s5.3,3.5,8.5,3.5s6.3-1.3,8.5-3.5s3.5-5.3,3.5-8.5    s-1.3-6.3-3.5-8.5C303.5,397.9,300.4,396.6,297.2,396.6z"
         id="path7"
         style="fill:#{sdcol(iconactive)};fill-opacity:1" /><path
         d="M242.3,396.6c-6.6,0-12,5.4-12,12s5.4,12,12,12s12-5.4,12-12C254.3,402,248.9,396.6,242.3,396.6z"
         id="path9"
         style="fill:#{sdcol(iconactive)};fill-opacity:1" /><path
         d="M187.4,396.6c-3.2,0-6.3,1.3-8.5,3.5s-3.5,5.3-3.5,8.5c0,3.1,1.3,6.3,3.5,8.5s5.3,3.5,8.5,3.5s6.3-1.3,8.5-3.5    s3.5-5.3,3.5-8.5s-1.3-6.3-3.5-8.5C193.6,397.9,190.5,396.6,187.4,396.6z"
         id="path11"
         style="fill:#{sdcol(iconactive)};fill-opacity:1" /><path
         d="M187.4,341.7c-6.6,0-12,5.4-12,12s5.4,12,12,12s12-5.4,12-12S194,341.7,187.4,341.7z"
         id="path13"
         style="fill:#{sdcol(iconactive)};fill-opacity:1" /><path
         d="M187.4,286.8c-3.2,0-6.3,1.3-8.5,3.5s-3.5,5.3-3.5,8.5s1.3,6.3,3.5,8.5s5.3,3.5,8.5,3.5s6.3-1.3,8.5-3.5s3.5-5.3,3.5-8.5    s-1.3-6.3-3.5-8.5C193.6,288.1,190.5,286.8,187.4,286.8z"
         id="path15"
         style="fill:#{sdcol(iconactive)};fill-opacity:1" /><path
         d="M242.3,286.8c-6.6,0-12,5.4-12,12s5.4,12,12,12s12-5.4,12-12S248.9,286.8,242.3,286.8z"
         id="path17"
         style="fill:#{sdcol(iconactive)};fill-opacity:1" /><path
         d="M297.2,286.8c-3.2,0-6.3,1.3-8.5,3.5s-3.5,5.3-3.5,8.5s1.3,6.3,3.5,8.5s5.3,3.5,8.5,3.5s6.3-1.3,8.5-3.5s3.5-5.3,3.5-8.5    s-1.3-6.3-3.5-8.5C303.5,288.1,300.4,286.8,297.2,286.8z"
         id="path19"
         style="fill:#{sdcol(iconactive)};fill-opacity:1" /><path
         d="M297.2,341.7c-6.6,0-12,5.4-12,12s5.4,12,12,12s12-5.4,12-12S303.8,341.7,297.2,341.7z"
         id="path21"
         style="fill:#{sdcol(iconactive)};fill-opacity:1" /><path
         d="M472.6,286.8h-42.9v-43.6c0-6.6-5.4-12-12-12H254.3v-33.4h42.9c6.6,0,12-5.4,12-12V76c0-6.6-5.4-12-12-12H187.4    c-6.6,0-12,5.4-12,12v109.8c0,6.6,5.4,12,12,12h42.9v33.4H66.9c-6.6,0-12,5.4-12,12v43.6H12c-6.6,0-12,5.4-12,12v109.8    c0,6.6,5.4,12,12,12h109.8c6.6,0,12-5.4,12-12V298.8c0-6.6-5.4-12-12-12H78.9v-31.6h326.8v31.6h-42.9c-6.6,0-12,5.4-12,12v109.8    c0,6.6,5.4,12,12,12h109.8c6.6,0,12-5.4,12-12V298.8C484.6,292.2,479.3,286.8,472.6,286.8z M109.8,310.8v85.8H24v-85.8H109.8z     M199.4,173.8V88h85.8v85.8H199.4z M460.6,396.6h-85.8v-85.8h85.8V396.6z"
         id="path23"
         style="fill:#{sdcol(iconactive)};fill-opacity:1" /></g></g><g
     id="g25" /><g
     id="g27" /><g
     id="g29" /><g
     id="g31" /><g
     id="g33" /><g
     id="g35" /><g
     id="g37" /><g
     id="g39" /><g
     id="g41" /><g
     id="g43" /><g
     id="g45" /><g
     id="g47" /><g
     id="g49" /><g
     id="g51" /><g
     id="g53" /></svg>