<?xml version="1.0" encoding="UTF-8" standalone="no"?>
<!-- Generator: Adobe Illustrator 16.0.0, SVG Export Plug-In . SVG Version: 6.00 Build 0)  -->

<svg
   xmlns:dc="http://purl.org/dc/elements/1.1/"
   xmlns:cc="http://creativecommons.org/ns#"
   xmlns:rdf="http://www.w3.org/1999/02/22-rdf-syntax-ns#"
   xmlns:svg="http://www.w3.org/2000/svg"
   xmlns="http://www.w3.org/2000/svg"
   xmlns:sodipodi="http://sodipodi.sourceforge.net/DTD/sodipodi-0.dtd"
   xmlns:inkscape="http://www.inkscape.org/namespaces/inkscape"
   version="1.1"
   id="Capa_1"
   x="0px"
   y="0px"
   width="475.082px"
   height="475.082px"
   viewBox="0 0 475.082 475.082"
   style="enable-background:new 0 0 475.082 475.082;"
   xml:space="preserve"
   inkscape:version="0.91 r13725"
   sodipodi:docname="folder.svg"><metadata
     id="metadata41"><rdf:RDF><cc:Work
         rdf:about=""><dc:format>image/svg+xml</dc:format><dc:type
           rdf:resource="http://purl.org/dc/dcmitype/StillImage" /></cc:Work></rdf:RDF></metadata><defs
     id="defs39" /><sodipodi:namedview
     pagecolor="#ffffff"
     bordercolor="#666666"
     borderopacity="1"
     objecttolerance="10"
     gridtolerance="10"
     guidetolerance="10"
     inkscape:pageopacity="0"
     inkscape:pageshadow="2"
     inkscape:window-width="1920"
     inkscape:window-height="1017"
     id="namedview37"
     showgrid="false"
     inkscape:zoom="0.49675635"
     inkscape:cx="-13.084886"
     inkscape:cy="237.541"
     inkscape:window-x="-8"
     inkscape:window-y="-8"
     inkscape:window-maximized="1"
     inkscape:current-layer="Capa_1" /><g
     id="g3"
     style="fill:#{sdcol(icon)};fill-opacity:1"><path
       d="M456.239,128.475c-12.56-12.562-27.597-18.842-45.11-18.842h-191.86v-9.136c0-17.511-6.283-32.548-18.843-45.107   c-12.562-12.562-27.6-18.846-45.111-18.846H63.953c-17.515,0-32.551,6.283-45.111,18.846C6.28,67.949,0,82.986,0,100.497v274.088   c0,17.508,6.28,32.545,18.842,45.104c12.562,12.565,27.6,18.849,45.111,18.849h347.175c17.514,0,32.551-6.283,45.11-18.849   c12.566-12.56,18.843-27.597,18.843-45.104V173.59C475.082,156.078,468.805,141.042,456.239,128.475z M438.536,374.585   c0,7.611-2.662,14.093-7.99,19.417c-5.328,5.325-11.8,7.987-19.417,7.987H63.953c-7.614,0-14.084-2.662-19.414-7.987   c-5.33-5.324-7.993-11.806-7.993-19.417V100.501c0-7.611,2.663-14.084,7.993-19.414c5.326-5.327,11.799-7.993,19.414-7.993h91.365   c7.614,0,14.087,2.663,19.417,7.993c5.327,5.33,7.993,11.803,7.993,19.414v18.274c0,7.616,2.664,14.083,7.994,19.414   c5.327,5.327,11.798,7.994,19.414,7.994h200.993c7.617,0,14.089,2.666,19.417,7.993c5.328,5.326,7.99,11.799,7.99,19.414V374.585   L438.536,374.585z"
       id="path5"
       style="fill:#{sdcol(icon)};fill-opacity:1" /></g><g
     id="g7" /><g
     id="g9" /><g
     id="g11" /><g
     id="g13" /><g
     id="g15" /><g
     id="g17" /><g
     id="g19" /><g
     id="g21" /><g
     id="g23" /><g
     id="g25" /><g
     id="g27" /><g
     id="g29" /><g
     id="g31" /><g
     id="g33" /><g
     id="g35" /></svg>