<?xml version="1.0" encoding="UTF-8" standalone="no"?>
<!-- Generator: Adobe Illustrator 16.0.0, SVG Export Plug-In . SVG Version: 6.00 Build 0)  -->

<svg
   xmlns:dc="http://purl.org/dc/elements/1.1/"
   xmlns:cc="http://creativecommons.org/ns#"
   xmlns:rdf="http://www.w3.org/1999/02/22-rdf-syntax-ns#"
   xmlns:svg="http://www.w3.org/2000/svg"
   xmlns="http://www.w3.org/2000/svg"
   xmlns:sodipodi="http://sodipodi.sourceforge.net/DTD/sodipodi-0.dtd"
   xmlns:inkscape="http://www.inkscape.org/namespaces/inkscape"
   version="1.1"
   id="Capa_1"
   x="0px"
   y="0px"
   width="486.733px"
   height="486.733px"
   viewBox="0 0 486.733 486.733"
   style="enable-background:new 0 0 486.733 486.733;"
   xml:space="preserve"
   inkscape:version="0.91 r13725"
   sodipodi:docname="ico_crypt.svg"><metadata
     id="metadata41"><rdf:RDF><cc:Work
         rdf:about=""><dc:format>image/svg+xml</dc:format><dc:type
           rdf:resource="http://purl.org/dc/dcmitype/StillImage" /></cc:Work></rdf:RDF></metadata><defs
     id="defs39" /><sodipodi:namedview
     pagecolor="#ffffff"
     bordercolor="#666666"
     borderopacity="1"
     objecttolerance="10"
     gridtolerance="10"
     guidetolerance="10"
     inkscape:pageopacity="0"
     inkscape:pageshadow="2"
     inkscape:window-width="1385"
     inkscape:window-height="730"
     id="namedview37"
     showgrid="false"
     inkscape:zoom="0.48486542"
     inkscape:cx="90.275443"
     inkscape:cy="243.3665"
     inkscape:window-x="0"
     inkscape:window-y="0"
     inkscape:window-maximized="0"
     inkscape:current-layer="Capa_1" /><g
     id="g3"
     style="fill:#{sdcol(iconactive)};fill-opacity:1"><path
       d="M403.88,196.563h-9.484v-44.388c0-82.099-65.151-150.681-146.582-152.145c-2.225-0.04-6.671-0.04-8.895,0   C157.486,1.494,92.336,70.076,92.336,152.175v44.388h-9.485c-14.616,0-26.538,15.082-26.538,33.709v222.632   c0,18.606,11.922,33.829,26.539,33.829h321.028c14.616,0,26.539-15.223,26.539-33.829V230.272   C430.419,211.646,418.497,196.563,403.88,196.563z M273.442,341.362v67.271c0,7.703-6.449,14.222-14.158,14.222H227.45   c-7.71,0-14.159-6.519-14.159-14.222v-67.271c-7.477-7.36-11.83-17.537-11.83-28.795c0-21.334,16.491-39.666,37.459-40.513   c2.222-0.09,6.673-0.09,8.895,0c20.968,0.847,37.459,19.179,37.459,40.513C285.272,323.825,280.919,334.002,273.442,341.362z    M331.886,196.563h-84.072h-8.895h-84.072v-44.388c0-48.905,39.744-89.342,88.519-89.342c48.775,0,88.521,40.437,88.521,89.342   V196.563z"
       id="path5"
       style="fill:#{sdcol(iconactive)};fill-opacity:1" /></g><g
     id="g7" /><g
     id="g9" /><g
     id="g11" /><g
     id="g13" /><g
     id="g15" /><g
     id="g17" /><g
     id="g19" /><g
     id="g21" /><g
     id="g23" /><g
     id="g25" /><g
     id="g27" /><g
     id="g29" /><g
     id="g31" /><g
     id="g33" /><g
     id="g35" /></svg>