<?xml version="1.0" encoding="UTF-8"?>
<svg version="1.1" id="Capa_1" xmlns="http://www.w3.org/2000/svg" xmlns:xlink="http://www.w3.org/1999/xlink" x="0px" y="0px"
	 viewBox="0 0 320.192 320.192" style="enable-background:new 0 0 320.192 320.192;" xml:space="preserve">
<g fill="#{sdcol(iconactive)}" fill-opacity="1">
	<g id="Dibujo_17_">
		<g>
			<path d="M277.352,168.31c16.192-14.364,26.278-35.298,26.278-57.899c0-6.095-4.946-11.041-11.041-11.041
				c-30.44,0-55.205-24.765-55.205-55.205c0-6.095-4.946-11.041-11.041-11.041c-39.074,0-71.386,29.171-76.498,66.859
				c-37.805,4.069-69.189,30.297-79.794,66.644c-3.185-0.574-6.525-1.01-9.324-1.01C27.244,165.616,0,192.86,0,226.342
				s27.244,60.726,60.726,60.726h198.74c33.482,0,60.726-27.244,60.726-60.726C320.192,199.082,302.129,175.967,277.352,168.31z
				 M216.229,56.133c5.156,33.04,31.329,59.224,64.37,64.392c-3.395,17.92-15.678,33.156-32.361,40.444
				c-11.891-32.836-41.112-56.343-76.139-60.77C176.288,77.9,193.915,60.284,216.229,56.133z M259.466,264.986H60.726
				c-21.304,0-38.644-17.34-38.644-38.644s17.34-38.644,38.644-38.644c1.529,0,3.997,0.375,6.592,0.894v10.147
				c0,6.095,4.946,11.041,11.041,11.041c6.095,0,11.041-4.946,11.041-11.041v-17.798c5.935-34.509,35.536-59.489,70.696-59.489
				c35.177,0,64.789,25.008,70.707,59.55v17.738c0,6.095,4.946,11.041,11.041,11.041c6.095,0,11.041-4.946,11.041-11.041v-10.141
				c2.595-0.519,5.068-0.9,6.581-0.9c21.304,0,38.644,17.34,38.644,38.644S280.77,264.986,259.466,264.986z"/>
		</g>
	</g>
</g>
<g>
</g>
<g>
</g>
<g>
</g>
<g>
</g>
<g>
</g>
<g>
</g>
<g>
</g>
<g>
</g>
<g>
</g>
<g>
</g>
<g>
</g>
<g>
</g>
<g>
</g>
<g>
</g>
<g>
</g>
</svg>
