<?xml version="1.0" encoding="UTF-8"?>
<!DOCTYPE svg PUBLIC "-//W3C//DTD SVG 1.1//EN" "http://www.w3.org/Graphics/SVG/1.1/DTD/svg11.dtd">
<svg version="1.1" id="Capa_1" xmlns="http://www.w3.org/2000/svg" xmlns:xlink="http://www.w3.org/1999/xlink" x="0px" y="0px"
	 viewBox="0 0 174.668 174.668" style="enable-background:new 0 0 174.668 174.668;" xml:space="preserve">
<g fill="#{sdcol(iconactive)}" fill-opacity="1">
<path d="M149.439,174.668H25.228c-1.104,0-2-0.896-2-2V2.001c0-1.104,0.896-2,2-2h89.433l0,0c0.003-0.001,0.006-0.001,0.009,0
	c0.001-0.001,0.004-0.001,0.008,0c0.002-0.001,0.004-0.001,0.007,0h0.001c0.257,0.003,0.502,0.055,0.728,0.146
	c0.225,0.091,0.437,0.225,0.623,0.4c0,0.001,0.001,0.002,0.001,0.002c0.001,0.001,0.002,0.001,0.002,0.002
	c0.014,0.013,0.027,0.026,0.041,0.039l34.77,34.771c0.013,0.014,0.026,0.027,0.039,0.041c0.002,0,0.001,0.004,0.004,0.003
	c0.17,0.181,0.301,0.385,0.392,0.602c0.001,0.001,0.001,0.002,0.001,0.002c0,0.001,0.001,0.002,0.001,0.002
	c0.096,0.23,0.15,0.481,0.153,0.745v0.001c0,0.004,0,0.005,0,0.007s0,0.005,0,0.007c0,0.001,0,0.003,0,0.004
	c0,0.002,0,0.004,0,0.006l0,0l0,0l0,0l0,0v135.888C151.439,173.772,150.544,174.668,149.439,174.668z M27.228,170.668h120.211V38.78
	h-32.778c-1.104,0-2-0.896-2-2V4.001H27.228V170.668z M116.661,34.78h27.95l-27.95-27.951V34.78z M105.24,114.085H54.797
	c-2.263,0-4.104-1.841-4.104-4.104V75.189c0-2.264,1.841-4.104,4.104-4.104h50.443c2.264,0,4.104,1.841,4.104,4.104v6.647
	c0,0.051,0.057,0.107,0.107,0.107l8.367-4.82c0.626-0.361,1.335-0.553,2.049-0.553c2.265,0,4.107,1.842,4.107,4.106v23.814
	c0,1.13-0.446,2.181-1.258,2.958c-0.772,0.74-1.785,1.148-2.85,1.148l0,0c-0.714,0-1.423-0.191-2.05-0.554l-8.318-4.802
	c-0.051-0.02-0.155-0.011-0.155,0.09v6.647C109.345,112.244,107.504,114.085,105.24,114.085z M54.797,75.085
	c-0.057,0-0.104,0.047-0.104,0.104v34.791c0,0.058,0.047,0.104,0.104,0.104h50.443c0.058,0,0.104-0.047,0.104-0.104v-6.647
	c0-2.265,1.843-4.107,4.107-4.107c0.713,0,1.422,0.191,2.048,0.553l8.319,4.803c0.096,0.021,0.156-0.038,0.156-0.089V80.677
	c0-0.101-0.106-0.106-0.107-0.106l-8.368,4.82c-1.561,0.9-3.608,0.641-4.897-0.597c-0.812-0.777-1.258-1.828-1.258-2.958v-6.647
	c0-0.058-0.047-0.104-0.104-0.104H54.797z"/>

</g>
<g>
</g>
<g>
</g>
<g>
</g>
<g>
</g>
<g>
</g>
<g>
</g>
<g>
</g>
<g>
</g>
<g>
</g>
<g>
</g>
<g>
</g>
<g>
</g>
<g>
</g>
<g>
</g>
</svg>
