<?xml version="1.0" encoding="UTF-8"?>
<!DOCTYPE svg PUBLIC "-//W3C//DTD SVG 1.1//EN" "http://www.w3.org/Graphics/SVG/1.1/DTD/svg11.dtd">
<svg version="1.1" id="Capa_1" xmlns="http://www.w3.org/2000/svg" xmlns:xlink="http://www.w3.org/1999/xlink" x="0px" y="0px"
	 viewBox="0 0 174 174" style="enable-background:new 0 0 174 174;" xml:space="preserve">
<g fill="#{sdcol(icon)}" fill-opacity="1">
<path d="M168.121,162.25H5.878c-3.241,0-5.878-2.638-5.878-5.879V17.629c0-3.241,2.637-5.879,5.878-5.879H74.04
	c2.059,0,3.994,1.099,5.049,2.867l2.519,4.223h79.635c1.104,0,2,0.896,2,2v14.077h4.879c3.242,0,5.879,2.638,5.879,5.879v115.575
	C174,159.612,171.363,162.25,168.121,162.25z M5.878,15.75C4.843,15.75,4,16.593,4,17.629v138.742c0,1.036,0.843,1.879,1.878,1.879
	h162.243c1.036,0,1.879-0.843,1.879-1.879V40.796c0-1.036-0.843-1.879-1.879-1.879H92.263c-2.059,0-3.994-1.099-5.049-2.867
	l-8.446-14.16c-0.011-0.018-0.021-0.036-0.032-0.054l-3.083-5.17c-0.337-0.564-0.955-0.916-1.613-0.916H5.878z M83.993,22.84
	l6.657,11.161c0.337,0.564,0.955,0.916,1.613,0.916h66.979V22.84H83.993z M107.878,122.48H49.062c-2.456,0-4.453-1.998-4.453-4.453
	V77.46c0-2.455,1.998-4.453,4.453-4.453h58.816c2.456,0,4.454,1.998,4.454,4.453v7.751c0,0.217,0.124,0.333,0.227,0.393
	c0.102,0.06,0.263,0.108,0.453,0l9.7-5.601c0,0,0,0,0.001,0c1.395-0.805,3.059-0.804,4.454,0.002
	c1.394,0.805,2.226,2.246,2.226,3.855v27.767c0,1.609-0.832,3.052-2.226,3.856c-1.395,0.805-3.06,0.805-4.454,0l-9.7-5.6
	c-0.187-0.108-0.35-0.061-0.453,0c-0.104,0.06-0.227,0.176-0.227,0.393v7.751C112.332,120.482,110.333,122.48,107.878,122.48z
	 M49.062,77.007c-0.25,0-0.453,0.203-0.453,0.453v40.567c0,0.25,0.203,0.453,0.453,0.453h58.816c0.25,0,0.454-0.203,0.454-0.453
	v-7.751c0-1.61,0.833-3.052,2.227-3.857c1.395-0.806,3.06-0.805,4.453,0l9.7,5.6c0.187,0.108,0.35,0.059,0.454,0.001
	c0.103-0.061,0.226-0.177,0.226-0.393V83.86c0-0.216-0.123-0.333-0.227-0.393c-0.103-0.06-0.265-0.109-0.454,0l-9.7,5.601
	c-1.394,0.805-3.058,0.805-4.453,0c-1.395-0.806-2.227-2.247-2.227-3.857V77.46c0-0.25-0.204-0.453-0.454-0.453H49.062z"/>

</g>
<g>
</g>
<g>
</g>
<g>
</g>
<g>
</g>
<g>
</g>
<g>
</g>
<g>
</g>
<g>
</g>
<g>
</g>
<g>
</g>
<g>
</g>
<g>
</g>
<g>
</g>
<g>
</g>
</svg>
