<?xml version="1.0" encoding="UTF-8"?>
<svg version="1.1" id="Capa_1" xmlns="http://www.w3.org/2000/svg" xmlns:xlink="http://www.w3.org/1999/xlink" x="0px" y="0px"
	 viewBox="0 0 320.192 320.192" style="enable-background:new 0 0 320.192 320.192;" xml:space="preserve">
<g fill="#{sdcol(icon)}" fill-opacity="1">
	<g id="Dibujo_30_">
		<g>
			<path d="M259.466,93.849c-2.799,0-6.139,0.436-9.319,1.016c-11.56-39.593-47.747-67.262-90.051-67.262
				S81.605,55.272,70.05,94.865c-3.185-0.58-6.525-1.016-9.324-1.016C27.244,93.849,0,121.093,0,154.575
				s27.244,60.726,60.726,60.726c6.095,0,11.041-4.946,11.041-11.041c0-6.095-4.946-11.041-11.041-11.041
				c-21.309,0-38.644-17.34-38.644-38.644s17.335-38.644,38.644-38.644c1.529,0,3.991,0.375,6.586,0.894v10.147
				c0,6.095,4.946,11.041,11.041,11.041s11.041-4.946,11.041-11.041v-17.782c5.935-34.514,35.541-59.506,70.702-59.506
				s64.767,24.992,70.702,59.506v17.782c0,6.095,4.946,11.041,11.041,11.041s11.041-4.946,11.041-11.041v-10.147
				c2.595-0.519,5.057-0.894,6.586-0.894c21.304,0,38.644,17.34,38.644,38.644s-17.34,38.644-38.644,38.644
				c-6.095,0-11.041,4.946-11.041,11.041c0,6.095,4.946,11.041,11.041,11.041c33.482,0,60.726-27.244,60.726-60.726
				S292.948,93.849,259.466,93.849z"/>
			<path d="M147.575,217.863c-3.042-5.278-9.799-7.088-15.082-4.047c-5.283,3.053-7.088,9.799-4.041,15.082l5.521,9.562
				c2.043,3.544,5.752,5.521,9.573,5.521c1.871,0,3.771-0.475,5.51-1.48c5.283-3.053,7.088-9.799,4.041-15.082L147.575,217.863z"/>
			<path d="M119.973,170.055c-3.047-5.278-9.804-7.088-15.082-4.047c-5.283,3.053-7.088,9.799-4.041,15.082l5.521,9.562
				c2.043,3.544,5.752,5.521,9.573,5.521c1.871,0,3.771-0.475,5.51-1.474c5.283-3.053,7.088-9.799,4.041-15.088L119.973,170.055z"/>
			<path d="M132.493,194.704c1.739,1.005,3.638,1.474,5.51,1.474c3.815,0,7.53-1.976,9.573-5.521l5.521-9.562
				c3.047-5.283,1.242-12.035-4.041-15.082s-12.04-1.237-15.082,4.041l-5.521,9.562C125.405,184.9,127.21,191.651,132.493,194.704z"
				/>
			<path d="M121.452,213.816c-5.283-3.047-12.035-1.237-15.082,4.047l-5.521,9.562c-3.047,5.283-1.242,12.035,4.041,15.082
				c1.739,1.005,3.638,1.479,5.51,1.479c3.815,0,7.53-1.976,9.573-5.521l5.521-9.562
				C128.54,223.621,126.735,216.869,121.452,213.816z"/>
			<path d="M115.932,204.26c0-6.095-4.946-11.041-11.041-11.041H93.849c-6.095,0-11.041,4.946-11.041,11.041
				c0,6.095,4.946,11.041,11.041,11.041h11.041C110.985,215.301,115.932,210.355,115.932,204.26z"/>
			<path d="M171.137,204.26c0-6.095-4.946-11.041-11.041-11.041h-11.041c-6.095,0-11.041,4.946-11.041,11.041
				c0,6.095,4.946,11.041,11.041,11.041h11.041C166.191,215.301,171.137,210.355,171.137,204.26z"/>
			<path d="M230.383,266.466c-3.042-5.278-9.805-7.088-15.082-4.041c-5.283,3.053-7.088,9.799-4.041,15.082l5.521,9.562
				c2.043,3.544,5.752,5.521,9.573,5.521c1.871,0,3.771-0.475,5.51-1.479c5.283-3.053,7.088-9.799,4.041-15.082L230.383,266.466z"/>
			<path d="M202.781,218.652c-3.047-5.278-9.799-7.088-15.082-4.041c-5.283,3.053-7.088,9.799-4.041,15.082l5.521,9.562
				c2.043,3.544,5.752,5.521,9.573,5.521c1.871,0,3.771-0.475,5.51-1.474c5.283-3.053,7.088-9.799,4.041-15.088L202.781,218.652z"/>
			<path d="M215.301,243.302c1.739,1.005,3.638,1.474,5.51,1.474c3.815,0,7.53-1.976,9.573-5.521l5.521-9.562
				c3.047-5.283,1.242-12.035-4.041-15.082c-5.283-3.047-12.035-1.237-15.082,4.041l-5.521,9.562
				C208.213,233.503,210.018,240.254,215.301,243.302z"/>
			<path d="M204.26,262.419c-5.283-3.047-12.035-1.237-15.082,4.041l-5.521,9.562c-3.047,5.283-1.242,12.035,4.041,15.082
				c1.739,1.01,3.638,1.485,5.51,1.485c3.815,0,7.53-1.976,9.573-5.521l5.521-9.562C211.349,272.224,209.543,265.472,204.26,262.419
				z"/>
			<path d="M198.74,252.863c0-6.095-4.946-11.041-11.041-11.041h-11.041c-6.095,0-11.041,4.946-11.041,11.041
				s4.946,11.041,11.041,11.041h11.041C193.793,263.904,198.74,258.958,198.74,252.863z"/>
			<path d="M242.904,241.822h-11.041c-6.095,0-11.041,4.946-11.041,11.041s4.946,11.041,11.041,11.041h11.041
				c6.095,0,11.041-4.946,11.041-11.041S248.999,241.822,242.904,241.822z"/>
		</g>
	</g>
</g>
<g>
</g>
<g>
</g>
<g>
</g>
<g>
</g>
<g>
</g>
<g>
</g>
<g>
</g>
<g>
</g>
<g>
</g>
<g>
</g>
<g>
</g>
<g>
</g>
<g>
</g>
<g>
</g>
<g>
</g>
</svg>
