<?xml version="1.0" encoding="UTF-8" standalone="no"?>
<!-- Generator: Adobe Illustrator 18.0.0, SVG Export Plug-In . SVG Version: 6.00 Build 0)  -->

<svg
   xmlns:dc="http://purl.org/dc/elements/1.1/"
   xmlns:cc="http://creativecommons.org/ns#"
   xmlns:rdf="http://www.w3.org/1999/02/22-rdf-syntax-ns#"
   xmlns:svg="http://www.w3.org/2000/svg"
   xmlns="http://www.w3.org/2000/svg"
   xmlns:sodipodi="http://sodipodi.sourceforge.net/DTD/sodipodi-0.dtd"
   xmlns:inkscape="http://www.inkscape.org/namespaces/inkscape"
   version="1.1"
   id="Capa_1"
   x="0px"
   y="0px"
   viewBox="0 0 250.189 250.189"
   style="enable-background:new 0 0 250.189 250.189;"
   xml:space="preserve"
   inkscape:version="0.91 r13725"
   sodipodi:docname="temperature.svg"><metadata
     id="metadata43"><rdf:RDF><cc:Work
         rdf:about=""><dc:format>image/svg+xml</dc:format><dc:type
           rdf:resource="http://purl.org/dc/dcmitype/StillImage" /></cc:Work></rdf:RDF></metadata><defs
     id="defs41" /><sodipodi:namedview
     pagecolor="#ffffff"
     bordercolor="#666666"
     borderopacity="1"
     objecttolerance="10"
     gridtolerance="10"
     guidetolerance="10"
     inkscape:pageopacity="0"
     inkscape:pageshadow="2"
     inkscape:window-width="1100"
     inkscape:window-height="815"
     id="namedview39"
     showgrid="false"
     inkscape:zoom="0.94328689"
     inkscape:cx="-192.94236"
     inkscape:cy="125.0945"
     inkscape:window-x="0"
     inkscape:window-y="0"
     inkscape:window-maximized="0"
     inkscape:current-layer="Capa_1" /><g
     id="g3"
     style="fill:#{sdcol(icon)};fill-opacity:1"><path
       d="M159.845,147.251V34.744C159.845,15.586,144.255,0,125.093,0c-19.159,0-34.746,15.586-34.746,34.744v112.506   c-14.234,10.843-22.617,27.59-22.617,45.575c0,31.631,25.732,57.364,57.363,57.364c31.633,0,57.367-25.733,57.367-57.364   C182.46,174.842,174.077,158.095,159.845,147.251z M125.093,235.189c-23.359,0-42.363-19.004-42.363-42.364   c0-14.294,7.188-27.537,19.228-35.425c2.115-1.386,3.39-3.745,3.39-6.273V34.744c0-10.887,8.858-19.744,19.746-19.744   c10.892,0,19.752,8.857,19.752,19.744v116.383c0,2.529,1.274,4.887,3.39,6.273c12.038,7.889,19.226,21.132,19.226,35.425   C167.46,216.185,148.454,235.189,125.093,235.189z"
       id="path5"
       style="fill:#{sdcol(icon)};fill-opacity:1" /><path
       d="M132.595,169.042V69.924c0-4.142-3.357-7.5-7.5-7.5s-7.5,3.358-7.5,7.5v99.118c-10.104,3.183-17.43,12.622-17.43,23.783   c0,13.767,11.16,24.931,24.93,24.931c13.773,0,24.932-11.164,24.932-24.931C150.026,181.663,142.7,172.223,132.595,169.042z"
       id="path7"
       style="fill:#{sdcol(icon)};fill-opacity:1" /></g><g
     id="g9" /><g
     id="g11" /><g
     id="g13" /><g
     id="g15" /><g
     id="g17" /><g
     id="g19" /><g
     id="g21" /><g
     id="g23" /><g
     id="g25" /><g
     id="g27" /><g
     id="g29" /><g
     id="g31" /><g
     id="g33" /><g
     id="g35" /><g
     id="g37" /></svg>