<?xml version="1.0" encoding="UTF-8"?>
<svg version="1.1" id="Capa_1" xmlns="http://www.w3.org/2000/svg" xmlns:xlink="http://www.w3.org/1999/xlink" x="0px" y="0px"
	 viewBox="0 0 320.192 320.192" style="enable-background:new 0 0 320.192 320.192;" xml:space="preserve">
<g fill="#{sdcol(icon)}" fill-opacity="1">
	<g id="Dibujo_27_">
		<path d="M259.466,82.808c-2.804,0-6.139,0.436-9.324,1.016c-11.554-39.593-47.742-67.262-90.046-67.262
			c-42.309,0-78.497,27.669-90.051,67.262c-3.18-0.58-6.52-1.016-9.319-1.016C27.244,82.808,0,110.052,0,143.534
			s27.244,60.726,60.726,60.726h62.178l-21.679,32.522c-2.258,3.384-2.468,7.74-0.552,11.334c1.927,3.588,5.67,5.83,9.738,5.83
			h12.493l-21.679,32.522c-3.379,5.073-2.009,11.93,3.064,15.309c1.877,1.259,4.008,1.855,6.111,1.855
			c3.566,0,7.066-1.728,9.197-4.919l33.123-49.685c2.258-3.384,2.468-7.74,0.552-11.334c-1.927-3.588-5.67-5.83-9.738-5.83h-12.493
			l18.4-27.603h28.663l-10.638,15.96c-2.258,3.384-2.468,7.74-0.552,11.334c1.932,3.588,5.675,5.83,9.744,5.83h12.493l-10.638,15.96
			c-3.379,5.073-2.009,11.93,3.064,15.308c1.877,1.259,4.008,1.855,6.111,1.855c3.566,0,7.066-1.728,9.197-4.919l22.082-33.123
			c2.258-3.384,2.468-7.74,0.552-11.334c-1.927-3.588-5.67-5.83-9.738-5.83h-12.493l7.359-11.041h54.819
			c33.482,0,60.726-27.244,60.726-60.726S292.948,82.808,259.466,82.808z M259.466,182.178H60.726
			c-21.304,0-38.644-17.34-38.644-38.644s17.34-38.644,38.644-38.644c1.529,0,3.991,0.375,6.586,0.894v10.147
			c0,6.095,4.941,11.041,11.041,11.041s11.041-4.946,11.041-11.041V98.161c5.924-34.52,35.53-59.517,70.702-59.517
			c35.166,0,64.773,24.997,70.702,59.523v17.765c0,6.095,4.946,11.041,11.041,11.041s11.041-4.946,11.041-11.041V105.79
			c2.595-0.519,5.073-0.9,6.586-0.9c21.304,0,38.644,17.34,38.644,38.644S280.77,182.178,259.466,182.178z"/>
	</g>
</g>
<g>
</g>
<g>
</g>
<g>
</g>
<g>
</g>
<g>
</g>
<g>
</g>
<g>
</g>
<g>
</g>
<g>
</g>
<g>
</g>
<g>
</g>
<g>
</g>
<g>
</g>
<g>
</g>
<g>
</g>
</svg>
