<?xml version="1.0" encoding="UTF-8" standalone="no"?>
<!-- Generator: Adobe Illustrator 18.1.1, SVG Export Plug-In . SVG Version: 6.00 Build 0)  -->

<svg
   xmlns:dc="http://purl.org/dc/elements/1.1/"
   xmlns:cc="http://creativecommons.org/ns#"
   xmlns:rdf="http://www.w3.org/1999/02/22-rdf-syntax-ns#"
   xmlns:svg="http://www.w3.org/2000/svg"
   xmlns="http://www.w3.org/2000/svg"
   xmlns:sodipodi="http://sodipodi.sourceforge.net/DTD/sodipodi-0.dtd"
   xmlns:inkscape="http://www.inkscape.org/namespaces/inkscape"
   version="1.1"
   id="Capa_1"
   x="0px"
   y="0px"
   viewBox="0 0 27.269 27.269"
   style="enable-background:new 0 0 27.269 27.269;"
   xml:space="preserve"
   inkscape:version="0.91 r13725"
   sodipodi:docname="Commands.svg"><metadata
     id="metadata75"><rdf:RDF><cc:Work
         rdf:about=""><dc:format>image/svg+xml</dc:format><dc:type
           rdf:resource="http://purl.org/dc/dcmitype/StillImage" /></cc:Work></rdf:RDF></metadata><defs
     id="defs73" /><sodipodi:namedview
     pagecolor="#ffffff"
     bordercolor="#666666"
     borderopacity="1"
     objecttolerance="10"
     gridtolerance="10"
     guidetolerance="10"
     inkscape:pageopacity="0"
     inkscape:pageshadow="2"
     inkscape:window-width="1920"
     inkscape:window-height="1017"
     id="namedview71"
     showgrid="false"
     inkscape:zoom="8.6545164"
     inkscape:cx="-21.029482"
     inkscape:cy="13.6345"
     inkscape:window-x="-8"
     inkscape:window-y="-8"
     inkscape:window-maximized="1"
     inkscape:current-layer="Capa_1" /><g
     id="g3"
     style="fill:#{sdcol(icon)};fill-opacity:1"><path
       d="M25.322,1.947H1.949C0.869,1.947,0,2.818,0,3.898v19.477c0,1.074,0.869,1.947,1.949,1.947h23.373   c1.07,0,1.947-0.873,1.947-1.947V3.898C27.27,2.818,26.393,1.947,25.322,1.947z M9.312,3.41c0.537,0,0.973,0.436,0.973,0.975   c0,0.537-0.436,0.973-0.973,0.973c-0.539,0-0.975-0.436-0.975-0.973C8.338,3.845,8.773,3.41,9.312,3.41z M6.33,3.41   c0.537,0,0.975,0.436,0.975,0.975c0,0.537-0.438,0.973-0.975,0.973c-0.539,0-0.975-0.436-0.975-0.973   C5.355,3.845,5.791,3.41,6.33,3.41z M3.406,3.41c0.541,0,0.975,0.436,0.975,0.975c0,0.537-0.434,0.973-0.975,0.973   c-0.535,0-0.971-0.436-0.971-0.973C2.436,3.845,2.871,3.41,3.406,3.41z M25.322,23.375H1.949V6.838h23.373   C25.322,6.838,25.322,23.375,25.322,23.375z"
       id="path5"
       style="fill:#{sdcol(icon)};fill-opacity:1" /><path
       d="M14.797,15.566L5.844,20.16v-1.332l7.602-3.781v-0.039l-7.602-3.782V9.894l8.953,4.572V15.566z"
       id="path7"
       style="fill:#{sdcol(icon)};fill-opacity:1" /><path
       d="M21.422,14.334v1.232h-4.764v-1.232H21.422z"
       id="path9"
       style="fill:#{sdcol(icon)};fill-opacity:1" /><g
       id="g11"
       style="fill:#{sdcol(icon)};fill-opacity:1" /><g
       id="g13"
       style="fill:#{sdcol(icon)};fill-opacity:1" /><g
       id="g15"
       style="fill:#{sdcol(icon)};fill-opacity:1" /><g
       id="g17"
       style="fill:#{sdcol(icon)};fill-opacity:1" /><g
       id="g19"
       style="fill:#{sdcol(icon)};fill-opacity:1" /><g
       id="g21"
       style="fill:#{sdcol(icon)};fill-opacity:1" /><g
       id="g23"
       style="fill:#{sdcol(icon)};fill-opacity:1" /><g
       id="g25"
       style="fill:#{sdcol(icon)};fill-opacity:1" /><g
       id="g27"
       style="fill:#{sdcol(icon)};fill-opacity:1" /><g
       id="g29"
       style="fill:#{sdcol(icon)};fill-opacity:1" /><g
       id="g31"
       style="fill:#{sdcol(icon)};fill-opacity:1" /><g
       id="g33"
       style="fill:#{sdcol(icon)};fill-opacity:1" /><g
       id="g35"
       style="fill:#{sdcol(icon)};fill-opacity:1" /><g
       id="g37"
       style="fill:#{sdcol(icon)};fill-opacity:1" /><g
       id="g39"
       style="fill:#{sdcol(icon)};fill-opacity:1" /></g><g
     id="g41" /><g
     id="g43" /><g
     id="g45" /><g
     id="g47" /><g
     id="g49" /><g
     id="g51" /><g
     id="g53" /><g
     id="g55" /><g
     id="g57" /><g
     id="g59" /><g
     id="g61" /><g
     id="g63" /><g
     id="g65" /><g
     id="g67" /><g
     id="g69" /></svg>