<?xml version="1.0" encoding="UTF-8"?>
<!-- Generator: Adobe Illustrator 18.0.0, SVG Export Plug-In . SVG Version: 6.00 Build 0)  -->
<!DOCTYPE svg PUBLIC "-//W3C//DTD SVG 1.1//EN" "http://www.w3.org/Graphics/SVG/1.1/DTD/svg11.dtd">
<svg version="1.1" id="Capa_1" xmlns="http://www.w3.org/2000/svg" xmlns:xlink="http://www.w3.org/1999/xlink" x="0px" y="0px"
	 viewBox="0 0 355.84 355.84" style="enable-background:new 0 0 355.84 355.84;" xml:space="preserve">
<g fill="#{sdcol(icon)}" fill-opacity="1">
	<path d="M335.56,97.174H201.374l132.943-20.19c6.766-1.027,11.434-7.367,10.406-14.133l-7.943-52.303
		C335.867,4.534,330.598,0,324.523,0c-0.624,0-1.254,0.048-1.875,0.142L18.419,46.346c-3.278,0.498-6.165,2.242-8.13,4.911
		c-1.965,2.669-2.774,5.944-2.276,9.222l7.425,48.888c-0.003,0.072-0.005,0.145-0.005,0.217v233.848
		c0,6.843,5.567,12.409,12.41,12.409H335.56c6.843,0,12.41-5.566,12.41-12.409V109.583
		C347.971,102.741,342.403,97.174,335.56,97.174z M286.243,31.969l26.873-4.081l3.862,25.431l-46.951,7.131L286.243,31.969z
		 M207.15,43.981l33.745-5.126L224.68,67.337l-33.746,5.124L207.15,43.981z M35.758,70.01l46.951-7.13L66.493,91.36l-26.872,4.081
		L35.758,70.01z M68.614,153.23H41.433v-25.723h47.49L68.614,153.23z M128.057,55.993l33.746-5.126l-16.216,28.482l-33.746,5.124
		L128.057,55.993z M168.922,127.507l-20.309,25.723h-34.132l20.308-25.723H168.922z M177.92,317.42c-35.899,0-65-29.101-65-65
		c0-35.899,29.101-65,65-65c35.899,0,65,29.101,65,65C242.92,288.319,213.819,317.42,177.92,317.42z M228.614,153.23h-34.132
		l20.308-25.723h34.133L228.614,153.23z M321.971,153.23h-47.489l20.308-25.723h27.181V153.23z"/>
	<path d="M209.021,247.2l-38.772-26.673c-1.938-1.333-4.456-1.481-6.538-0.388c-2.082,1.097-3.389,3.256-3.389,5.607v53.348
		c0,2.352,1.307,4.511,3.389,5.607c0.926,0.487,1.936,0.727,2.946,0.727c1.261,0,2.514-0.375,3.592-1.115l38.772-26.673
		c1.719-1.182,2.747-3.134,2.747-5.22C211.768,250.335,210.74,248.382,209.021,247.2z"/>
</g>
<g>
</g>
<g>
</g>
<g>
</g>
<g>
</g>
<g>
</g>
<g>
</g>
<g>
</g>
<g>
</g>
<g>
</g>
<g>
</g>
<g>
</g>
<g>
</g>
<g>
</g>
<g>
</g>
<g>
</g>
</svg>
