<?xml version="1.0" encoding="UTF-8" standalone="no"?>
<!-- Generator: Adobe Illustrator 17.1.0, SVG Export Plug-In . SVG Version: 6.00 Build 0)  -->

<svg
   xmlns:dc="http://purl.org/dc/elements/1.1/"
   xmlns:cc="http://creativecommons.org/ns#"
   xmlns:rdf="http://www.w3.org/1999/02/22-rdf-syntax-ns#"
   xmlns:svg="http://www.w3.org/2000/svg"
   xmlns="http://www.w3.org/2000/svg"
   xmlns:sodipodi="http://sodipodi.sourceforge.net/DTD/sodipodi-0.dtd"
   xmlns:inkscape="http://www.inkscape.org/namespaces/inkscape"
   version="1.1"
   id="Capa_1"
   x="0px"
   y="0px"
   viewBox="0 0 310.285 310.285"
   style="enable-background:new 0 0 310.285 310.285;"
   xml:space="preserve"
   inkscape:version="0.91 r13725"
   sodipodi:docname="error.svg"><metadata
     id="metadata39"><rdf:RDF><cc:Work
         rdf:about=""><dc:format>image/svg+xml</dc:format><dc:type
           rdf:resource="http://purl.org/dc/dcmitype/StillImage" /></cc:Work></rdf:RDF></metadata><defs
     id="defs37" /><sodipodi:namedview
     pagecolor="#ffffff"
     bordercolor="#666666"
     borderopacity="1"
     objecttolerance="10"
     gridtolerance="10"
     guidetolerance="10"
     inkscape:pageopacity="0"
     inkscape:pageshadow="2"
     inkscape:window-width="1920"
     inkscape:window-height="1017"
     id="namedview35"
     showgrid="false"
     inkscape:zoom="0.76059106"
     inkscape:cx="-239.28759"
     inkscape:cy="155.1425"
     inkscape:window-x="-8"
     inkscape:window-y="-8"
     inkscape:window-maximized="1"
     inkscape:current-layer="Capa_1" /><path
     d="M264.845,45.441C235.542,16.139,196.582,0,155.143,0S74.743,16.139,45.44,45.441C16.138,74.743,0,113.703,0,155.143  c0,41.439,16.138,80.399,45.44,109.701c29.303,29.303,68.262,45.44,109.702,45.44s80.399-16.138,109.702-45.44  c29.302-29.302,45.44-68.262,45.44-109.701C310.285,113.703,294.147,74.743,264.845,45.441z M189.702,157.985l38.669,38.669  c3.12,3.119,3.12,8.194,0,11.313l-22.333,22.333c-1.507,1.507-3.516,2.337-5.657,2.337c-2.141,0-4.15-0.83-5.657-2.337  l-38.669-38.669c-0.748-0.746-2.08-0.746-2.829,0l-38.669,38.669c-1.507,1.507-3.516,2.337-5.657,2.337  c-2.141,0-4.149-0.83-5.657-2.336l-22.333-22.334c-1.507-1.507-2.337-3.516-2.337-5.656c0-2.142,0.83-4.15,2.337-5.657  l38.669-38.669c0.766-0.767,0.766-2.063-0.001-2.829l-40.302-40.302c-1.507-1.507-2.337-3.516-2.337-5.657  c0-2.141,0.83-4.149,2.337-5.656l22.333-22.333c1.507-1.507,3.516-2.337,5.657-2.337c2.141,0,4.149,0.83,5.656,2.337l40.303,40.303  c0.749,0.747,2.081,0.746,2.828,0l40.303-40.303c1.507-1.507,3.516-2.337,5.657-2.337c2.141,0,4.149,0.83,5.656,2.337l22.333,22.333  c1.507,1.507,2.337,3.516,2.337,5.656c0,2.142-0.83,4.15-2.337,5.658l-40.302,40.301  C188.936,155.923,188.936,157.219,189.702,157.985z"
     id="path3"
     style="fill:#aa0000;fill-opacity:1" /><g
     id="g5" /><g
     id="g7" /><g
     id="g9" /><g
     id="g11" /><g
     id="g13" /><g
     id="g15" /><g
     id="g17" /><g
     id="g19" /><g
     id="g21" /><g
     id="g23" /><g
     id="g25" /><g
     id="g27" /><g
     id="g29" /><g
     id="g31" /><g
     id="g33" /></svg>