<?xml version="1.0" encoding="UTF-8"?>
<!-- Generator: Adobe Illustrator 19.0.0, SVG Export Plug-In . SVG Version: 6.00 Build 0)  -->
<svg version="1.1" id="Capa_1" xmlns="http://www.w3.org/2000/svg" xmlns:xlink="http://www.w3.org/1999/xlink" x="0px" y="0px"
	 viewBox="0 0 502.673 502.673" style="enable-background:new 0 0 502.673 502.673;" xml:space="preserve">
<g>
	<g>
		<g fill="#{sdcol(iconactive)}" fill-opacity="1">
			<path d="M501.176,174.032l-11.885,26.359c0,0-5.242-48.793-13.18-75.217
				c-7.938-26.359-25.022-43.508-25.022-43.508l7.873,35.613c0,0-27.632-33.758-54.143-45.989c-4.142-1.92-8.283-3.775-12.382-5.587
				c-34.858-31.127-80.718-50.195-131.15-50.195c-71.378,0-133.696,38.008-168.338,94.782c-1.726-1.057-11.605-7.356-16.415-19.371
				c-5.285-13.201-7.96-27.697-7.96-27.697c-32.939,31.644-25.065,84.385-25.065,84.385s-13.18,13.201-26.338,34.319
				C3.991,203.023,0,241.247,0,241.247l22.434-23.685c0,0-5.263,10.505-9.211,30.307c-3.969,19.802-2.675,51.468-2.675,51.468
				l11.886-25.108c0,0,0,80.481,76.512,151.664c76.468,71.205,213.594,91.05,317.802,1.337S501.176,174.032,501.176,174.032z
				 M261.287,41.393c40.747,0,78.086,14.258,107.487,37.965l-37.749,6.277c0,0,38.202,11.885,67.236,34.298
				c7.248,5.608,13.158,12.619,17.99,19.975c6.363,13.525,11.023,27.999,13.676,43.206l-18.443-14.388c0,0,6.558,7.916,7.895,29.013
				c1.337,21.096-5.306,59.341-5.306,59.341l-17.084-19.78c0,0,3.947,32.982-2.653,62.016c-6.601,28.948-21.096,40.79-21.096,40.79
				l2.589-34.254c0,0-19.759,43.573-75.153,60.657c-55.351,17.149-108.091-31.623-108.091-31.623
				c35.592,9.211,57.982-9.254,76.49-18.465c18.443-9.254,27.654-10.57,35.592-10.57c7.895,0,0-18.443-14.539-26.381
				c-14.496-7.873-31.623-3.947-65.92,5.306c-34.319,9.232-55.437-19.802-54.056-39.539c1.273-19.845,32.96-7.96,32.96-7.96
				l-1.294-39.539c0,0,52.719-32.939,48.772-40.898c-3.926-7.916-22.39-5.22-38.245-10.548c-15.79-5.242-25.022-19.78-25.022-19.78
				s-2.653-10.548,2.61-19.716c5.242-9.254,23.706-22.498,23.706-22.498s-11.842-1.294-31.623,5.285
				c-19.78,6.601-34.298,18.465-34.298,18.465s-3.883-1.208-20.018-2.524C159.106,66.459,207.252,41.393,261.287,41.393z"/>
		</g>
	</g>
	<g>
	</g>
	<g>
	</g>
	<g>
	</g>
	<g>
	</g>
	<g>
	</g>
	<g>
	</g>
	<g>
	</g>
	<g>
	</g>
	<g>
	</g>
	<g>
	</g>
	<g>
	</g>
	<g>
	</g>
	<g>
	</g>
	<g>
	</g>
	<g>
	</g>
</g>
<g>
</g>
<g>
</g>
<g>
</g>
<g>
</g>
<g>
</g>
<g>
</g>
<g>
</g>
<g>
</g>
<g>
</g>
<g>
</g>
<g>
</g>
<g>
</g>
<g>
</g>
<g>
</g>
<g>
</g>
</svg>
