<?xml version="1.0" encoding="UTF-8"?>
<!-- Generator: Adobe Illustrator 19.0.0, SVG Export Plug-In . SVG Version: 6.00 Build 0)  -->
<svg version="1.1" id="Capa_1" xmlns="http://www.w3.org/2000/svg" xmlns:xlink="http://www.w3.org/1999/xlink" x="0px" y="0px"
	 viewBox="0 0 467.59 467.59" style="enable-background:new 0 0 467.59 467.59;" xml:space="preserve">
<g>
	<g fill="#{sdcol(icon)}" fill-opacity="1">
		<g>
			<path d="M276.43,200.738c6.903-2.632,13.115-5.457,18.572-8.52c0-13.266,0-28.754,0-28.754h25.281
				c0.108-0.863,0.367-1.726,0.367-2.588V76.123c-0.022-31.968-71.788-57.896-160.314-57.896C71.788,18.227,0,44.155,0,76.123
				v84.752c0,31.989,71.788,57.918,160.336,57.918c21.441,0,41.847-1.553,60.528-4.293l34.664-34.6
				C255.527,179.857,266.96,191.268,276.43,200.738z M32.205,76.102c0-25.583,57.357-46.269,128.13-46.269
				c70.752,0,128.087,20.686,128.087,46.269c-0.022,25.583-57.357,46.291-128.087,46.291
				C89.562,122.371,32.205,101.663,32.205,76.102z"/>
			<path d="M225.76,276.861c1.035-2.826,2.2-5.608,3.43-8.326c-5.436-5.457-19.651-19.673-26.856-26.877
				c-13.417,1.316-27.46,2.071-42.02,2.071c-84.665,0-153.843-23.749-159.732-53.754C0.324,191.311,0,192.692,0,194.094v84.773
				c0,31.946,71.788,57.896,160.336,57.896c7.226,0,14.301-0.237,21.29-0.561v-59.32
				C181.626,276.861,215.276,276.861,225.76,276.861z"/>
			<path d="M467.59,336.008v-36.972h-36.347c-2.481-13.18-7.615-25.41-14.841-36.088l25.626-25.626
				L415.885,211.2l-25.626,25.626c-10.699-7.291-22.908-12.338-36.109-14.884v-36.325h-36.951v36.304
				c-13.137,2.588-25.367,7.636-36.045,14.884l-25.626-25.626L229.341,237.3l25.626,25.626
				c-7.226,10.678-12.338,22.908-14.841,36.088h-36.304v36.972h36.325c2.524,13.115,7.614,25.41,14.841,36.088l-25.626,25.605
				l26.187,26.144l25.626-25.626c10.678,7.248,22.908,12.339,36.045,14.884v36.282h36.951V413.08
				c13.137-2.524,25.41-7.636,36.109-14.862l25.626,25.605l26.165-26.144l-25.626-25.605c7.248-10.678,12.339-22.93,14.841-36.088
				L467.59,336.008L467.59,336.008z M335.685,357.838c-22.239,0-40.316-18.055-40.316-40.337c0-22.261,18.076-40.294,40.316-40.294
				c22.261,0,40.359,18.033,40.359,40.294C376.043,339.783,357.967,357.838,335.685,357.838z"/>
		</g>
	</g>
	<g>
	</g>
	<g>
	</g>
	<g>
	</g>
	<g>
	</g>
	<g>
	</g>
	<g>
	</g>
	<g>
	</g>
	<g>
	</g>
	<g>
	</g>
	<g>
	</g>
	<g>
	</g>
	<g>
	</g>
	<g>
	</g>
	<g>
	</g>
	<g>
	</g>
</g>
<g>
</g>
<g>
</g>
<g>
</g>
<g>
</g>
<g>
</g>
<g>
</g>
<g>
</g>
<g>
</g>
<g>
</g>
<g>
</g>
<g>
</g>
<g>
</g>
<g>
</g>
<g>
</g>
<g>
</g>
</svg>
