<?xml version="1.0" encoding="UTF-8"?>
<!-- Generator: Adobe Illustrator 19.1.0, SVG Export Plug-In . SVG Version: 6.00 Build 0)  -->
<svg version="1.1" id="Capa_1" xmlns="http://www.w3.org/2000/svg" xmlns:xlink="http://www.w3.org/1999/xlink" x="0px" y="0px"
	 viewBox="0 0 490.562 490.562" style="enable-background:new 0 0 490.562 490.562;" xml:space="preserve">
<g>
	<g>
		<g fill="#{sdcol(icon)}" fill-opacity="1">
			<path d="M450.258,191.019c-25.138-32.667-56.414-55.169-85.373-64.2c-32.888-12.315-66.335,4.332-119.614,4.332
				s-86.786-16.636-119.684-4.305c-28.933,9.048-60.172,43.668-85.284,76.302C-5.271,262.369-13.41,331.799,22.121,359.144
				c35.533,27.344,101.284-9.88,146.857-69.1c1.653-2.15,3.241-4.314,4.796-6.488c22.113,4.179,46.237,6.482,71.498,6.482
				c25.267,0,49.395-2.303,71.512-6.484c1.555,2.174,3.144,4.34,4.798,6.49c45.573,59.222,111.323,85.062,146.859,57.719
				C503.974,320.417,495.832,250.241,450.258,191.019z M143.995,239.147c-19.882,0-35.999-16.117-35.999-35.999
				s16.117-35.999,35.999-35.999s35.999,16.117,35.999,35.999S163.877,239.147,143.995,239.147z M341.989,155.15
				c9.942,0,18,8.058,18,18s-8.058,18-18,18s-18-8.058-18-18S332.047,155.15,341.989,155.15z M305.99,227.147
				c-9.942,0-18-8.058-18-17.998s8.058-18,18-18s18,8.059,18,18C323.989,219.089,315.931,227.147,305.99,227.147z M341.989,263.146
				c-9.942,0-18-8.058-18-17.998s8.058-18,18-18s18,8.059,18,18S351.93,263.146,341.989,263.146z M377.987,227.147
				c-9.94,0-17.998-8.058-17.998-17.998s8.058-18,17.998-18c9.942,0,18,8.059,18,18
				C395.986,219.089,387.928,227.147,377.987,227.147z"/>
			<circle cx="144.824" cy="202.308" r="27.325"/>
		</g>
	</g>
	<g>
	</g>
	<g>
	</g>
	<g>
	</g>
	<g>
	</g>
	<g>
	</g>
	<g>
	</g>
	<g>
	</g>
	<g>
	</g>
	<g>
	</g>
	<g>
	</g>
	<g>
	</g>
	<g>
	</g>
	<g>
	</g>
	<g>
	</g>
	<g>
	</g>
</g>
<g>
</g>
<g>
</g>
<g>
</g>
<g>
</g>
<g>
</g>
<g>
</g>
<g>
</g>
<g>
</g>
<g>
</g>
<g>
</g>
<g>
</g>
<g>
</g>
<g>
</g>
<g>
</g>
<g>
</g>
</svg>
