<svg xmlns="http://www.w3.org/2000/svg" viewBox="0 0 24 24" enable-background="new 0 0 24 24" width="512" height="512">
    <path d="M 18 2 C 16.343146 2 15 3.3431458 15 5 C 15 5.1963259 15.026495 5.3766961 15.0625 5.5625 L 7.9375 9.71875 C 7.4141653 9.2738436 6.7407113 9 6 9 C 4.3431458 9 3 10.343146 3 12 C 3 13.656854 4.3431458 15 6 15 C 6.7407113 15 7.4141653 14.726156 7.9375 14.28125 L 15.0625 18.4375 C 15.026495 18.623304 15 18.803674 15 19 C 15 20.656854 16.343146 22 18 22 C 19.656854 22 21 20.656854 21 19 C 21 17.343146 19.656854 16 18 16 C 17.259289 16 16.585835 16.273844 16.0625 16.71875 L 8.9375 12.5625 C 8.9735045 12.376696 9 12.196326 9 12 C 9 11.803674 8.9735045 11.623304 8.9375 11.4375 L 16.0625 7.28125 C 16.585835 7.7261564 17.259289 8 18 8 C 19.656854 8 21 6.6568542 21 5 C 21 3.3431458 19.656854 2 18 2 z" fill="#{sdcol(iconactive)}" fill-opacity="1" />
</svg>