<?xml version="1.0" encoding="UTF-8"?>
<svg version="1.1" id="Capa_1" xmlns="http://www.w3.org/2000/svg" xmlns:xlink="http://www.w3.org/1999/xlink" x="0px" y="0px"
	 viewBox="0 0 488 488" style="enable-background:new 0 0 488 488;" xml:space="preserve">
<g>
	<g fill="#{sdcol(iconactive)}" fill-opacity="1">
		<path d="M448.6,40.35H39.4C17.6,40.35,0,57.95,0,79.75v276.6c0,21.8,17.6,39.4,39.4,39.4h110.5v37.8c0,7.8,6.3,14.1,14.1,14.1h160
			c7.8,0,14.1-6.3,14.1-14.1v-37.8h110.5c21.8,0,39.4-17.6,39.4-39.4V79.75C488.1,58.05,470.4,40.35,448.6,40.35z M434.3,341.55
			H53.7V94.15h380.6V341.55z"/>
		<path d="M316.6,229.55l-113.8,65.7c-6.4,3.7-14.5-0.9-14.5-8.4v-131.4c0-7.4,8.1-12.1,14.5-8.4l113.8,65.7
			C323.1,216.55,323.1,225.85,316.6,229.55z"/>
	</g>
</g>
<g>
</g>
<g>
</g>
<g>
</g>
<g>
</g>
<g>
</g>
<g>
</g>
<g>
</g>
<g>
</g>
<g>
</g>
<g>
</g>
<g>
</g>
<g>
</g>
<g>
</g>
<g>
</g>
<g>
</g>
</svg>
