<?xml version="1.0" encoding="UTF-8" standalone="no"?>
<svg
   xmlns:dc="http://purl.org/dc/elements/1.1/"
   xmlns:cc="http://creativecommons.org/ns#"
   xmlns:rdf="http://www.w3.org/1999/02/22-rdf-syntax-ns#"
   xmlns:svg="http://www.w3.org/2000/svg"
   xmlns="http://www.w3.org/2000/svg"
   xmlns:sodipodi="http://sodipodi.sourceforge.net/DTD/sodipodi-0.dtd"
   xmlns:inkscape="http://www.inkscape.org/namespaces/inkscape"
   version="1.1"
   viewBox="0 0 289.658 289.658"
   enable-background="new 0 0 289.658 289.658"
   id="svg2"
   inkscape:version="0.91 r13725"
   sodipodi:docname="CAM.svg">
  <metadata
     id="metadata10">
    <rdf:RDF>
      <cc:Work
         rdf:about="">
        <dc:format>image/svg+xml</dc:format>
        <dc:type
           rdf:resource="http://purl.org/dc/dcmitype/StillImage" />
      </cc:Work>
    </rdf:RDF>
  </metadata>
  <defs
     id="defs8" />
  <sodipodi:namedview
     pagecolor="#ffffff"
     bordercolor="#666666"
     borderopacity="1"
     objecttolerance="10"
     gridtolerance="10"
     guidetolerance="10"
     inkscape:pageopacity="0"
     inkscape:pageshadow="2"
     inkscape:window-width="1920"
     inkscape:window-height="1017"
     id="namedview6"
     showgrid="false"
     inkscape:zoom="0.81475398"
     inkscape:cx="-223.38031"
     inkscape:cy="144.82899"
     inkscape:window-x="-8"
     inkscape:window-y="-8"
     inkscape:window-maximized="1"
     inkscape:current-layer="svg2" />
  <path
     d="m245.758,128.041h-14.217v-41.329c0-47.813-38.899-86.712-86.712-86.712-47.813,0-86.712,38.899-86.712,86.712v41.329h-14.217c-8.285,0-15.001,6.716-15.001,15.001v131.613c0,8.285 6.716,15.002 15.001,15.002h201.858c8.285,0 15.002-6.716 15.002-15.002v-131.612c0-8.285-6.717-15.002-15.002-15.002zm-151.221-41.329c0-27.731 22.561-50.292 50.292-50.292 27.731,0 50.292,22.561 50.292,50.292v41.329h-100.584v-41.329zm66.64,127.127v26.904c0,9.029-7.319,16.348-16.348,16.348-9.029,0-16.348-7.319-16.348-16.348v-26.904c-6.081-4.824-9.986-12.272-9.986-20.638 0-14.544 11.79-26.335 26.334-26.335 14.544,0 26.334,11.791 26.334,26.335 2.84217e-14,8.366-3.905,15.815-9.986,20.638z"
     id="path4"
     style="fill:#{sdcol(iconactive)}" />
</svg>
