<?xml version="1.0" encoding="UTF-8" standalone="no"?>
<!-- Created with Inkscape (http://www.inkscape.org/) -->

<svg
   xmlns:dc="http://purl.org/dc/elements/1.1/"
   xmlns:cc="http://creativecommons.org/ns#"
   xmlns:rdf="http://www.w3.org/1999/02/22-rdf-syntax-ns#"
   xmlns:svg="http://www.w3.org/2000/svg"
   xmlns="http://www.w3.org/2000/svg"
   xmlns:sodipodi="http://sodipodi.sourceforge.net/DTD/sodipodi-0.dtd"
   xmlns:inkscape="http://www.inkscape.org/namespaces/inkscape"
   version="1.0"
   width="531.60236"
   height="435.36612"
   id="svg39021"
   inkscape:version="0.91 r13725"
   sodipodi:docname="DVB.svg">
  <metadata
     id="metadata33">
    <rdf:RDF>
      <cc:Work
         rdf:about="">
        <dc:format>image/svg+xml</dc:format>
        <dc:type
           rdf:resource="http://purl.org/dc/dcmitype/StillImage" />
        <dc:title />
      </cc:Work>
    </rdf:RDF>
  </metadata>
  <sodipodi:namedview
     pagecolor="#ffffff"
     bordercolor="#666666"
     borderopacity="1"
     objecttolerance="10"
     gridtolerance="10"
     guidetolerance="10"
     inkscape:pageopacity="0"
     inkscape:pageshadow="2"
     inkscape:window-width="1920"
     inkscape:window-height="1017"
     id="namedview31"
     showgrid="false"
     inkscape:zoom="0.5420725"
     inkscape:cx="-287.63033"
     inkscape:cy="217.68306"
     inkscape:window-x="-8"
     inkscape:window-y="-8"
     inkscape:window-maximized="1"
     inkscape:current-layer="svg39021" />
  <defs
     id="defs39023" />
  <g
     transform="translate(-96.96393,-541.0755)"
     id="layer1"
     style="fill:#{sdcol(iconactive)};fill-opacity:1">
    <g
       transform="translate(3.542452,3.539235)"
       id="g39054"
       style="fill:#{sdcol(iconactive)};fill-opacity:1">
      <path
         d="M 97.037571,804.27746 L 116.75287,804.27746 C 138.84286,804.27746 158.35569,811.03341 158.35569,837.04431 C 158.35569,863.03689 138.84286,869.81116 116.75287,869.81116 L 97.037571,869.81116 L 97.037571,804.27746 z M 111.4881,859.48404 L 119.55093,859.48404 C 131.62679,859.48404 143.27919,851.3108 143.27919,837.04431 C 143.27919,822.77782 131.62679,814.60458 119.55093,814.60458 L 111.4881,814.60458 L 111.4881,859.48404"
         style="fill:#{sdcol(iconactive)};fill-rule:nonzero;stroke:none;fill-opacity:1"
         id="path38816" />
      <path
         d="M 168.00164,827.564 L 176.56141,827.564 L 176.56141,869.81116 L 168.00164,869.81116 L 168.00164,827.564 z M 167.44932,809.33981 L 177.11373,809.33981 L 177.11373,818.12048 L 167.44932,818.12048 L 167.44932,809.33981 z "
         style="fill:#{sdcol(iconactive)};fill-rule:nonzero;stroke:none;fill-opacity:1"
         id="path38818" />
      <path
         d="M 230.11133,867.98871 C 230.11133,880.81928 222.82153,888.18267 206.1621,888.18267 C 201.24707,888.18267 196.95795,887.61187 189.4842,885.29251 L 190.40458,878.07645 C 196.95795,880.81928 200.87886,881.88699 207.15607,881.88699 C 216.17611,881.88699 221.5514,876.34605 221.5514,867.39959 L 221.5514,863.25779 L 221.3673,863.25779 C 217.72255,867.65728 211.72135,869.81116 205.79389,869.81116 C 192.50304,869.81116 185.93135,859.94416 185.93135,849.00977 C 185.93135,838.16727 192.66883,826.57003 206.71427,826.57003 C 214.90598,826.57003 219.45279,829.2944 222.01167,833.85968 L 222.19563,833.85968 L 222.19563,827.564 L 230.11133,827.564 L 230.11133,867.98871 z M 221.5514,849.1754 C 221.5514,840.39458 217.09665,832.86556 207.98455,832.86556 C 199.33257,832.86556 195.04345,841.3887 195.04345,848.60476 C 195.04345,856.5571 199.95847,863.51548 207.98455,863.51548 C 215.99215,863.51548 221.5514,857.05416 221.5514,849.1754"
         style="fill:#{sdcol(iconactive)};fill-rule:nonzero;stroke:none;fill-opacity:1"
         id="path38820" />
      <path
         d="M 242.59216,827.564 L 251.15194,827.564 L 251.15194,869.81116 L 242.59216,869.81116 L 242.59216,827.564 z M 242.05831,809.33981 L 251.72258,809.33981 L 251.72258,818.12048 L 242.05831,818.12048 L 242.05831,809.33981 z "
         style="fill:#{sdcol(iconactive)};fill-rule:nonzero;stroke:none;fill-opacity:1"
         id="path38822" />
      <path
         d="M 288.31843,833.85968 L 276.02155,833.85968 L 276.02155,856.96211 C 276.02155,861.85866 279.29824,864.50944 283.2193,864.50944 C 285.85161,864.50944 287.76611,863.7547 289.05471,863.01842 L 289.05471,869.64537 C 287.14021,870.14243 284.48943,870.80512 281.76506,870.80512 C 272.92898,870.80512 267.46178,866.99459 267.46178,858.54519 L 267.46178,833.85968 L 256.98735,833.85968 L 256.98735,827.564 L 267.46178,827.564 L 267.46178,817.78921 L 276.02155,815.30406 L 276.02155,827.564 L 288.31843,827.564 L 288.31843,833.85968"
         style="fill:#{sdcol(iconactive)};fill-rule:nonzero;stroke:none;fill-opacity:1"
         id="path38824" />
      <path
         d="M 298.07475,830.5462 C 302.34556,828.2267 307.44454,826.57003 313.37216,826.57003 C 326.66285,826.57003 332.03814,832.53429 332.03814,844.03948 L 332.03814,861.52739 C 332.03814,866.33189 332.22225,868.55935 332.40621,869.81116 L 324.3986,869.81116 L 324.3986,864.34381 L 324.21465,864.34381 C 322.20809,866.90254 317.64281,870.80512 309.81931,870.80512 C 299.80515,870.80512 292.79151,866.82895 292.79151,857.6248 C 292.79151,847.02153 305.53019,843.70805 314.36612,843.70805 C 317.73486,843.70805 320.10948,843.70805 323.47822,843.87384 C 323.47822,836.58404 320.56975,832.86556 312.00982,832.86556 C 307.16853,832.86556 301.97734,834.52237 298.51655,837.17316 L 298.07475,830.5462 z M 323.47822,849.67246 C 321.65577,849.67246 319.83347,849.50667 318.01102,849.50667 C 313.37216,849.50667 301.88529,850.16937 301.88529,857.6248 C 301.88529,862.09803 306.63468,864.50944 310.55559,864.50944 C 319.02346,864.50944 323.47822,859.70494 323.47822,853.40926 L 323.47822,849.67246"
         style="fill:#{sdcol(iconactive)};fill-rule:nonzero;stroke:none;fill-opacity:1"
         id="path38826" />
      <path
         d="M 344.44525,807.68299 L 353.00517,807.68299 L 353.00517,869.81116 L 344.44525,869.81116 L 344.44525,807.68299 z "
         style="fill:#{sdcol(iconactive)};fill-rule:nonzero;stroke:none;fill-opacity:1"
         id="path38828" />
      <path
         d="M 378.92402,804.27746 L 394.42385,804.27746 L 412.88741,855.72877 L 413.10831,855.72877 L 431.36944,804.27746 L 445.72784,804.27746 L 421.46565,869.81116 L 403.70173,869.81116 L 378.92402,804.27746"
         style="fill:#{sdcol(iconactive)};fill-rule:nonzero;stroke:none;fill-opacity:1"
         id="path38830" />
      <path
         d="M 448.45235,827.564 L 457.01212,827.564 L 457.01212,869.81116 L 448.45235,869.81116 L 448.45235,827.564 z M 447.90003,809.33981 L 457.56445,809.33981 L 457.56445,818.12048 L 447.90003,818.12048 L 447.90003,809.33981 z "
         style="fill:#{sdcol(iconactive)};fill-rule:nonzero;stroke:none;fill-opacity:1"
         id="path38832" />
      <path
         d="M 502.37018,863.84675 L 502.18622,863.84675 C 499.90351,866.99459 494.62042,870.80512 486.33665,870.80512 C 472.30953,870.80512 466.38206,859.44725 466.38206,847.94207 C 466.38206,836.58404 472.95375,826.57003 486.4287,826.57003 C 494.52836,826.57003 499.18555,829.46003 501.81801,833.36262 L 502.00212,833.36262 L 502.00212,807.68299 L 510.56189,807.68299 L 510.56189,869.81116 L 502.37018,869.81116 L 502.37018,863.84675 z M 488.34306,864.50944 C 497.989,864.50944 502.00212,855.80235 502.00212,848.7704 C 502.00212,840.89164 497.54721,832.86556 488.251,832.86556 C 478.9548,832.86556 475.31005,840.81805 475.49416,848.51271 C 475.31005,855.13966 479.13891,864.50944 488.34306,864.50944"
         style="fill:#{sdcol(iconactive)};fill-rule:nonzero;stroke:none;fill-opacity:1"
         id="path38834" />
      <path
         d="M 557.57676,868.06229 C 554.30007,869.14846 550.56327,870.80512 542.90541,870.80512 C 526.41146,870.80512 518.86413,861.69303 518.86413,847.94207 C 518.86413,835.42429 527.51595,826.57003 540.62269,826.57003 C 556.12252,826.57003 561.1296,836.84173 561.1296,850.42721 L 527.95775,850.42721 C 527.95775,858.78456 535.1555,864.50944 543.27347,864.50944 C 548.92493,864.50944 555.4783,861.85866 557.57676,860.27558 L 557.57676,868.06229 z M 552.01751,844.62859 C 552.01751,838.16727 547.82044,832.86556 540.43859,832.86556 C 532.06292,832.86556 528.60213,839.16124 527.95775,844.62859 L 552.01751,844.62859"
         style="fill:#{sdcol(iconactive)};fill-rule:nonzero;stroke:none;fill-opacity:1"
         id="path38836" />
      <path
         d="M 590.01218,826.57003 C 604.13136,826.57003 613.59335,835.84777 613.59335,848.67834 C 613.59335,860.77264 603.9474,870.80512 590.01218,870.80512 C 575.98506,870.80512 566.32079,860.77264 566.32079,848.67834 C 566.32079,835.84777 575.80095,826.57003 590.01218,826.57003 z M 590.01218,864.50944 C 600.02634,864.50944 604.49957,856.22583 604.49957,848.67834 C 604.49957,840.65227 599.12428,832.86556 590.01218,832.86556 C 580.80803,832.86556 575.43289,840.65227 575.43289,848.67834 C 575.43289,856.22583 579.88765,864.50944 590.01218,864.50944"
         style="fill:#{sdcol(iconactive)};fill-rule:nonzero;stroke:none;fill-opacity:1"
         id="path38838" />
      <path
         d="M 97.037571,885.45815 L 122.22014,885.45815 C 131.51634,885.45815 145.45138,887.9065 145.45138,902.2649 C 145.45138,910.05161 139.67122,915.50048 131.11135,916.89961 L 131.11135,917.10203 C 140.90458,917.93036 147.62357,923.94988 147.62357,932.01275 C 147.62357,948.54349 131.31385,950.99169 122.22014,950.99169 L 97.037571,950.99169 L 97.037571,885.45815 z M 111.4881,940.66473 L 118.29917,940.66473 C 125.0182,940.66473 133.17309,939.15523 133.17309,931.55263 C 133.17309,923.01118 125.53364,921.68579 118.29917,921.68579 L 111.4881,921.68579 L 111.4881,940.66473 z M 111.4881,911.92932 L 117.37875,911.92932 C 123.4719,911.92932 131.0009,910.7143 131.0009,903.9585 C 131.0009,896.35591 123.6744,895.78526 117.06582,895.78526 L 111.4881,895.78526 L 111.4881,911.92932"
         style="fill:#{sdcol(iconactive)};fill-rule:nonzero;stroke:none;fill-opacity:1"
         id="path38840" />
      <path
         d="M 155.94413,908.74469 L 163.97021,908.74469 L 163.97021,915.27958 L 164.15431,915.27958 C 166.41856,910.89841 171.35191,907.75057 176.26693,907.75057 C 178.80734,907.75057 180.09594,907.98994 181.91824,908.32136 L 181.91824,915.27958 C 180.37195,914.70894 178.64155,914.54331 177.169,914.54331 C 169.52946,914.54331 164.52238,921.17026 164.52238,931.77353 L 164.52238,950.99169 L 155.94413,950.99169 L 155.94413,908.74469"
         style="fill:#{sdcol(iconactive)};fill-rule:nonzero;stroke:none;fill-opacity:1"
         id="path38842" />
      <path
         d="M 209.23621,907.75057 C 223.35538,907.75057 232.83569,917.02845 232.83569,929.85903 C 232.83569,941.95333 223.18975,951.98581 209.23621,951.98581 C 195.20908,951.98581 185.56314,941.95333 185.56314,929.85903 C 185.56314,917.02845 195.02498,907.75057 209.23621,907.75057 z M 209.23621,945.69013 C 219.26884,945.69013 223.7236,937.40637 223.7236,929.85903 C 223.7236,921.83295 218.3483,914.04625 209.23621,914.04625 C 200.05053,914.04625 194.67523,921.83295 194.67523,929.85903 C 194.67523,937.40637 199.13014,945.69013 209.23621,945.69013"
         style="fill:#{sdcol(iconactive)};fill-rule:nonzero;stroke:none;fill-opacity:1"
         id="path38844" />
      <path
         d="M 243.77024,911.72689 C 248.05936,909.40738 253.1585,907.75057 259.06749,907.75057 C 272.37681,907.75057 277.75195,913.71498 277.75195,925.22016 L 277.75195,942.70808 C 277.75195,947.51258 277.93606,949.74003 278.12016,950.99169 L 270.09409,950.99169 L 270.09409,945.52449 L 269.90998,945.52449 C 267.90358,948.08322 263.35676,951.98581 255.5148,951.98581 C 245.50063,951.98581 238.487,948.00964 238.487,938.80549 C 238.487,928.20222 251.24399,924.88874 260.08008,924.88874 C 263.44867,924.88874 265.82344,924.88874 269.19218,925.05438 C 269.19218,917.76473 266.26523,914.04625 257.70531,914.04625 C 252.88233,914.04625 247.69115,915.70306 244.23051,918.35384 L 243.77024,911.72689 z M 269.19218,930.853 C 267.36973,930.853 265.54728,930.68736 263.72483,930.68736 C 259.06749,930.68736 247.59924,931.35006 247.59924,938.80549 C 247.59924,943.27872 252.33016,945.69013 256.25107,945.69013 C 264.71895,945.69013 269.19218,940.88563 269.19218,934.58995 L 269.19218,930.853"
         style="fill:#{sdcol(iconactive)};fill-rule:nonzero;stroke:none;fill-opacity:1"
         id="path38846" />
      <path
         d="M 322.3922,945.02744 L 322.20809,945.02744 C 319.92537,948.17527 314.64228,951.98581 306.35852,951.98581 C 292.33139,951.98581 286.40393,940.62794 286.40393,929.12275 C 286.40393,917.76473 292.97562,907.75057 306.45057,907.75057 C 314.55023,907.75057 319.20757,910.64072 321.83988,914.54331 L 322.02398,914.54331 L 322.02398,888.86368 L 330.58391,888.86368 L 330.58391,950.99169 L 322.3922,950.99169 L 322.3922,945.02744 z M 308.36507,945.69013 C 318.01102,945.69013 322.02398,936.98304 322.02398,929.95108 C 322.02398,922.07232 317.56922,914.04625 308.27302,914.04625 C 298.97682,914.04625 295.33192,921.99859 295.51603,929.69339 C 295.33192,936.32034 299.16092,945.69013 308.36507,945.69013"
         style="fill:#{sdcol(iconactive)};fill-rule:nonzero;stroke:none;fill-opacity:1"
         id="path38848" />
      <path
         d="M 371.94732,915.8687 C 368.67064,914.61689 365.39395,914.04625 362.65112,914.04625 C 353.09722,914.04625 347.72193,921.83295 347.72193,929.85903 C 347.72193,937.40637 352.17684,945.69013 363.20344,945.69013 C 366.11191,945.69013 369.75681,944.8618 372.40759,943.27872 L 373.03349,950.23709 C 369.48065,951.72812 365.39395,951.98581 362.2829,951.98581 C 348.25578,951.98581 338.60983,941.95333 338.60983,929.85903 C 338.60983,917.02845 348.07182,907.75057 362.2829,907.75057 C 365.7437,907.75057 370.21693,908.487 372.6836,909.40738 L 371.94732,915.8687"
         style="fill:#{sdcol(iconactive)};fill-rule:nonzero;stroke:none;fill-opacity:1"
         id="path38850" />
      <path
         d="M 382.3297,911.72689 C 386.61882,909.40738 391.7178,907.75057 397.62695,907.75057 C 410.93611,907.75057 416.31141,913.71498 416.31141,925.22016 L 416.31141,942.70808 C 416.31141,947.51258 416.49552,949.74003 416.67947,950.99169 L 408.65355,950.99169 L 408.65355,945.52449 L 408.46944,945.52449 C 406.46288,948.08322 401.91607,951.98581 394.0741,951.98581 C 384.05994,951.98581 377.04646,948.00964 377.04646,938.80549 C 377.04646,928.20222 389.80345,924.88874 398.63939,924.88874 C 402.00812,924.88874 404.38274,924.88874 407.75148,925.05438 C 407.75148,917.76473 404.82454,914.04625 396.26477,914.04625 C 391.44179,914.04625 386.25061,915.70306 382.78981,918.35384 L 382.3297,911.72689 z M 407.75148,930.853 C 405.92903,930.853 404.10673,930.68736 402.28428,930.68736 C 397.62695,930.68736 386.15855,931.35006 386.15855,938.80549 C 386.15855,943.27872 390.88947,945.69013 394.81053,945.69013 C 403.27825,945.69013 407.75148,940.88563 407.75148,934.58995 L 407.75148,930.853"
         style="fill:#{sdcol(iconactive)};fill-rule:nonzero;stroke:none;fill-opacity:1"
         id="path38852" />
      <path
         d="M 424.59517,942.70808 C 427.98223,944.69616 432.8052,945.69013 435.25356,945.69013 C 439.17447,945.69013 443.99744,944.1991 443.99744,939.63382 C 443.99744,931.93917 423.87722,932.60186 423.87722,920.74693 C 423.87722,911.96611 431.07481,907.75057 440.27896,907.75057 C 444.2736,907.75057 447.55029,908.487 450.93734,909.40738 L 450.20107,916.20012 C 448.28656,915.11395 443.18758,914.04625 441.18102,914.04625 C 436.81817,914.04625 432.98931,915.70306 432.98931,919.18217 C 432.98931,927.79721 453.10954,925.31222 453.10954,938.80549 C 453.10954,947.844 445.19399,951.98581 436.8919,951.98581 C 432.52904,951.98581 428.05581,951.56248 424.15338,949.6663 L 424.59517,942.70808"
         style="fill:#{sdcol(iconactive)};fill-rule:nonzero;stroke:none;fill-opacity:1"
         id="path38854" />
      <path
         d="M 487.27551,915.04037 L 474.97863,915.04037 L 474.97863,938.14279 C 474.97863,943.03935 478.25531,945.69013 482.17637,945.69013 C 484.82715,945.69013 486.74166,944.93538 488.01178,944.1991 L 488.01178,950.82606 C 486.09728,951.32311 483.4465,951.98581 480.72214,951.98581 C 471.88605,951.98581 466.41885,948.17527 466.41885,939.72587 L 466.41885,915.04037 L 455.94442,915.04037 L 455.94442,908.74469 L 466.41885,908.74469 L 466.41885,898.96989 L 474.97863,896.48475 L 474.97863,908.74469 L 487.27551,908.74469 L 487.27551,915.04037"
         style="fill:#{sdcol(iconactive)};fill-rule:nonzero;stroke:none;fill-opacity:1"
         id="path38856" />
      <path
         d="M 496.3876,908.74469 L 504.94738,908.74469 L 504.94738,950.99169 L 496.3876,950.99169 L 496.3876,908.74469 z M 495.85375,890.52049 L 505.51802,890.52049 L 505.51802,899.30117 L 495.85375,899.30117 L 495.85375,890.52049 z "
         style="fill:#{sdcol(iconactive)};fill-rule:nonzero;stroke:none;fill-opacity:1"
         id="path38858" />
      <path
         d="M 517.88848,908.74469 L 526.17224,908.74469 L 526.17224,915.44537 L 526.35635,915.44537 C 528.89661,910.64072 535.10023,907.75057 541.56155,907.75057 C 553.58212,907.75057 558.95741,914.54331 558.95741,925.88286 L 558.95741,950.99169 L 550.39748,950.99169 L 550.39748,929.12275 C 550.39748,919.25576 548.04134,914.45125 540.56743,914.04625 C 530.81111,914.04625 526.44825,921.17026 526.44825,931.44211 L 526.44825,950.99169 L 517.88848,950.99169 L 517.88848,908.74469"
         style="fill:#{sdcol(iconactive)};fill-rule:nonzero;stroke:none;fill-opacity:1"
         id="path38860" />
      <path
         d="M 611.89974,949.16939 C 611.89974,961.99997 604.6101,969.3632 587.93204,969.3632 C 583.01701,969.3632 578.72789,968.79256 571.27261,966.4732 L 572.17452,959.25714 C 578.72789,961.99997 582.64895,963.06767 588.94448,963.06767 C 597.9462,963.06767 603.3215,957.52674 603.3215,948.58028 L 603.3215,944.43847 L 603.13739,944.43847 C 599.51096,948.81965 593.49144,950.99169 587.56398,950.99169 C 574.27313,950.99169 567.71976,941.12485 567.71976,930.1903 C 567.71976,919.34781 574.45724,907.75057 588.48436,907.75057 C 596.67607,907.75057 601.24136,910.47508 603.78161,915.04037 L 603.96572,915.04037 L 603.96572,908.74469 L 611.89974,908.74469 L 611.89974,949.16939 z M 603.3215,930.35609 C 603.3215,921.57526 598.86659,914.04625 589.75449,914.04625 C 581.10266,914.04625 576.81354,922.56938 576.81354,929.78545 C 576.81354,937.73779 581.74689,944.69616 589.75449,944.69616 C 597.78057,944.69616 603.3215,938.23485 603.3215,930.35609"
         style="fill:#{sdcol(iconactive)};fill-rule:nonzero;stroke:none;fill-opacity:1"
         id="path38862" />
      <path
         d="M 96.963928,771.63961 L 96.963928,541.07545 L 230.8844,541.07545 C 230.8844,541.07545 274.36489,543.02674 298.07475,583.41451 C 310.50032,604.58411 355.14057,737.1239 355.14057,737.1239 L 446.96117,541.07545 C 446.96117,541.07545 492.28244,541.07545 552.80905,541.07545 C 646.91236,541.07545 621.14068,655.31746 584.32408,655.31746 C 580.8265,655.31746 577.53135,655.20694 579.72201,655.20694 C 642.31029,655.20694 632.40665,771.63961 564.31423,771.63961 C 408.06443,771.63961 408.28533,771.63961 408.28533,771.63961 L 426.933,734.60197 C 426.933,734.60197 500.5662,734.36275 545.42735,734.36275 C 580.64239,734.36275 595.369,672.69485 531.86034,672.69485 C 521.73581,672.69485 500.7871,672.58448 500.7871,672.58448 L 516.43424,635.30761 C 516.43424,635.30761 540.12563,634.95787 544.98555,634.95787 C 580.86329,634.95787 593.52823,579.73282 540.82527,579.73282 C 501.24737,579.73282 475.25479,579.73282 475.25479,579.73282 L 385.51433,771.63961 L 324.76682,771.63961 L 259.41738,602.74319 C 259.41738,602.74319 250.91272,579.73282 216.8388,579.73282 C 196.8291,579.73282 143.90509,579.73282 143.90509,579.73282 L 143.90509,734.36275 C 143.90509,734.36275 166.67625,734.36275 211.55571,734.36275 C 249.0718,734.36275 271.38269,694.78484 271.38269,694.78484 C 279.22466,714.38969 288.8706,735.7434 288.8706,735.7434 C 288.8706,735.7434 263.78009,771.63961 232.26505,771.63961 C 222.36142,771.63961 96.963928,771.63961 96.963928,771.63961"
         style="fill:#{sdcol(iconactive)};fill-rule:nonzero;stroke:none;fill-opacity:1"
         id="path38864" />
    </g>
  </g>
</svg>
