<?xml version="1.0" encoding="UTF-8" standalone="no"?>
<!-- Generator: Adobe Illustrator 16.0.0, SVG Export Plug-In . SVG Version: 6.00 Build 0)  -->

<svg
   xmlns:dc="http://purl.org/dc/elements/1.1/"
   xmlns:cc="http://creativecommons.org/ns#"
   xmlns:rdf="http://www.w3.org/1999/02/22-rdf-syntax-ns#"
   xmlns:svg="http://www.w3.org/2000/svg"
   xmlns="http://www.w3.org/2000/svg"
   xmlns:sodipodi="http://sodipodi.sourceforge.net/DTD/sodipodi-0.dtd"
   xmlns:inkscape="http://www.inkscape.org/namespaces/inkscape"
   version="1.1"
   id="Capa_1"
   x="0px"
   y="0px"
   width="581.94px"
   height="581.94px"
   viewBox="0 0 581.94 581.94"
   style="enable-background:new 0 0 581.94 581.94;"
   xml:space="preserve"
   inkscape:version="0.91 r13725"
   sodipodi:docname="LNB.svg"><metadata
     id="metadata52"><rdf:RDF><cc:Work
         rdf:about=""><dc:format>image/svg+xml</dc:format><dc:type
           rdf:resource="http://purl.org/dc/dcmitype/StillImage" /></cc:Work></rdf:RDF></metadata><defs
     id="defs50" /><sodipodi:namedview
     pagecolor="#ffffff"
     bordercolor="#666666"
     borderopacity="1"
     objecttolerance="10"
     gridtolerance="10"
     guidetolerance="10"
     inkscape:pageopacity="0"
     inkscape:pageshadow="2"
     inkscape:window-width="1920"
     inkscape:window-height="1017"
     id="namedview48"
     showgrid="false"
     inkscape:zoom="0.40554009"
     inkscape:cx="-448.78424"
     inkscape:cy="290.97"
     inkscape:window-x="-8"
     inkscape:window-y="-8"
     inkscape:window-maximized="1"
     inkscape:current-layer="Capa_1" /><g
     id="g3"
     style="fill:#{sdcol(icon)};fill-opacity:1"><g
       id="Layer_1_8_"
       style="fill:#{sdcol(icon)};fill-opacity:1"><g
         id="g6"
         style="fill:#{sdcol(icon)};fill-opacity:1"><path
           d="M426.39,256.545c7.65-7.65,8.926-19.125,2.551-28.05L385.59,178.77c-3.825-3.825-7.649-6.375-14.024-6.375     s-10.2,1.275-14.025,5.1l-52.275,43.35c-49.725-28.05-110.925-28.05-160.649,2.55c-5.1,2.55-7.65,7.65-8.925,14.025     c-1.275,5.1,1.275,11.475,5.1,15.3l42.075,48.45c-19.125,26.774-19.125,65.024,3.825,91.8     c22.95,26.775,59.925,33.15,90.525,17.85l42.075,48.45c3.825,3.825,8.925,6.375,15.3,6.375s11.476-2.55,15.3-6.375     c38.25-44.625,47.176-105.825,26.775-158.1L426.39,256.545z"
           id="path8"
           style="fill:#{sdcol(icon)};fill-opacity:1" /><path
           d="M99.99,466.92c25.5,30.6,62.475,45.899,99.45,45.899c30.6,0,61.2-10.199,85.425-31.875     c7.649-6.375,8.925-19.125,2.55-26.774c-6.375-7.65-19.125-8.925-26.775-2.55c-39.525,33.149-98.175,29.324-131.325-10.2     c-33.15-39.525-29.325-98.175,10.2-131.325c7.65-6.375,8.925-19.125,2.55-26.775s-19.125-8.925-26.775-2.55     C59.19,329.22,52.815,412.095,99.99,466.92z"
           id="path10"
           style="fill:#{sdcol(icon)};fill-opacity:1" /><path
           d="M303.99,503.895c-67.575,58.65-169.575,51-226.95-16.575c-57.375-67.574-51-169.574,16.575-228.225     c7.65-6.375,8.925-19.125,2.55-26.775s-19.125-8.925-26.775-2.55c-40.8,34.425-65.025,82.875-68.85,136.425     c-3.825,53.551,12.75,104.551,47.175,145.351c39.525,45.899,95.625,68.85,151.725,68.85c45.9,0,93.075-15.3,130.05-48.45     c7.649-6.375,8.925-19.125,2.55-26.774C324.39,498.795,312.915,497.52,303.99,503.895z"
           id="path12"
           style="fill:#{sdcol(icon)};fill-opacity:1" /><path
           d="M283.59,171.12c6.375,7.65,16.575,7.65,24.226,1.275l43.35-36.975c3.825-2.55,5.1-7.65,6.375-11.475     c0-5.1-1.275-8.925-3.825-12.75L265.74,7.92c-2.55-3.825-7.65-5.1-11.475-6.375c-5.1,0-8.925,1.275-12.75,3.825l-43.35,36.975     c-7.65,6.375-7.65,16.575-1.275,24.225L283.59,171.12z"
           id="path14"
           style="fill:#{sdcol(icon)};fill-opacity:1" /><path
           d="M578.115,372.57L490.14,269.295c-6.375-7.65-16.574-7.65-24.225-1.275l-43.35,36.976     c-3.825,2.55-5.101,7.649-6.375,11.475c0,5.1,1.274,8.925,3.824,12.75l87.976,103.275c6.375,7.649,16.575,7.649,24.225,1.274     l43.351-36.975c3.824-2.55,5.1-7.65,6.375-11.476C581.94,380.22,580.665,376.395,578.115,372.57z"
           id="path16"
           style="fill:#{sdcol(icon)};fill-opacity:1" /></g></g></g><g
     id="g18" /><g
     id="g20" /><g
     id="g22" /><g
     id="g24" /><g
     id="g26" /><g
     id="g28" /><g
     id="g30" /><g
     id="g32" /><g
     id="g34" /><g
     id="g36" /><g
     id="g38" /><g
     id="g40" /><g
     id="g42" /><g
     id="g44" /><g
     id="g46" /></svg>