<?xml version="1.0" encoding="UTF-8" standalone="no"?>
<!-- Generator: Adobe Illustrator 16.0.0, SVG Export Plug-In . SVG Version: 6.00 Build 0)  -->

<svg
   xmlns:dc="http://purl.org/dc/elements/1.1/"
   xmlns:cc="http://creativecommons.org/ns#"
   xmlns:rdf="http://www.w3.org/1999/02/22-rdf-syntax-ns#"
   xmlns:svg="http://www.w3.org/2000/svg"
   xmlns="http://www.w3.org/2000/svg"
   xmlns:sodipodi="http://sodipodi.sourceforge.net/DTD/sodipodi-0.dtd"
   xmlns:inkscape="http://www.inkscape.org/namespaces/inkscape"
   version="1.1"
   id="Capa_1"
   x="0px"
   y="0px"
   width="535.5px"
   height="535.5px"
   viewBox="0 0 535.5 535.5"
   style="enable-background:new 0 0 535.5 535.5;"
   xml:space="preserve"
   inkscape:version="0.91 r13725"
   sodipodi:docname="Miscellaneous.svg"><metadata
     id="metadata42"><rdf:RDF><cc:Work
         rdf:about=""><dc:format>image/svg+xml</dc:format><dc:type
           rdf:resource="http://purl.org/dc/dcmitype/StillImage" /></cc:Work></rdf:RDF></metadata><defs
     id="defs40" /><sodipodi:namedview
     pagecolor="#ffffff"
     bordercolor="#666666"
     borderopacity="1"
     objecttolerance="10"
     gridtolerance="10"
     guidetolerance="10"
     inkscape:pageopacity="0"
     inkscape:pageshadow="2"
     inkscape:window-width="1920"
     inkscape:window-height="1017"
     id="namedview38"
     showgrid="false"
     inkscape:zoom="0.44070962"
     inkscape:cx="-412.97034"
     inkscape:cy="267.75"
     inkscape:window-x="-8"
     inkscape:window-y="-8"
     inkscape:window-maximized="1"
     inkscape:current-layer="Capa_1" /><g
     id="g3"
     style="fill:#{sdcol(iconactive)}"><g
       id="extension"
       style="fill:#{sdcol(iconactive)}"><path
         d="M471.75,255H433.5V153c0-28.05-22.95-51-51-51h-102V63.75C280.5,28.05,252.45,0,216.75,0S153,28.05,153,63.75V102H51    c-28.05,0-51,22.95-51,51v96.9h38.25c38.25,0,68.85,30.6,68.85,68.85S76.5,387.6,38.25,387.6H0v96.9c0,28.05,22.95,51,51,51h96.9    v-38.25c0-38.25,30.6-68.85,68.85-68.85s68.85,30.6,68.85,68.85v38.25h96.9c28.05,0,51-22.95,51-51v-102h38.25    c35.7,0,63.75-28.05,63.75-63.75S507.45,255,471.75,255z"
         id="path6"
         style="fill:#{sdcol(iconactive)}" /></g></g><g
     id="g8" /><g
     id="g10" /><g
     id="g12" /><g
     id="g14" /><g
     id="g16" /><g
     id="g18" /><g
     id="g20" /><g
     id="g22" /><g
     id="g24" /><g
     id="g26" /><g
     id="g28" /><g
     id="g30" /><g
     id="g32" /><g
     id="g34" /><g
     id="g36" /></svg>