<?xml version="1.0" encoding="UTF-8" standalone="no"?>
<!-- Generator: Adobe Illustrator 16.0.0, SVG Export Plug-In . SVG Version: 6.00 Build 0)  -->

<svg
   xmlns:dc="http://purl.org/dc/elements/1.1/"
   xmlns:cc="http://creativecommons.org/ns#"
   xmlns:rdf="http://www.w3.org/1999/02/22-rdf-syntax-ns#"
   xmlns:svg="http://www.w3.org/2000/svg"
   xmlns="http://www.w3.org/2000/svg"
   xmlns:sodipodi="http://sodipodi.sourceforge.net/DTD/sodipodi-0.dtd"
   xmlns:inkscape="http://www.inkscape.org/namespaces/inkscape"
   version="1.1"
   id="Capa_1"
   x="0px"
   y="0px"
   width="48.832px"
   height="48.832px"
   viewBox="0 0 48.832 48.832"
   style="enable-background:new 0 0 48.832 48.832;"
   xml:space="preserve"
   inkscape:version="0.91 r13725"
   sodipodi:docname="OSD.svg"><metadata
     id="metadata57"><rdf:RDF><cc:Work
         rdf:about=""><dc:format>image/svg+xml</dc:format><dc:type
           rdf:resource="http://purl.org/dc/dcmitype/StillImage" /></cc:Work></rdf:RDF></metadata><defs
     id="defs55" /><sodipodi:namedview
     pagecolor="#ffffff"
     bordercolor="#666666"
     borderopacity="1"
     objecttolerance="10"
     gridtolerance="10"
     guidetolerance="10"
     inkscape:pageopacity="0"
     inkscape:pageshadow="2"
     inkscape:window-width="1920"
     inkscape:window-height="1017"
     id="namedview53"
     showgrid="false"
     inkscape:zoom="4.8328964"
     inkscape:cx="-37.658577"
     inkscape:cy="24.416"
     inkscape:window-x="-8"
     inkscape:window-y="-8"
     inkscape:window-maximized="1"
     inkscape:current-layer="Capa_1" /><g
     id="g3"
     style="fill:#{sdcol(icon)};fill-opacity:1"><g
       id="g5"
       style="fill:#{sdcol(icon)};fill-opacity:1"><path
         d="M11.291,30.128c3.978,0,6.449-2.664,6.449-6.953c0-3.315-1.923-6.66-6.219-6.66c-3.761,0-6.387,2.842-6.387,6.912    C5.135,27.435,7.609,30.128,11.291,30.128z M11.438,18.056c2.31,0,3.922,2.148,3.922,5.224c0,3.175-1.567,5.309-3.9,5.309    c-2.358,0-3.943-2.1-3.943-5.225C7.516,20.188,9.092,18.056,11.438,18.056z"
         id="path7"
         style="fill:#{sdcol(icon)};fill-opacity:1" /><path
         d="M3,35.321h42.832v-24H3V35.321z M31.182,16.008l0.422-0.067c1.207-0.194,2.771-0.3,4.404-0.3    c2.734,0,4.615,0.497,6.096,1.612c1.694,1.26,2.592,3.243,2.592,5.732c0,3.286-1.375,5.138-2.527,6.114    c-1.555,1.291-3.858,1.944-6.854,1.944c-1.377,0-2.621-0.071-3.697-0.214l-0.436-0.057V16.008z M23.7,24.926    c-2.796-0.973-4.216-2.538-4.216-4.648c0-2.804,2.408-4.763,5.855-4.763c1.415,0,2.698,0.255,3.815,0.758l0.393,0.176    l-0.989,3.574l-0.54-0.261c-0.854-0.413-1.777-0.622-2.743-0.622c-0.945,0-1.557,0.339-1.557,0.864    c0,0.526,0.452,0.826,2.304,1.528c2.725,1.008,3.995,2.498,3.995,4.687c0,2.255-1.627,4.89-6.211,4.89    c-1.775,0-3.448-0.479-4.252-0.924l-0.335-0.187l0.893-3.631l0.563,0.289c0.378,0.194,1.736,0.827,3.32,0.827    c0.525,0,1.746-0.102,1.746-1.032C25.742,25.937,25.417,25.541,23.7,24.926z M11.522,15.515c4.317,0,7.219,3.079,7.219,7.66    c0,4.832-2.924,7.953-7.449,7.953c-4.214,0-7.156-3.167-7.156-7.701C4.135,18.768,7.172,15.515,11.522,15.515z"
         id="path9"
         style="fill:#{sdcol(icon)};fill-opacity:1" /><path
         d="M23.996,28.481c-1.322,0-2.481-0.371-3.208-0.674l-0.409,1.664c0.797,0.336,2.111,0.635,3.428,0.635    c3.215,0,5.211-1.489,5.211-3.889c0-1.738-1.031-2.895-3.348-3.751c-1.831-0.694-2.951-1.184-2.951-2.464    c0-0.928,0.79-1.864,2.557-1.864c0.916,0,1.798,0.163,2.632,0.485l0.443-1.603c-0.895-0.336-1.904-0.507-3.012-0.507    c-2.904,0-4.855,1.512-4.855,3.763c0,1.662,1.161,2.875,3.549,3.706c1.718,0.616,2.708,1.215,2.708,2.467    C26.742,27.433,26.021,28.481,23.996,28.481z"
         id="path11"
         style="fill:#{sdcol(icon)};fill-opacity:1" /><path
         d="M40.295,23.091c0.009-1.285-0.331-2.281-1.01-2.963c-0.668-0.674-1.687-1.03-2.941-1.03c-0.412,0-0.723,0.022-0.949,0.049    v8.391c0.196,0.009,0.418,0.009,0.613,0.009c0.001,0,0.001,0,0.002,0c1.387,0,2.425-0.36,3.143-1.073    C39.91,25.72,40.295,24.582,40.295,23.091z"
         id="path13"
         style="fill:#{sdcol(icon)};fill-opacity:1" /><path
         d="M41.525,28.333c1.418-1.201,2.17-3.051,2.17-5.348c0-2.192-0.736-3.851-2.189-4.932c-1.299-0.978-2.993-1.413-5.497-1.413    c-1.396,0-2.735,0.08-3.826,0.226V29.89c0.931,0.103,1.982,0.153,3.134,0.153C38.029,30.044,40.178,29.452,41.525,28.333z     M34.395,28.38V18.326l0.387-0.089c0.273-0.063,0.767-0.139,1.563-0.139c1.528,0,2.791,0.458,3.651,1.325    c0.859,0.866,1.31,2.135,1.3,3.671c0,1.765-0.483,3.14-1.438,4.089c-0.912,0.904-2.188,1.362-3.793,1.362h-0.002    c-0.496,0-0.951,0-1.281-0.077L34.395,28.38z"
         id="path15"
         style="fill:#{sdcol(icon)};fill-opacity:1" /><path
         d="M11.459,27.588c2.141,0,2.9-2.321,2.9-4.309c0-2.104-0.903-4.224-2.922-4.224c-1.775,0-2.922,1.691-2.922,4.308    C8.516,25.931,9.671,27.588,11.459,27.588z"
         id="path17"
         style="fill:#{sdcol(icon)};fill-opacity:1" /><path
         d="M0,38.321h48.832v-30H0V38.321z M2,10.321h44.832v26H2V10.321z"
         id="path19"
         style="fill:#{sdcol(icon)};fill-opacity:1" /><rect
         x="7.033"
         y="39.511"
         width="33.834"
         height="1"
         id="rect21"
         style="fill:#{sdcol(icon)};fill-opacity:1" /></g></g><g
     id="g23" /><g
     id="g25" /><g
     id="g27" /><g
     id="g29" /><g
     id="g31" /><g
     id="g33" /><g
     id="g35" /><g
     id="g37" /><g
     id="g39" /><g
     id="g41" /><g
     id="g43" /><g
     id="g45" /><g
     id="g47" /><g
     id="g49" /><g
     id="g51" /></svg>