<?xml version="1.0" encoding="UTF-8" standalone="no"?>
<!-- Generator: Adobe Illustrator 16.0.0, SVG Export Plug-In . SVG Version: 6.00 Build 0)  -->

<svg
   xmlns:dc="http://purl.org/dc/elements/1.1/"
   xmlns:cc="http://creativecommons.org/ns#"
   xmlns:rdf="http://www.w3.org/1999/02/22-rdf-syntax-ns#"
   xmlns:svg="http://www.w3.org/2000/svg"
   xmlns="http://www.w3.org/2000/svg"
   xmlns:sodipodi="http://sodipodi.sourceforge.net/DTD/sodipodi-0.dtd"
   xmlns:inkscape="http://www.inkscape.org/namespaces/inkscape"
   version="1.1"
   id="Capa_1"
   x="0px"
   y="0px"
   width="429.7px"
   height="429.7px"
   viewBox="0 0 429.7 429.7"
   style="enable-background:new 0 0 429.7 429.7;"
   xml:space="preserve"
   inkscape:version="0.91 r13725"
   sodipodi:docname="Plugins.svg"><metadata
     id="metadata45"><rdf:RDF><cc:Work
         rdf:about=""><dc:format>image/svg+xml</dc:format><dc:type
           rdf:resource="http://purl.org/dc/dcmitype/StillImage" /></cc:Work></rdf:RDF></metadata><defs
     id="defs43" /><sodipodi:namedview
     pagecolor="#ffffff"
     bordercolor="#666666"
     borderopacity="1"
     objecttolerance="10"
     gridtolerance="10"
     guidetolerance="10"
     inkscape:pageopacity="0"
     inkscape:pageshadow="2"
     inkscape:window-width="1920"
     inkscape:window-height="1017"
     id="namedview41"
     showgrid="false"
     inkscape:zoom="0.54922037"
     inkscape:cx="-331.37882"
     inkscape:cy="214.85001"
     inkscape:window-x="-8"
     inkscape:window-y="-8"
     inkscape:window-maximized="1"
     inkscape:current-layer="Capa_1" /><g
     id="g3"
     style="fill:#{sdcol(icon)};fill-opacity:1"><g
       id="g5"
       style="fill:#{sdcol(icon)};fill-opacity:1"><path
         d="M233.137,234.36L202.198,265.3l-37.799-37.8l30.939-30.938c6.856-6.855,6.856-18.012,0-24.867    c-6.855-6.856-18.011-6.856-24.867,0l-30.94,30.939l-15.539-15.538c-4.12-4.122-10.801-4.121-14.921,0L86.625,209.54    c-4.12,4.12-4.12,10.801,0,14.921l3.35,3.351l-50.72,50.718c-2.361,2.362-3.465,5.702-2.976,9.005l7.816,52.813L3.09,381.353    c-4.12,4.119-4.12,10.8,0,14.92l30.337,30.336c4.12,4.121,10.8,4.121,14.92,0l41.006-41.006l52.813,7.817    c3.303,0.488,6.644-0.614,9.004-2.977l50.719-50.719l3.35,3.35c4.12,4.119,10.801,4.119,14.921,0l22.445-22.447    c4.121-4.117,4.121-10.801,0-14.92l-15.539-15.539l30.939-30.939c6.855-6.856,6.855-18.012,0-24.868    C251.148,227.505,239.994,227.505,233.137,234.36z"
         id="path7"
         style="fill:#{sdcol(icon)};fill-opacity:1" /><path
         d="M426.609,33.428L396.273,3.089c-4.119-4.118-10.801-4.118-14.92,0l-41.006,41.007l-52.814-7.817    c-3.303-0.488-6.643,0.615-9.004,2.978l-50.719,50.719l-3.35-3.351c-4.119-4.119-10.8-4.121-14.921,0l-22.446,22.446    c-4.12,4.12-4.12,10.8,0,14.921l118.613,118.613c4.119,4.119,10.801,4.119,14.922,0l22.445-22.447    c4.119-4.12,4.119-10.801,0-14.92l-3.35-3.35l50.719-50.72c2.361-2.36,3.465-5.699,2.977-9.004l-7.816-52.812l41.006-41.006    C430.73,44.227,430.73,37.545,426.609,33.428z"
         id="path9"
         style="fill:#{sdcol(icon)};fill-opacity:1" /></g></g><g
     id="g11" /><g
     id="g13" /><g
     id="g15" /><g
     id="g17" /><g
     id="g19" /><g
     id="g21" /><g
     id="g23" /><g
     id="g25" /><g
     id="g27" /><g
     id="g29" /><g
     id="g31" /><g
     id="g33" /><g
     id="g35" /><g
     id="g37" /><g
     id="g39" /></svg>