<?xml version="1.0" encoding="UTF-8" standalone="no"?>
<!-- Generator: Adobe Illustrator 16.0.0, SVG Export Plug-In . SVG Version: 6.00 Build 0)  -->

<svg
   xmlns:dc="http://purl.org/dc/elements/1.1/"
   xmlns:cc="http://creativecommons.org/ns#"
   xmlns:rdf="http://www.w3.org/1999/02/22-rdf-syntax-ns#"
   xmlns:svg="http://www.w3.org/2000/svg"
   xmlns="http://www.w3.org/2000/svg"
   xmlns:sodipodi="http://sodipodi.sourceforge.net/DTD/sodipodi-0.dtd"
   xmlns:inkscape="http://www.inkscape.org/namespaces/inkscape"
   version="1.1"
   id="Capa_1"
   x="0px"
   y="0px"
   width="46.243px"
   height="46.243px"
   viewBox="0 0 46.243 46.243"
   style="enable-background:new 0 0 46.243 46.243;"
   xml:space="preserve"
   inkscape:version="0.91 r13725"
   sodipodi:docname="Replay.svg"><metadata
     id="metadata41"><rdf:RDF><cc:Work
         rdf:about=""><dc:format>image/svg+xml</dc:format><dc:type
           rdf:resource="http://purl.org/dc/dcmitype/StillImage" /></cc:Work></rdf:RDF></metadata><defs
     id="defs39" /><sodipodi:namedview
     pagecolor="#ffffff"
     bordercolor="#666666"
     borderopacity="1"
     objecttolerance="10"
     gridtolerance="10"
     guidetolerance="10"
     inkscape:pageopacity="0"
     inkscape:pageshadow="2"
     inkscape:window-width="1920"
     inkscape:window-height="1017"
     id="namedview37"
     showgrid="false"
     inkscape:zoom="5.1034751"
     inkscape:cx="-35.661975"
     inkscape:cy="23.1215"
     inkscape:window-x="-8"
     inkscape:window-y="-8"
     inkscape:window-maximized="1"
     inkscape:current-layer="Capa_1" /><g
     id="g3"
     style="fill:#{sdcol(icon)};fill-opacity:1"><path
       d="M36.012,0.001h-25.78c-5.651,0-10.231,4.561-10.231,10.211v9.897v3.115c0,1.607,1.303,2.91,2.91,2.91h10.292h5.278h0.016   v7.236c0,0.889,0.529,1.691,1.351,2.029c0.822,0.34,1.765,0.15,2.392-0.479l9.708-9.758c1.134-1.14,1.133-2.982,0-4.123   l-9.71-9.756c-0.627-0.632-1.565-0.821-2.387-0.482c-0.823,0.34-1.352,1.141-1.352,2.031v7.276h-0.017H6.032H6.026v-9.897   c0-2.316,1.89-4.186,4.206-4.186h25.78c2.316,0,4.207,1.87,4.207,4.186v25.78c0,2.314-1.891,4.226-4.207,4.226h-25.78   c-2.316,0-4.206-1.909-4.206-4.226v-0.819c0-1.664-1.349-3.013-3.013-3.013S0,33.508,0,35.172v0.819   c0,5.65,4.581,10.251,10.231,10.251h25.781c5.65,0,10.231-4.601,10.231-10.251v-25.78C46.243,4.562,41.662,0.001,36.012,0.001z"
       id="path5"
       style="fill:#{sdcol(icon)};fill-opacity:1" /></g><g
     id="g7" /><g
     id="g9" /><g
     id="g11" /><g
     id="g13" /><g
     id="g15" /><g
     id="g17" /><g
     id="g19" /><g
     id="g21" /><g
     id="g23" /><g
     id="g25" /><g
     id="g27" /><g
     id="g29" /><g
     id="g31" /><g
     id="g33" /><g
     id="g35" /></svg>