<?xml version="1.0" encoding="UTF-8" standalone="no"?>
<!-- Generator: Adobe Illustrator 18.0.0, SVG Export Plug-In . SVG Version: 6.00 Build 0)  -->

<svg
   xmlns:dc="http://purl.org/dc/elements/1.1/"
   xmlns:cc="http://creativecommons.org/ns#"
   xmlns:rdf="http://www.w3.org/1999/02/22-rdf-syntax-ns#"
   xmlns:svg="http://www.w3.org/2000/svg"
   xmlns="http://www.w3.org/2000/svg"
   xmlns:sodipodi="http://sodipodi.sourceforge.net/DTD/sodipodi-0.dtd"
   xmlns:inkscape="http://www.inkscape.org/namespaces/inkscape"
   version="1.1"
   id="Capa_1"
   x="0px"
   y="0px"
   viewBox="0 0 297 297"
   style="enable-background:new 0 0 297 297;"
   xml:space="preserve"
   inkscape:version="0.91 r13725"
   sodipodi:docname="Schedule.svg"><metadata
     id="metadata51"><rdf:RDF><cc:Work
         rdf:about=""><dc:format>image/svg+xml</dc:format><dc:type
           rdf:resource="http://purl.org/dc/dcmitype/StillImage" /></cc:Work></rdf:RDF></metadata><defs
     id="defs49" /><sodipodi:namedview
     pagecolor="#ffffff"
     bordercolor="#666666"
     borderopacity="1"
     objecttolerance="10"
     gridtolerance="10"
     guidetolerance="10"
     inkscape:pageopacity="0"
     inkscape:pageshadow="2"
     inkscape:window-width="1920"
     inkscape:window-height="1017"
     id="namedview47"
     showgrid="false"
     inkscape:zoom="0.79461279"
     inkscape:cx="-229.04237"
     inkscape:cy="148.5"
     inkscape:window-x="-8"
     inkscape:window-y="-8"
     inkscape:window-maximized="1"
     inkscape:current-layer="Capa_1" /><g
     id="g3"
     style="fill:#{sdcol(icon)}"><path
       d="M238.099,134.092c2.639,0,5.218-1.063,7.083-2.93c1.877-1.876,2.95-4.455,2.95-7.094c0-2.648-1.073-5.228-2.95-7.104   c-1.865-1.865-4.444-2.93-7.083-2.93c-2.648,0-5.228,1.064-7.094,2.93c-1.877,1.877-2.95,4.456-2.95,7.104   c0,2.639,1.073,5.218,2.95,7.094C232.871,133.029,235.45,134.092,238.099,134.092z"
       id="path5"
       style="fill:#{sdcol(icon)}" /><path
       d="M265.896,65.158H126.521l22.182-33.274c3.073-4.611,1.827-10.841-2.783-13.914c-4.611-3.075-10.84-1.829-13.914,2.783   l-24.231,36.35l-24.232-36.35c-3.074-4.612-9.303-5.857-13.914-2.783s-5.856,9.303-2.782,13.914l22.181,33.274H31.104   C13.953,65.158,0,79.111,0,96.263v153.351c0,17.151,13.953,31.104,31.104,31.104h234.791c17.151,0,31.104-13.953,31.104-31.104   V96.263C297,79.111,283.047,65.158,265.896,65.158z M265.896,85.225c6.086,0,11.037,4.951,11.037,11.037v153.351   c0,6.086-4.951,11.037-11.037,11.037H31.104c-6.086,0-11.037-4.951-11.037-11.037V96.263c0-6.086,4.951-11.037,11.037-11.037   H265.896z"
       id="path7"
       style="fill:#{sdcol(icon)}" /><path
       d="M254.385,211.776h-16.29c-5.541,0-10.034,4.493-10.034,10.034c0,5.541,4.493,10.033,10.034,10.033h16.29   c5.541,0,10.034-4.492,10.034-10.033C264.419,216.269,259.926,211.776,254.385,211.776z"
       id="path9"
       style="fill:#{sdcol(icon)}" /><path
       d="M254.385,179.194h-16.29c-5.541,0-10.034,4.493-10.034,10.034s4.493,10.033,10.034,10.033h16.29   c5.541,0,10.034-4.492,10.034-10.033S259.926,179.194,254.385,179.194z"
       id="path11"
       style="fill:#{sdcol(icon)}" /><path
       d="M254.385,146.611h-16.29c-5.541,0-10.034,4.493-10.034,10.034s4.493,10.034,10.034,10.034h16.29   c5.541,0,10.034-4.493,10.034-10.034S259.926,146.611,254.385,146.611z"
       id="path13"
       style="fill:#{sdcol(icon)}" /><path
       d="M184.445,97.74H63.687c-17.152,0-31.105,13.953-31.105,31.104v88.185c0,17.152,13.953,31.105,31.105,31.105h120.759   c17.151,0,31.105-13.953,31.105-31.105v-88.185C215.55,111.693,201.597,97.74,184.445,97.74z M195.482,217.029   c0,6.086-4.951,11.037-11.037,11.037H63.687c-6.086,0-11.037-4.951-11.037-11.037v-88.185c0-6.086,4.951-11.037,11.037-11.037   h120.759c6.086,0,11.037,4.951,11.037,11.037V217.029z"
       id="path15"
       style="fill:#{sdcol(icon)}" /></g><g
     id="g17" /><g
     id="g19" /><g
     id="g21" /><g
     id="g23" /><g
     id="g25" /><g
     id="g27" /><g
     id="g29" /><g
     id="g31" /><g
     id="g33" /><g
     id="g35" /><g
     id="g37" /><g
     id="g39" /><g
     id="g41" /><g
     id="g43" /><g
     id="g45" /></svg>