<?xml version="1.0" encoding="UTF-8" standalone="no"?>
<!-- Generator: Adobe Illustrator 16.0.0, SVG Export Plug-In . SVG Version: 6.00 Build 0)  -->

<svg
   xmlns:dc="http://purl.org/dc/elements/1.1/"
   xmlns:cc="http://creativecommons.org/ns#"
   xmlns:rdf="http://www.w3.org/1999/02/22-rdf-syntax-ns#"
   xmlns:svg="http://www.w3.org/2000/svg"
   xmlns="http://www.w3.org/2000/svg"
   xmlns:sodipodi="http://sodipodi.sourceforge.net/DTD/sodipodi-0.dtd"
   xmlns:inkscape="http://www.inkscape.org/namespaces/inkscape"
   version="1.1"
   id="Capa_1"
   x="0px"
   y="0px"
   width="63.404px"
   height="63.404px"
   viewBox="0 0 63.404 63.404"
   style="enable-background:new 0 0 63.404 63.404;"
   xml:space="preserve"
   inkscape:version="0.91 r13725"
   sodipodi:docname="StopRecording.svg"><metadata
     id="metadata41"><rdf:RDF><cc:Work
         rdf:about=""><dc:format>image/svg+xml</dc:format><dc:type
           rdf:resource="http://purl.org/dc/dcmitype/StillImage" /></cc:Work></rdf:RDF></metadata><defs
     id="defs39" /><sodipodi:namedview
     pagecolor="#ffffff"
     bordercolor="#666666"
     borderopacity="1"
     objecttolerance="10"
     gridtolerance="10"
     guidetolerance="10"
     inkscape:pageopacity="0"
     inkscape:pageshadow="2"
     inkscape:window-width="1920"
     inkscape:window-height="1017"
     id="namedview37"
     showgrid="false"
     inkscape:zoom="3.7221627"
     inkscape:cx="-48.896305"
     inkscape:cy="31.702"
     inkscape:window-x="-8"
     inkscape:window-y="-8"
     inkscape:window-maximized="1"
     inkscape:current-layer="Capa_1" /><g
     id="g3"
     style="fill:#{sdcol(iconactive)};fill-opacity:1"><path
       d="M38.342,28.673c0-2.726,2.208-4.938,4.937-4.938c2.724,0,4.934,2.21,4.934,4.938c0,2.729-2.21,4.937-4.934,4.937   C40.55,33.609,38.342,31.401,38.342,28.673z M61.834,10.278v3.139v36.57v3.139c0,5.666-4.614,10.278-10.275,10.278h-39.71   c-5.666,0-10.277-4.612-10.277-10.278V13.417c0-3.856,2.16-7.184,5.312-8.941C8.737,1.778,11.839,0,15.352,0h6.073h9.109h21.024   C57.225,0,61.834,4.611,61.834,10.278z M29.068,28.673c0,7.847,6.363,14.209,14.21,14.209c7.844,0,14.206-6.362,14.206-14.209   s-6.362-14.208-14.206-14.208C35.431,14.464,29.068,20.824,29.068,28.673z M6.943,49.987c0,0.434,0.066,0.849,0.129,1.264   l3.149-0.926c-0.01-0.114-0.035-0.224-0.035-0.34c0-2.489,2.022-4.51,4.511-4.51c2.487,0,4.51,2.019,4.51,4.51   c0,2.488-2.022,4.51-4.51,4.51c-1.713,0-3.187-0.97-3.951-2.377l-3.202,0.939c1.23,3.116,4.257,5.333,7.808,5.333h6.073V5.006   V4.072V3.138V1.867h-6.073c-1.696,0-3.27,0.514-4.592,1.38c-0.535,0.35-1.023,0.762-1.462,1.222   C8.893,4.892,8.541,5.357,8.23,5.856c-0.802,1.287-1.288,2.793-1.288,4.42v2.76l3.274-0.959c-0.009-0.115-0.034-0.225-0.034-0.341   c0-2.488,2.022-4.511,4.51-4.511c2.488,0,4.511,2.023,4.511,4.511c0,2.487-2.022,4.509-4.511,4.509   c-1.712,0-3.186-0.969-3.95-2.376L6.94,14.984v10.315l3.274-0.959c-0.009-0.115-0.034-0.225-0.034-0.341   c0-2.487,2.022-4.511,4.51-4.511c2.489,0,4.511,2.023,4.511,4.511c0,2.488-2.022,4.51-4.511,4.51c-1.712,0-3.186-0.97-3.95-2.377   l-3.802,1.116v10.899l3.274-0.961c-0.009-0.113-0.034-0.223-0.034-0.34c0-2.488,2.022-4.511,4.509-4.511   c2.488,0,4.511,2.022,4.511,4.511c0,2.489-2.023,4.51-4.511,4.51c-1.712,0-3.186-0.969-3.95-2.377l-3.802,1.116v9.893H6.943z    M14.959,37.745l-2.327,0.682c0.484,0.63,1.21,1.065,2.063,1.065c1.457,0,2.642-1.187,2.642-2.642s-1.188-2.642-2.642-2.642   c-1.381,0-2.486,1.079-2.601,2.432l2.336-0.687L14.959,37.745z M14.959,24.898l-2.327,0.682c0.484,0.63,1.21,1.065,2.063,1.065   c1.457,0,2.642-1.186,2.642-2.641c0-1.456-1.188-2.642-2.642-2.642c-1.381,0-2.486,1.079-2.601,2.432l2.336-0.686L14.959,24.898z    M14.959,12.635l-2.327,0.682c0.484,0.631,1.21,1.065,2.063,1.065c1.457,0,2.642-1.187,2.642-2.642   c0-1.456-1.188-2.642-2.642-2.642c-1.381,0-2.486,1.079-2.601,2.432l2.336-0.686L14.959,12.635z M14.959,50.884l-2.327,0.682   c0.484,0.63,1.21,1.065,2.063,1.065c1.457,0,2.642-1.186,2.642-2.642c0-1.455-1.188-2.642-2.642-2.642   c-1.381,0-2.486,1.079-2.601,2.432l2.336-0.687L14.959,50.884z M3.439,14.067l1.636-0.481v-3.31c0-0.702,0.072-1.388,0.208-2.049   c-1.135,1.434-1.843,3.221-1.843,5.188V14.067z M3.439,26.331l1.636-0.481V15.534l-1.636,0.481V26.331z M3.439,39.178l1.636-0.481   V27.797l-1.636,0.481V39.178z M3.439,52.316l1.818-0.536c-0.104-0.584-0.183-1.18-0.183-1.795v-9.344l-1.636,0.481V52.316z    M58.876,57.187c-1.866,1.897-4.453,3.079-7.317,3.079H30.535h-9.109h-6.073c-4.398,0-8.128-2.789-9.593-6.681L3.552,54.23   c0.546,4.112,4.037,7.304,8.296,7.304h39.71C54.715,61.534,57.438,59.764,58.876,57.187z"
       id="path5"
       style="fill:#{sdcol(iconactive)};fill-opacity:1" /></g><g
     id="g7" /><g
     id="g9" /><g
     id="g11" /><g
     id="g13" /><g
     id="g15" /><g
     id="g17" /><g
     id="g19" /><g
     id="g21" /><g
     id="g23" /><g
     id="g25" /><g
     id="g27" /><g
     id="g29" /><g
     id="g31" /><g
     id="g33" /><g
     id="g35" /><rect
     style="opacity:1;fill:#ffffff;fill-opacity:1;stroke:none;stroke-width:14;stroke-linecap:round;stroke-linejoin:miter;stroke-miterlimit:4;stroke-dasharray:none;stroke-opacity:1"
     id="rect4171"
     width="24.892944"
     height="7.8643508"
     x="-22.704958"
     y="54.199261"
     rx="2.0566301"
     ry="6.9125624"
     transform="matrix(0.70710678,-0.70710678,0.70710678,0.70710678,0,0)" /><rect
     transform="matrix(-0.70710678,-0.70710678,0.70710678,-0.70710678,0,0)"
     ry="6.9125624"
     rx="2.0566301"
     y="-14.190667"
     x="-70.577919"
     height="7.8643508"
     width="24.892944"
     id="rect4173"
     style="opacity:1;fill:#ffffff;fill-opacity:1;stroke:none;stroke-width:14;stroke-linecap:round;stroke-linejoin:miter;stroke-miterlimit:4;stroke-dasharray:none;stroke-opacity:1" /></svg>