<?xml version="1.0" encoding="UTF-8" standalone="no"?>
<!-- Generator: Adobe Illustrator 16.0.0, SVG Export Plug-In . SVG Version: 6.00 Build 0)  -->

<svg
   xmlns:dc="http://purl.org/dc/elements/1.1/"
   xmlns:cc="http://creativecommons.org/ns#"
   xmlns:rdf="http://www.w3.org/1999/02/22-rdf-syntax-ns#"
   xmlns:svg="http://www.w3.org/2000/svg"
   xmlns="http://www.w3.org/2000/svg"
   xmlns:sodipodi="http://sodipodi.sourceforge.net/DTD/sodipodi-0.dtd"
   xmlns:inkscape="http://www.inkscape.org/namespaces/inkscape"
   version="1.1"
   id="Capa_1"
   x="0px"
   y="0px"
   width="151.419px"
   height="151.419px"
   viewBox="0 0 151.419 151.419"
   style="enable-background:new 0 0 151.419 151.419;"
   xml:space="preserve"
   inkscape:version="0.91 r13725"
   sodipodi:docname="epg2vdr.svg"><metadata
     id="metadata55"><rdf:RDF><cc:Work
         rdf:about=""><dc:format>image/svg+xml</dc:format><dc:type
           rdf:resource="http://purl.org/dc/dcmitype/StillImage" /></cc:Work></rdf:RDF></metadata><defs
     id="defs53" /><sodipodi:namedview
     pagecolor="#ffffff"
     bordercolor="#666666"
     borderopacity="1"
     objecttolerance="10"
     gridtolerance="10"
     guidetolerance="10"
     inkscape:pageopacity="0"
     inkscape:pageshadow="2"
     inkscape:window-width="1920"
     inkscape:window-height="1017"
     id="namedview51"
     showgrid="false"
     inkscape:zoom="1.558589"
     inkscape:cx="-116.77228"
     inkscape:cy="75.709502"
     inkscape:window-x="-8"
     inkscape:window-y="-8"
     inkscape:window-maximized="1"
     inkscape:current-layer="Capa_1" /><g
     id="g3"
     style="fill:#{sdcol(icon)};fill-opacity:1"><g
       id="g5"
       style="fill:#{sdcol(icon)};fill-opacity:1"><polygon
         points="29.572,64.411 94.333,53.356 91.982,42.88 27.191,53.6   "
         id="polygon7"
         style="fill:#{sdcol(icon)};fill-opacity:1" /><path
         d="M39.293,108.667l2.412,10.984l26.399-5.212c0-0.037-0.012-0.062-0.012-0.098v-11.204L39.293,108.667z"
         id="path9"
         style="fill:#{sdcol(icon)};fill-opacity:1" /><path
         d="M35.612,91.934l32.474-5.968v-8.695c0-0.84,0.088-1.662,0.243-2.459l-35.098,6.272L35.612,91.934z"
         id="path11"
         style="fill:#{sdcol(icon)};fill-opacity:1" /><path
         d="M68.086,131.464l-32.76,6.723L13.822,40.024l84.322-13.356l6.681,29.782c1.516-0.106,3.044-0.171,4.572-0.201L96.757,0    L2.959,13.649l28.659,130.993l36.514-7.588c-0.006-0.158-0.045-0.316-0.045-0.475V131.464z"
         id="path13"
         style="fill:#{sdcol(icon)};fill-opacity:1" /><path
         d="M111.395,114.342c-20.483,0-37.073-6.638-37.073-14.827v14.827c0,8.184,16.59,14.833,37.073,14.833    c20.472,0,37.065-6.637,37.065-14.833V99.515C148.453,107.705,131.86,114.342,111.395,114.342z"
         id="path15"
         style="fill:#{sdcol(icon)};fill-opacity:1" /><path
         d="M111.395,136.592c-20.483,0-37.073-6.638-37.073-14.833v14.833c0,8.184,16.59,14.827,37.073,14.827    c20.472,0,37.065-6.631,37.065-14.827v-14.833C148.453,129.955,131.86,136.592,111.395,136.592z"
         id="path17"
         style="fill:#{sdcol(icon)};fill-opacity:1" /><path
         d="M111.395,62.448c-20.483,0-37.073,6.634-37.073,14.823v14.834c0,8.189,16.59,14.833,37.073,14.833    c20.472,0,37.065-6.638,37.065-14.833V77.271C148.453,69.087,131.86,62.448,111.395,62.448z M111.395,88.39    c-20.374,0-33.368-6.582-33.368-11.119c0-4.53,12.994-11.121,33.368-11.121c20.368,0,33.363,6.591,33.363,11.121    C144.758,81.808,131.757,88.39,111.395,88.39z"
         id="path19"
         style="fill:#{sdcol(icon)};fill-opacity:1" /></g></g><g
     id="g21" /><g
     id="g23" /><g
     id="g25" /><g
     id="g27" /><g
     id="g29" /><g
     id="g31" /><g
     id="g33" /><g
     id="g35" /><g
     id="g37" /><g
     id="g39" /><g
     id="g41" /><g
     id="g43" /><g
     id="g45" /><g
     id="g47" /><g
     id="g49" /></svg>