<?xml version="1.0" encoding="UTF-8" standalone="no"?>
<!-- Generator: Adobe Illustrator 16.0.0, SVG Export Plug-In . SVG Version: 6.00 Build 0)  -->

<svg
   xmlns:dc="http://purl.org/dc/elements/1.1/"
   xmlns:cc="http://creativecommons.org/ns#"
   xmlns:rdf="http://www.w3.org/1999/02/22-rdf-syntax-ns#"
   xmlns:svg="http://www.w3.org/2000/svg"
   xmlns="http://www.w3.org/2000/svg"
   xmlns:sodipodi="http://sodipodi.sourceforge.net/DTD/sodipodi-0.dtd"
   xmlns:inkscape="http://www.inkscape.org/namespaces/inkscape"
   version="1.1"
   id="Capa_1"
   x="0px"
   y="0px"
   width="415.961px"
   height="415.962px"
   viewBox="0 0 415.961 415.962"
   style="enable-background:new 0 0 415.961 415.962;"
   xml:space="preserve"
   inkscape:version="0.91 r13725"
   sodipodi:docname="femon.svg"><metadata
     id="metadata4219"><rdf:RDF><cc:Work
         rdf:about=""><dc:format>image/svg+xml</dc:format><dc:type
           rdf:resource="http://purl.org/dc/dcmitype/StillImage" /></cc:Work></rdf:RDF></metadata><defs
     id="defs4217" /><sodipodi:namedview
     pagecolor="#ffffff"
     bordercolor="#666666"
     borderopacity="1"
     objecttolerance="10"
     gridtolerance="10"
     guidetolerance="10"
     inkscape:pageopacity="0"
     inkscape:pageshadow="2"
     inkscape:window-width="1920"
     inkscape:window-height="1017"
     id="namedview4215"
     showgrid="false"
     inkscape:zoom="0.56735951"
     inkscape:cx="-320.78476"
     inkscape:cy="207.981"
     inkscape:window-x="-8"
     inkscape:window-y="-8"
     inkscape:window-maximized="1"
     inkscape:current-layer="Capa_1" /><g
     id="g4181"
     style="fill:#{sdcol(icon)};fill-opacity:1"><path
       d="M253.265,306.711c25,24.97,25,65.501,0,90.501c-24.969,25-65.5,25-90.5,0s-25-65.531,0-90.501   C187.765,281.711,228.297,281.711,253.265,306.711z M287.14,212.836c-48.906-27.813-109.656-27.75-158.531,0.188   c-15.344,8.781-20.656,28.344-11.875,43.688c5.906,10.313,16.688,16.095,27.813,16.095c5.375,0,10.844-1.345,15.844-4.22   c29.344-16.75,65.75-16.875,95.063-0.125c15.344,8.72,34.905,3.375,43.655-11.969C307.859,241.118,302.484,221.586,287.14,212.836z    M335.171,129.649c-78.438-44.875-175.844-44.875-254.219,0c-15.344,8.75-20.656,28.313-11.875,43.656   c8.781,15.343,28.344,20.688,43.656,11.875c58.75-33.594,131.813-33.656,190.625,0.031c5.031,2.875,10.5,4.219,15.875,4.219   c11.094,0,21.906-5.781,27.812-16.094C355.828,157.993,350.484,138.43,335.171,129.649z M382.671,46.211   C274.89-15.414,141.015-15.414,33.297,46.274c-15.344,8.75-20.656,28.313-11.875,43.656c5.906,10.344,16.688,16.094,27.781,16.094   c5.406,0,10.875-1.344,15.875-4.219c88.156-50.438,197.593-50.469,285.781-0.031c15.406,8.75,34.906,3.438,43.688-11.875   C403.328,74.555,397.984,55.024,382.671,46.211z"
       id="path4183"
       style="fill:#{sdcol(icon)};fill-opacity:1" /></g><g
     id="g4185" /><g
     id="g4187" /><g
     id="g4189" /><g
     id="g4191" /><g
     id="g4193" /><g
     id="g4195" /><g
     id="g4197" /><g
     id="g4199" /><g
     id="g4201" /><g
     id="g4203" /><g
     id="g4205" /><g
     id="g4207" /><g
     id="g4209" /><g
     id="g4211" /><g
     id="g4213" /></svg>