<?xml version="1.0" encoding="UTF-8"?>
<!-- Generator: Adobe Illustrator 19.1.0, SVG Export Plug-In . SVG Version: 6.00 Build 0)  -->
<svg version="1.1" id="Capa_1" xmlns="http://www.w3.org/2000/svg" xmlns:xlink="http://www.w3.org/1999/xlink" x="0px" y="0px"
	 viewBox="0 0 484.101 484.101" style="enable-background:new 0 0 484.101 484.101;" xml:space="preserve">
<g>
	<g fill="#{sdcol(icon)}" fill-opacity="1">
		<path d="M457.8,366.5h-32.2l0,0h-26.3l0,0h-32.2c-14.5,0-26.4,11.9-26.4,26.4V435c0,14.5,11.9,26.4,26.4,26.4h90.6
			c14.5,0,26.4-11.9,26.4-26.4v-42.1C484.2,378.4,472.3,366.5,457.8,366.5z"/>
		<path d="M117,366.5H84.9l0,0H58.6l0,0H26.4C11.9,366.5,0,378.4,0,392.9V435c0,14.5,11.9,26.4,26.4,26.4H117
			c14.5,0,26.4-11.9,26.4-26.4v-42.1C143.5,378.4,131.6,366.5,117,366.5z"/>
		<path d="M84.9,320.6H229v22.9h26.3v-22.9h144.1v22.9h26.3v-36c0-7.3-5.9-13.1-13.2-13.1H255.2v-50.6c25.6,0,51.2,0,76.8,0
			c7.7,0,15.2-1.1,22.1-4.6c17.5-9,26.4-23.5,26.4-43c0-16,0-32,0-47.9l0,0c0-25.8,0-51.6,0-77.4c0-27.9-20-48.2-47.9-48.2
			c-44.8,0-89.6,0-134.4,0l0,0c-15.7,0-31.5,0-47.2,0c-27,0-47.4,20.1-47.5,47c0,26.2,0,52.4,0,78.6l0,0c0,16.1,0,32.3,0,48.4
			c0,4.8,0.7,9.7,2,14.3c5.8,19.6,23.3,32.7,43.9,32.8c16.2,0.1,32.4,0.1,48.7,0l0,0c10.2,0,20.4,0,30.7,0v50.6H71.7
			c-7.3,0-13.2,5.9-13.2,13.1v36h26.3v-22.9H84.9z M330.6,49.8c7,0,12.7,5.7,12.7,12.7s-5.7,12.7-12.7,12.7s-12.7-5.7-12.7-12.7
			S323.6,49.8,330.6,49.8z M286.9,49.8c7,0,12.7,5.7,12.7,12.7s-5.7,12.7-12.7,12.7s-12.7-5.7-12.7-12.7S279.9,49.8,286.9,49.8z
			 M243.2,49.8c7,0,12.7,5.7,12.7,12.7s-5.7,12.7-12.7,12.7s-12.7-5.7-12.7-12.7S236.2,49.8,243.2,49.8z M198.3,217.5L198.3,217.5
			c-15.6,0-31.2,0-46.9,0c-13.5,0-21.7-8.2-21.7-21.6c0-15.9,0-31.8,0-47.7l0,0c0-14.1,0-28.2,0-42.4c0-1.2,0.1-2.4,0.2-3.9
			c22.8,0,45.6,0,68.3,0c52,0,104,0,156.1,0c0,1.6,0,3,0,4.5c0,9.5,0,18.9,0,28.4c0,20.4,0,40.9,0,61.3c0,13.1-8.4,21.5-21.4,21.5
			C288.1,217.5,243.2,217.5,198.3,217.5z"/>
		<path d="M287.4,366.5h-32.2l0,0h-26.3l0,0h-32.2c-14.5,0-26.4,11.9-26.4,26.4V435c0,14.5,11.9,26.4,26.4,26.4h90.6
			c14.5,0,26.4-11.9,26.4-26.4v-42.1C313.8,378.4,301.9,366.5,287.4,366.5z"/>
	</g>
</g>
<g>
</g>
<g>
</g>
<g>
</g>
<g>
</g>
<g>
</g>
<g>
</g>
<g>
</g>
<g>
</g>
<g>
</g>
<g>
</g>
<g>
</g>
<g>
</g>
<g>
</g>
<g>
</g>
<g>
</g>
</svg>
