<?xml version="1.0" encoding="UTF-8" standalone="no"?>
<!-- Generator: Adobe Illustrator 19.1.0, SVG Export Plug-In . SVG Version: 6.00 Build 0)  -->

<svg
   xmlns:dc="http://purl.org/dc/elements/1.1/"
   xmlns:cc="http://creativecommons.org/ns#"
   xmlns:rdf="http://www.w3.org/1999/02/22-rdf-syntax-ns#"
   xmlns:svg="http://www.w3.org/2000/svg"
   xmlns="http://www.w3.org/2000/svg"
   xmlns:sodipodi="http://sodipodi.sourceforge.net/DTD/sodipodi-0.dtd"
   xmlns:inkscape="http://www.inkscape.org/namespaces/inkscape"
   version="1.1"
   id="Capa_1"
   x="0px"
   y="0px"
   viewBox="0 0 460 460"
   style="enable-background:new 0 0 460 460;"
   xml:space="preserve"
   inkscape:version="0.91 r13725"
   sodipodi:docname="softhddevice.svg"><metadata
     id="metadata41"><rdf:RDF><cc:Work
         rdf:about=""><dc:format>image/svg+xml</dc:format><dc:type
           rdf:resource="http://purl.org/dc/dcmitype/StillImage" /></cc:Work></rdf:RDF></metadata><defs
     id="defs39" /><sodipodi:namedview
     pagecolor="#ffffff"
     bordercolor="#666666"
     borderopacity="1"
     objecttolerance="10"
     gridtolerance="10"
     guidetolerance="10"
     inkscape:pageopacity="0"
     inkscape:pageshadow="2"
     inkscape:window-width="1920"
     inkscape:window-height="1017"
     id="namedview37"
     showgrid="false"
     inkscape:zoom="0.51304348"
     inkscape:cx="-354.74576"
     inkscape:cy="230"
     inkscape:window-x="-8"
     inkscape:window-y="-8"
     inkscape:window-maximized="1"
     inkscape:current-layer="Capa_1" /><g
     id="g3"
     style="fill:#{sdcol(icon)}"><path
       style="fill:#{sdcol(icon)}"
       d="M0,67.5v285h460v-285H0z M30,97.5h400v225H30V97.5z M130,362.5l-20,20v10h240v-10l-20-20H130z"
       id="path5" /></g><g
     id="g7" /><g
     id="g9" /><g
     id="g11" /><g
     id="g13" /><g
     id="g15" /><g
     id="g17" /><g
     id="g19" /><g
     id="g21" /><g
     id="g23" /><g
     id="g25" /><g
     id="g27" /><g
     id="g29" /><g
     id="g31" /><g
     id="g33" /><g
     id="g35" /><g
     style="font-style:italic;font-variant:normal;font-weight:bold;font-stretch:normal;font-size:84.9417038px;line-height:125%;font-family:Arial;-inkscape-font-specification:'Arial Bold Italic';letter-spacing:0px;word-spacing:0px;fill:#{sdcol(icon)};fill-opacity:1;stroke:none;stroke-width:1px;stroke-linecap:butt;stroke-linejoin:miter;stroke-opacity:1"
     id="text4169"><path
       d="m 81.871828,231.46904 20.831042,-1.08873 q 0.43549,9.94373 3.41135,13.42767 4.79042,5.6614 17.71002,5.6614 10.74214,0 15.53255,-3.84685 4.79041,-3.84685 4.79041,-9.2905 0,-4.71783 -3.91943,-7.98402 -2.75811,-2.39521 -15.16964,-7.76628 -12.33894,-5.37107 -18.07292,-8.92759 -5.6614,-3.6291 -8.927592,-9.36308 -3.266191,-5.73398 -3.266191,-13.42767 0,-13.42768 9.725993,-22.28268 9.72599,-8.85501 28.16182,-8.85501 18.72616,0 28.96023,8.78243 10.30665,8.78242 11.32279,23.37141 l -20.9762,0.94356 q -0.7984,-7.62111 -5.51623,-11.6857 -4.71783,-4.0646 -13.93575,-4.0646 -9.07275,0 -12.99218,3.19361 -3.84685,3.19361 -3.84685,8.05661 0,4.57267 3.55652,7.54853 3.55652,3.04844 15.7503,8.34693 18.36325,7.91144 23.37141,12.84702 7.47595,7.2582 7.47595,18.65358 0,14.08091 -11.17763,24.09723 -11.10505,9.94374 -30.99253,9.94374 -13.718,0 -23.806901,-4.57267 Q 89.85585,258.54213 85.718675,250.34036 81.5815,242.13859 81.871828,231.46904 Z"
       style="font-style:italic;font-variant:normal;font-weight:bold;font-stretch:normal;font-size:148.64797974px;font-family:Arial;-inkscape-font-specification:'Arial Bold Italic';fill:#{sdcol(icon)}"
       id="path4174" /><path
       d="m 251.20568,218.40427 -41.154,0 -9.94374,47.54123 -21.91977,0 22.28268,-106.40525 21.84719,0 -8.56468,41.08143 41.15401,0 8.63726,-41.08143 21.84719,0 -22.2101,106.40525 -21.91977,0 9.94373,-47.54123 z"
       style="font-style:italic;font-variant:normal;font-weight:bold;font-stretch:normal;font-size:148.64797974px;font-family:Arial;-inkscape-font-specification:'Arial Bold Italic';fill:#{sdcol(icon)}"
       id="path4176" /><path
       d="m 285.60956,265.9455 22.28268,-106.40525 28.6699,0 q 11.97603,0 15.3148,0.36291 6.60497,0.65324 11.75829,2.68554 5.22591,2.03229 9.43566,5.73398 4.28234,3.6291 7.33079,8.78242 3.12102,5.15332 4.79041,11.90345 1.66939,6.67755 1.66939,14.66157 0,17.20194 -6.60497,30.55703 -6.53238,13.28251 -16.47612,21.12137 -7.62111,6.09689 -19.66972,9.00017 -6.82271,1.59681 -20.97621,1.59681 l -37.5249,0 z m 25.47629,-17.12936 11.10505,0 q 12.04861,0 17.41968,-1.45164 5.44365,-1.52422 9.94374,-5.58882 6.4598,-5.87914 10.8873,-15.67771 4.4275,-9.79858 4.4275,-23.08109 0,-11.32279 -3.70168,-16.98419 -3.6291,-5.73398 -9.00017,-7.62111 -3.77426,-1.30648 -13.42767,-1.30648 l -12.70186,0 -14.95189,71.71104 z"
       style="font-style:italic;font-variant:normal;font-weight:bold;font-stretch:normal;font-size:148.64797974px;font-family:Arial;-inkscape-font-specification:'Arial Bold Italic';fill:#{sdcol(icon)}"
       id="path4178" /></g></svg>