<?xml version="1.0" encoding="UTF-8" standalone="no"?>
<!-- Generator: Adobe Illustrator 16.0.0, SVG Export Plug-In . SVG Version: 6.00 Build 0)  -->

<svg
   xmlns:dc="http://purl.org/dc/elements/1.1/"
   xmlns:cc="http://creativecommons.org/ns#"
   xmlns:rdf="http://www.w3.org/1999/02/22-rdf-syntax-ns#"
   xmlns:svg="http://www.w3.org/2000/svg"
   xmlns="http://www.w3.org/2000/svg"
   xmlns:sodipodi="http://sodipodi.sourceforge.net/DTD/sodipodi-0.dtd"
   xmlns:inkscape="http://www.inkscape.org/namespaces/inkscape"
   version="1.1"
   id="Capa_1"
   x="0px"
   y="0px"
   width="612px"
   height="612px"
   viewBox="0 0 612 612"
   style="enable-background:new 0 0 612 612;"
   xml:space="preserve"
   inkscape:version="0.91 r13725"
   sodipodi:docname="weatherforecast.svg"><metadata
     id="metadata44"><rdf:RDF><cc:Work
         rdf:about=""><dc:format>image/svg+xml</dc:format><dc:type
           rdf:resource="http://purl.org/dc/dcmitype/StillImage" /></cc:Work></rdf:RDF></metadata><defs
     id="defs42" /><sodipodi:namedview
     pagecolor="#ffffff"
     bordercolor="#666666"
     borderopacity="1"
     objecttolerance="10"
     gridtolerance="10"
     guidetolerance="10"
     inkscape:pageopacity="0"
     inkscape:pageshadow="2"
     inkscape:window-width="1377"
     inkscape:window-height="877"
     id="namedview40"
     showgrid="false"
     inkscape:zoom="0.38562092"
     inkscape:cx="-471.9661"
     inkscape:cy="306"
     inkscape:window-x="0"
     inkscape:window-y="0"
     inkscape:window-maximized="0"
     inkscape:current-layer="Capa_1" /><g
     id="g3"
     style="fill:#{sdcol(icon)};fill-opacity:1"><g
       id="Cloud_x5F_Sun"
       style="fill:#{sdcol(icon)};fill-opacity:1"><g
         id="g6"
         style="fill:#{sdcol(icon)};fill-opacity:1"><path
           d="M365.707,134.341c12.375,0,22.391-10.031,22.391-22.39v-44.78c0-12.359-10.016-22.391-22.391-22.391     c-12.374,0-22.39,10.031-22.39,22.391v44.78C343.317,124.311,353.333,134.341,365.707,134.341z M452.716,383.127     c24.479-23.122,39.869-55.736,39.869-92.054c0-70.052-56.812-126.878-126.878-126.878c-42.108,0-79.336,20.599-102.413,52.184     c-14.822-4.657-30.48-7.404-46.855-7.404c-83.307,0-151.239,65.036-156.254,147.089C24.435,374.753,0,412.115,0,455.269     C0,517.11,50.109,567.22,111.951,567.22h298.537c53.587,0,97.023-43.438,97.023-97.024     C507.512,431.788,485.077,398.845,452.716,383.127z M365.707,208.976c45.273,0,82.098,36.825,82.098,82.098     c0,14.941-4.209,28.854-11.239,40.914c-17.614-36.347-54.244-61.737-97.024-63.125c-9.853-12.494-21.659-23.331-34.795-32.347     C319.763,219.708,341.437,208.976,365.707,208.976z M410.488,522.439H111.951c-37.033,0-67.171-30.138-67.171-67.171     c0-25.062,13.853-47.87,36.153-59.514l22.405-11.718l1.538-25.241c3.612-58.901,52.617-105.04,111.563-105.04     c34.436,0,66.469,15.613,87.919,42.825l12.897,16.375l20.838,0.672c36.406,1.179,64.932,30.614,64.932,67.006v29.839     l27.555,11.494c19.524,8.149,32.152,27.077,32.152,48.229C462.731,499.004,439.297,522.439,410.488,522.439z M485.122,194.049     c6.18,0,11.777-2.508,15.822-6.553l29.854-29.854c4.061-4.06,6.568-9.658,6.568-15.837c0-12.359-10.017-22.39-22.391-22.39     c-6.18,0-11.777,2.508-15.822,6.568L469.3,155.836c-4.061,4.045-6.568,9.643-6.568,15.823     C462.731,184.018,472.748,194.049,485.122,194.049z M230.455,187.496c4.061,4.045,9.658,6.553,15.837,6.553     c12.36,0,22.391-10.031,22.391-22.39c0-6.18-2.508-11.777-6.568-15.837l-29.854-29.854c-4.045-4.045-9.643-6.553-15.822-6.553     c-12.359,0-22.39,10.031-22.39,22.39c0,6.18,2.508,11.777,6.568,15.823L230.455,187.496z M589.609,268.683h-44.78     c-12.359,0-22.39,10.031-22.39,22.39s10.03,22.391,22.39,22.391h44.78c12.359,0,22.391-10.031,22.391-22.391     S601.969,268.683,589.609,268.683z"
           id="path8"
           style="fill:#{sdcol(icon)};fill-opacity:1" /></g></g></g><g
     id="g10" /><g
     id="g12" /><g
     id="g14" /><g
     id="g16" /><g
     id="g18" /><g
     id="g20" /><g
     id="g22" /><g
     id="g24" /><g
     id="g26" /><g
     id="g28" /><g
     id="g30" /><g
     id="g32" /><g
     id="g34" /><g
     id="g36" /><g
     id="g38" /></svg>