<?xml version="1.0" encoding="UTF-8" standalone="no"?>
<!-- Generator: Adobe Illustrator 16.0.0, SVG Export Plug-In . SVG Version: 6.00 Build 0)  -->

<svg
   xmlns:dc="http://purl.org/dc/elements/1.1/"
   xmlns:cc="http://creativecommons.org/ns#"
   xmlns:rdf="http://www.w3.org/1999/02/22-rdf-syntax-ns#"
   xmlns:svg="http://www.w3.org/2000/svg"
   xmlns="http://www.w3.org/2000/svg"
   xmlns:sodipodi="http://sodipodi.sourceforge.net/DTD/sodipodi-0.dtd"
   xmlns:inkscape="http://www.inkscape.org/namespaces/inkscape"
   version="1.1"
   id="Capa_1"
   x="0px"
   y="0px"
   width="45.434px"
   height="45.434px"
   viewBox="0 0 45.434 45.434"
   style="enable-background:new 0 0 45.434 45.434;"
   xml:space="preserve"
   inkscape:version="0.91 r13725"
   sodipodi:docname="fritzbox.svg"><metadata
     id="metadata47"><rdf:RDF><cc:Work
         rdf:about=""><dc:format>image/svg+xml</dc:format><dc:type
           rdf:resource="http://purl.org/dc/dcmitype/StillImage" /></cc:Work></rdf:RDF></metadata><defs
     id="defs45" /><sodipodi:namedview
     pagecolor="#ffffff"
     bordercolor="#666666"
     borderopacity="1"
     objecttolerance="10"
     gridtolerance="10"
     guidetolerance="10"
     inkscape:pageopacity="0"
     inkscape:pageshadow="2"
     inkscape:window-width="1920"
     inkscape:window-height="1017"
     id="namedview43"
     showgrid="false"
     inkscape:zoom="5.1943481"
     inkscape:cx="-1.2513601"
     inkscape:cy="22.716999"
     inkscape:window-x="-8"
     inkscape:window-y="-8"
     inkscape:window-maximized="1"
     inkscape:current-layer="Capa_1" /><g
     id="g3"
     style="fill:#{sdcol(iconactive)};fill-opacity:1"><g
       id="g5"
       style="fill:#{sdcol(iconactive)};fill-opacity:1"><path
         d="M42.188,6.611H18.348c0.267,1.042,0.402,2.105,0.402,3.257v25.729c0,0.97-0.093,1.863-0.285,2.744h23.724    c1.794,0,3.244-1.447,3.244-3.242V9.891C45.432,8.096,43.983,6.611,42.188,6.611z M28.018,34.749c-0.963,0-1.746-0.78-1.746-1.745    c0-0.964,0.781-1.746,1.746-1.746c0.963,0,1.746,0.782,1.746,1.746C29.764,33.968,28.98,34.749,28.018,34.749z M28.018,29.762    c-0.963,0-1.746-0.782-1.746-1.746s0.781-1.746,1.746-1.746c0.963,0,1.746,0.782,1.746,1.746S28.98,29.762,28.018,29.762z     M28.018,24.773c-0.963,0-1.746-0.78-1.746-1.746c0-0.964,0.781-1.746,1.746-1.746c0.963,0,1.746,0.782,1.746,1.746    C29.764,23.991,28.98,24.773,28.018,24.773z M32.707,34.825c-0.964,0-1.747-0.78-1.747-1.746c0-0.963,0.782-1.746,1.747-1.746    s1.746,0.783,1.746,1.746C34.453,34.044,33.672,34.825,32.707,34.825z M32.707,29.838c-0.964,0-1.747-0.782-1.747-1.746    s0.782-1.746,1.747-1.746s1.746,0.782,1.746,1.746C34.453,29.055,33.672,29.838,32.707,29.838z M32.707,24.849    c-0.964,0-1.747-0.782-1.747-1.746s0.782-1.747,1.747-1.747s1.746,0.783,1.746,1.747S33.672,24.849,32.707,24.849z M37.473,34.825    c-0.965,0-1.748-0.78-1.748-1.746c0-0.963,0.783-1.746,1.748-1.746c0.963,0,1.746,0.783,1.746,1.746    C39.219,34.044,38.436,34.825,37.473,34.825z M37.473,29.838c-0.965,0-1.748-0.782-1.748-1.746s0.783-1.746,1.748-1.746    c0.963,0,1.746,0.782,1.746,1.746C39.219,29.055,38.436,29.838,37.473,29.838z M37.473,24.849c-0.965,0-1.748-0.782-1.748-1.746    s0.783-1.747,1.748-1.747c0.963,0,1.746,0.783,1.746,1.747S38.436,24.849,37.473,24.849z M41.747,15.163    c0,1.693-1.374,3.067-3.067,3.067H26.864c-1.692,0-3.065-1.374-3.065-3.067v-1.559c0-1.694,1.373-3.067,3.065-3.067H38.68    c1.693,0,3.067,1.373,3.067,3.067V15.163z"
         id="path7"
         style="fill:#{sdcol(iconactive)};fill-opacity:1" /><path
         d="M3.699,6.611H3.238C1.444,6.611,0,8.096,0,9.891V35.1c0,1.794,1.444,3.242,3.238,3.242h0.344    c-0.191-0.881-0.297-1.773-0.297-2.744V9.868C3.285,8.717,3.432,7.653,3.699,6.611z"
         id="path9"
         style="fill:#{sdcol(iconactive)};fill-opacity:1" /><path
         d="M12.531,4.127H9.516c-1.794,0-3.267,2.587-3.267,5.741v25.729c0,3.153,1.473,5.709,3.267,5.709h3.015    c1.794,0,3.254-2.556,3.254-5.709V9.868C15.785,6.715,14.325,4.127,12.531,4.127z"
         id="path11"
         style="fill:#{sdcol(iconactive)};fill-opacity:1" /></g></g><g
     id="g13" /><g
     id="g15" /><g
     id="g17" /><g
     id="g19" /><g
     id="g21" /><g
     id="g23" /><g
     id="g25" /><g
     id="g27" /><g
     id="g29" /><g
     id="g31" /><g
     id="g33" /><g
     id="g35" /><g
     id="g37" /><g
     id="g39" /><g
     id="g41" /></svg>