<?xml version="1.0" encoding="UTF-8" standalone="no"?>
<!-- Generator: Adobe Illustrator 18.0.0, SVG Export Plug-In . SVG Version: 6.00 Build 0)  -->

<svg
   xmlns:dc="http://purl.org/dc/elements/1.1/"
   xmlns:cc="http://creativecommons.org/ns#"
   xmlns:rdf="http://www.w3.org/1999/02/22-rdf-syntax-ns#"
   xmlns:svg="http://www.w3.org/2000/svg"
   xmlns="http://www.w3.org/2000/svg"
   xmlns:sodipodi="http://sodipodi.sourceforge.net/DTD/sodipodi-0.dtd"
   xmlns:inkscape="http://www.inkscape.org/namespaces/inkscape"
   version="1.1"
   id="Capa_1"
   x="0px"
   y="0px"
   viewBox="0 0 214.912 214.912"
   style="enable-background:new 0 0 214.912 214.912;"
   xml:space="preserve"
   width="512px"
   height="512px"
   inkscape:version="0.91 r13725"
   sodipodi:docname="markad.svg"><metadata
     id="metadata39"><rdf:RDF><cc:Work
         rdf:about=""><dc:format>image/svg+xml</dc:format><dc:type
           rdf:resource="http://purl.org/dc/dcmitype/StillImage" /></cc:Work></rdf:RDF></metadata><defs
     id="defs37" /><sodipodi:namedview
     pagecolor="#ffffff"
     bordercolor="#666666"
     borderopacity="1"
     objecttolerance="10"
     gridtolerance="10"
     guidetolerance="10"
     inkscape:pageopacity="0"
     inkscape:pageshadow="2"
     inkscape:window-width="1271"
     inkscape:window-height="799"
     id="namedview35"
     showgrid="false"
     inkscape:zoom="0.4609375"
     inkscape:cx="-14.101695"
     inkscape:cy="256"
     inkscape:window-x="0"
     inkscape:window-y="0"
     inkscape:window-maximized="0"
     inkscape:current-layer="Capa_1" /><path
     d="M176.727,129.037c-10.205,0-19.799,3.974-27.015,11.189c-3.402,3.403-6.019,7.297-7.867,11.452l-17.066-17.065  c13.414-13.414,36.232-36.23,54.435-54.434c27.577-27.577,1.414-70.712,1.414-70.712l-73.172,103.177L34.284,9.467  c0,0-26.163,43.135,1.414,70.712c18.203,18.203,41.021,41.02,54.435,54.434l-17.066,17.065c-1.848-4.154-4.463-8.048-7.866-11.45  c-7.217-7.217-16.81-11.19-27.015-11.19h0h-0.002c-10.205,0.001-19.799,3.975-27.013,11.19  c-14.895,14.896-14.894,39.133,0.001,54.029c7.216,7.216,16.81,11.19,27.015,11.19c10.205,0,19.799-3.974,27.015-11.19  c0.416-0.417,0.818-0.843,1.212-1.274l41.044-41.045l41.044,41.045c0.394,0.431,0.795,0.857,1.212,1.274  c7.216,7.216,16.81,11.19,27.015,11.19c10.205,0,19.799-3.974,27.015-11.19c14.895-14.896,14.896-39.133,0.001-54.029  C196.526,133.011,186.932,129.037,176.727,129.037z M52.682,181.737c-4.003,4.003-9.249,6.004-14.496,6.004  s-10.493-2.001-14.496-6.004c-8.006-8.006-8.006-20.986,0-28.992c4.002-4.002,9.25-6.003,14.496-6.004  c5.247-0.001,10.493,2.001,14.496,6.004C60.687,160.752,60.688,173.731,52.682,181.737z M191.222,181.737  c-4.003,4.003-9.249,6.004-14.496,6.004s-10.493-2.001-14.496-6.004c-8.006-8.006-8.005-20.985,0-28.992  c4.003-4.003,9.249-6.004,14.496-6.004c5.246,0,10.493,2.001,14.496,6.004C199.228,160.751,199.228,173.731,191.222,181.737z"
     fill="#FFFFFF"
     id="path3"
     style="fill:#{sdcol(iconactive)};fill-opacity:1" /><g
     id="g5" /><g
     id="g7" /><g
     id="g9" /><g
     id="g11" /><g
     id="g13" /><g
     id="g15" /><g
     id="g17" /><g
     id="g19" /><g
     id="g21" /><g
     id="g23" /><g
     id="g25" /><g
     id="g27" /><g
     id="g29" /><g
     id="g31" /><g
     id="g33" /></svg>