<?xml version="1.0" encoding="UTF-8" standalone="no"?>
<!-- Generator: Adobe Illustrator 16.0.0, SVG Export Plug-In . SVG Version: 6.00 Build 0)  -->

<svg
   xmlns:dc="http://purl.org/dc/elements/1.1/"
   xmlns:cc="http://creativecommons.org/ns#"
   xmlns:rdf="http://www.w3.org/1999/02/22-rdf-syntax-ns#"
   xmlns:svg="http://www.w3.org/2000/svg"
   xmlns="http://www.w3.org/2000/svg"
   xmlns:sodipodi="http://sodipodi.sourceforge.net/DTD/sodipodi-0.dtd"
   xmlns:inkscape="http://www.inkscape.org/namespaces/inkscape"
   version="1.1"
   id="Capa_1"
   x="0px"
   y="0px"
   width="427.773px"
   height="427.773px"
   viewBox="0 0 427.773 427.773"
   style="enable-background:new 0 0 427.773 427.773;"
   xml:space="preserve"
   inkscape:version="0.91 r13725"
   sodipodi:docname="EPG.svg"><metadata
     id="metadata47"><rdf:RDF><cc:Work
         rdf:about=""><dc:format>image/svg+xml</dc:format><dc:type
           rdf:resource="http://purl.org/dc/dcmitype/StillImage" /></cc:Work></rdf:RDF></metadata><defs
     id="defs45" /><sodipodi:namedview
     pagecolor="#ffffff"
     bordercolor="#666666"
     borderopacity="1"
     objecttolerance="10"
     gridtolerance="10"
     guidetolerance="10"
     inkscape:pageopacity="0"
     inkscape:pageshadow="2"
     inkscape:window-width="1920"
     inkscape:window-height="1017"
     id="namedview43"
     showgrid="false"
     inkscape:zoom="0.55169446"
     inkscape:cx="-329.89275"
     inkscape:cy="213.88651"
     inkscape:window-x="-8"
     inkscape:window-y="-8"
     inkscape:window-maximized="1"
     inkscape:current-layer="Capa_1" /><g
     id="g3"
     style="fill:#{sdcol(icon)};fill-opacity:1"><g
       id="g5"
       style="fill:#{sdcol(icon)};fill-opacity:1"><g
         id="g7"
         style="fill:#{sdcol(icon)};fill-opacity:1"><path
           d="M421.504,357.406l-34.771-34.771c-3.839-3.836-8.771-5.905-13.789-6.222l-11.812-11.81     c17.547-27.896,14.189-65.271-10.076-89.535c-28.166-28.167-73.993-28.166-102.162,0c-28.162,28.166-28.162,73.995,0.004,102.161     c24.265,24.266,61.64,27.622,89.531,10.076l11.813,11.81c0.313,5.021,2.385,9.953,6.223,13.79l34.771,34.771     c8.358,8.359,21.909,8.357,30.27,0C429.861,379.318,429.863,365.766,421.504,357.406z M335.924,302.096     c-19.82,19.819-52.07,19.819-71.892,0c-19.819-19.82-19.819-52.069,0-71.891c19.818-19.82,52.066-19.82,71.892,0.001     C355.742,250.026,355.742,282.276,335.924,302.096z"
           id="path9"
           style="fill:#{sdcol(icon)};fill-opacity:1" /><path
           d="M236.812,204.111c16.552-16.55,38.584-25.665,62.041-25.665s45.49,9.114,62.041,25.665     c14.13,14.128,23.068,32.854,25.173,52.733c1.618,15.289-0.81,30.8-7.021,44.875l0.211,0.211     c6.553,1.604,12.537,4.972,17.312,9.744l3.432,3.433V75.095c0-3.779-1.871-7.315-5-9.44     c-30.646-20.82-65.452-31.827-100.669-31.827c-32.813,0-65.27,9.561-94.332,27.711c-29.072-18.15-61.537-27.711-94.35-27.711     c-35.207,0-70.014,11.006-100.652,31.827C1.871,67.781,0,71.317,0,75.095v267.551c0,4.229,2.336,8.11,6.074,10.091     c3.738,1.979,8.258,1.728,11.758-0.647c26.836-18.235,57.207-27.879,87.822-27.879c30.617,0,60.994,9.644,87.84,27.881     c1.922,1.311,4.164,1.974,6.408,1.974c0.012,0,0.025-0.002,0.039-0.002c2.301,0.03,4.6-0.634,6.566-1.974     c11.48-7.801,23.611-14.016,36.129-18.59c-2.004-1.677-3.953-3.438-5.821-5.308C202.603,293.983,202.603,238.32,236.812,204.111z      M233.032,110.767c21.408-14.636,50.663-16.821,66.198-16.821c15.534,0,44.791,2.186,66.198,16.821     c5.271,3.603,6.621,10.794,3.021,16.063c-3.603,5.269-10.797,6.621-16.064,3.019c-11.887-8.127-31.262-12.789-53.153-12.789     c-21.893,0-41.269,4.661-53.154,12.789c-1.994,1.363-4.266,2.018-6.512,2.018c-3.689,0-7.313-1.761-9.554-5.036     C226.411,121.562,227.764,114.37,233.032,110.767z M233.032,160.767c21.408-14.636,50.663-16.821,66.198-16.821     c15.534,0,44.791,2.186,66.198,16.821c5.271,3.603,6.621,10.794,3.021,16.063c-3.603,5.269-10.797,6.621-16.064,3.019     c-11.887-8.127-31.262-12.789-53.153-12.789c-21.893,0-41.269,4.661-53.154,12.789c-1.994,1.363-4.266,2.018-6.512,2.018     c-3.689,0-7.313-1.761-9.554-5.036C226.411,171.562,227.764,164.37,233.032,160.767z M169.986,276.831     c-3.602,5.27-10.795,6.621-16.064,3.02c-11.887-8.128-31.262-12.789-53.154-12.789s-41.268,4.661-53.154,12.789     c-1.994,1.362-4.266,2.019-6.512,2.019c-3.689,0-7.313-1.761-9.553-5.036c-3.602-5.27-2.25-12.461,3.02-16.062     c21.408-14.638,50.664-16.821,66.199-16.821s44.791,2.187,66.199,16.821C172.236,264.37,173.587,271.562,169.986,276.831z      M169.986,226.831c-3.602,5.27-10.795,6.621-16.064,3.02c-11.887-8.128-31.262-12.789-53.154-12.789s-41.268,4.661-53.154,12.789     c-1.994,1.362-4.266,2.019-6.512,2.019c-3.689,0-7.313-1.761-9.553-5.036c-3.602-5.27-2.25-12.461,3.02-16.063     c21.408-14.636,50.664-16.821,66.199-16.821s44.791,2.186,66.199,16.821C172.236,214.37,173.587,221.562,169.986,226.831z      M169.986,176.831c-3.602,5.269-10.795,6.621-16.064,3.019c-11.887-8.127-31.262-12.789-53.154-12.789     S59.5,171.722,47.614,179.85c-1.994,1.363-4.266,2.018-6.512,2.018c-3.689,0-7.313-1.761-9.553-5.036     c-3.602-5.269-2.25-12.461,3.02-16.063c21.408-14.636,50.664-16.821,66.199-16.821s44.791,2.186,66.199,16.821     C172.236,164.37,173.587,171.562,169.986,176.831z M169.986,126.831c-3.602,5.269-10.795,6.621-16.064,3.019     c-11.887-8.127-31.262-12.789-53.154-12.789S59.5,121.722,47.614,129.85c-1.994,1.363-4.266,2.018-6.512,2.018     c-3.689,0-7.313-1.761-9.553-5.036c-3.602-5.269-2.25-12.461,3.02-16.063c21.408-14.636,50.664-16.821,66.199-16.821     s44.791,2.186,66.199,16.821C172.236,114.37,173.587,121.562,169.986,126.831z"
           id="path11"
           style="fill:#{sdcol(icon)};fill-opacity:1" /></g></g></g><g
     id="g13" /><g
     id="g15" /><g
     id="g17" /><g
     id="g19" /><g
     id="g21" /><g
     id="g23" /><g
     id="g25" /><g
     id="g27" /><g
     id="g29" /><g
     id="g31" /><g
     id="g33" /><g
     id="g35" /><g
     id="g37" /><g
     id="g39" /><g
     id="g41" /></svg>