<?xml version="1.0" encoding="UTF-8" standalone="no"?>
<!-- Generator: Adobe Illustrator 18.1.1, SVG Export Plug-In . SVG Version: 6.00 Build 0)  -->

<svg
   xmlns:dc="http://purl.org/dc/elements/1.1/"
   xmlns:cc="http://creativecommons.org/ns#"
   xmlns:rdf="http://www.w3.org/1999/02/22-rdf-syntax-ns#"
   xmlns:svg="http://www.w3.org/2000/svg"
   xmlns="http://www.w3.org/2000/svg"
   xmlns:sodipodi="http://sodipodi.sourceforge.net/DTD/sodipodi-0.dtd"
   xmlns:inkscape="http://www.inkscape.org/namespaces/inkscape"
   version="1.1"
   id="Capa_1"
   x="0px"
   y="0px"
   viewBox="0 0 494 494"
   style="enable-background:new 0 0 494 494;"
   xml:space="preserve"
   width="512px"
   height="512px"
   inkscape:version="0.91 r13725"
   sodipodi:docname="pin.svg"><metadata
     id="metadata47"><rdf:RDF><cc:Work
         rdf:about=""><dc:format>image/svg+xml</dc:format><dc:type
           rdf:resource="http://purl.org/dc/dcmitype/StillImage" /></cc:Work></rdf:RDF></metadata><defs
     id="defs45" /><sodipodi:namedview
     pagecolor="#ffffff"
     bordercolor="#666666"
     borderopacity="1"
     objecttolerance="10"
     gridtolerance="10"
     guidetolerance="10"
     inkscape:pageopacity="0"
     inkscape:pageshadow="2"
     inkscape:window-width="1920"
     inkscape:window-height="1017"
     id="namedview43"
     showgrid="false"
     inkscape:zoom="0.4609375"
     inkscape:cx="-14.101695"
     inkscape:cy="256"
     inkscape:window-x="-8"
     inkscape:window-y="-8"
     inkscape:window-maximized="1"
     inkscape:current-layer="Capa_1" /><g
     id="g3"
     style="fill:#{sdcol(icon)};fill-opacity:1"><g
       id="g5"
       style="fill:#{sdcol(icon)};fill-opacity:1"><g
         id="g7"
         style="fill:#{sdcol(icon)};fill-opacity:1"><path
           d="M398,176h-12c0-34-5-95-42-136c-24-27-57-40-97-40s-73,13-97,40c-37,41-42,102-42,136H95     c-12,0-21,9-21,21v275c0,12,9,22,21,22h303c12,0,22-10,22-22V197C420,185,410,176,398,176z M183,69c15-17,36-26,64-26s49,9,64,26     c27,30,31,80,31,107H152C152,149,156,99,183,69z M377,451H117V219h260V451z"
           fill="#FFFFFF"
           id="path9"
           style="fill:#{sdcol(icon)};fill-opacity:1" /><path
           d="M208,405h78c7,0,14-7,11-15l-22-55c4-6,10-18,10-29c0-20-14-41-38-41s-37,21-37,41     c0,11,6,23,10,29l-22,55C195,398,201,405,208,405z M240,326c-2-3-8-13-8-20c0,0,0-20,15-20s16,20,16,20c0,7-6,17-8,20s-3,7-2,11     l18,46h-47l18-46C243,333,243,329,240,326z"
           fill="#FFFFFF"
           id="path11"
           style="fill:#{sdcol(icon)};fill-opacity:1" /></g></g></g><g
     id="g13" /><g
     id="g15" /><g
     id="g17" /><g
     id="g19" /><g
     id="g21" /><g
     id="g23" /><g
     id="g25" /><g
     id="g27" /><g
     id="g29" /><g
     id="g31" /><g
     id="g33" /><g
     id="g35" /><g
     id="g37" /><g
     id="g39" /><g
     id="g41" /></svg>