<?xml version="1.0" encoding="UTF-8" standalone="no"?>
<!-- Generator: Adobe Illustrator 18.0.0, SVG Export Plug-In . SVG Version: 6.00 Build 0)  -->

<svg
   xmlns:dc="http://purl.org/dc/elements/1.1/"
   xmlns:cc="http://creativecommons.org/ns#"
   xmlns:rdf="http://www.w3.org/1999/02/22-rdf-syntax-ns#"
   xmlns:svg="http://www.w3.org/2000/svg"
   xmlns="http://www.w3.org/2000/svg"
   xmlns:sodipodi="http://sodipodi.sourceforge.net/DTD/sodipodi-0.dtd"
   xmlns:inkscape="http://www.inkscape.org/namespaces/inkscape"
   version="1.1"
   id="Capa_1"
   x="0px"
   y="0px"
   viewBox="0 0 370 370"
   style="enable-background:new 0 0 370 370;"
   xml:space="preserve"
   width="512px"
   height="512px"
   inkscape:version="0.91 r13725"
   sodipodi:docname="reelchannellist.svg"><metadata
     id="metadata43"><rdf:RDF><cc:Work
         rdf:about=""><dc:format>image/svg+xml</dc:format><dc:type
           rdf:resource="http://purl.org/dc/dcmitype/StillImage" /></cc:Work></rdf:RDF></metadata><defs
     id="defs41" /><sodipodi:namedview
     pagecolor="#ffffff"
     bordercolor="#666666"
     borderopacity="1"
     objecttolerance="10"
     gridtolerance="10"
     guidetolerance="10"
     inkscape:pageopacity="0"
     inkscape:pageshadow="2"
     inkscape:window-width="1920"
     inkscape:window-height="1017"
     id="namedview39"
     showgrid="false"
     inkscape:zoom="0.4609375"
     inkscape:cx="-14.101695"
     inkscape:cy="256"
     inkscape:window-x="-8"
     inkscape:window-y="-8"
     inkscape:window-maximized="1"
     inkscape:current-layer="Capa_1" /><g
     id="g3"
     style="fill:#{sdcol(iconactive)};fill-opacity:1"><path
       d="M295.04,164.386l30.431-29.663c4.088-3.985,5.56-9.946,3.795-15.376c-1.764-5.431-6.458-9.389-12.108-10.209L221.315,95.21   L178.452,8.361C175.924,3.241,170.71,0,165,0c-5.71,0-10.924,3.241-13.451,8.361L108.688,95.21l-95.845,13.928   c-5.65,0.82-10.344,4.778-12.108,10.209c-1.765,5.43-0.293,11.391,3.795,15.376l69.353,67.602L57.511,297.78   c-0.965,5.628,1.348,11.315,5.967,14.672c2.614,1.898,5.708,2.864,8.818,2.864c2.387,0,4.784-0.569,6.979-1.723l80.904-42.533   C163.33,326.149,209.138,370,265,370c57.897,0,105-47.103,105-105C370,217.539,338.344,177.338,295.04,164.386z M92.217,272.897   l12.567-73.273c0.835-4.866-0.779-9.831-4.314-13.277l-53.236-51.892l73.571-10.691c4.885-0.71,9.109-3.778,11.294-8.205   l32.901-66.665l32.902,66.665c2.185,4.427,6.409,7.495,11.294,8.205l73.57,10.691l-26.59,25.919   c-44.166,3.692-80.647,34.835-92.283,76.271c-2.024,0.15-4.025,0.686-5.873,1.657L92.217,272.897z M265,340   c-41.355,0-75-33.645-75-75s33.645-75,75-75s75,33.645,75,75S306.355,340,265,340z"
       fill="#FFFFFF"
       id="path5"
       style="fill:#{sdcol(iconactive)};fill-opacity:1" /><path
       d="M295,250h-15v-15c0-8.284-6.716-15-15-15c-8.284,0-15,6.716-15,15v15h-15c-8.284,0-15,6.716-15,15s6.716,15,15,15h15v15   c0,8.284,6.716,15,15,15c8.284,0,15-6.716,15-15v-15h15c8.284,0,15-6.716,15-15S303.285,250,295,250z"
       fill="#FFFFFF"
       id="path7"
       style="fill:#{sdcol(iconactive)};fill-opacity:1" /></g><g
     id="g9" /><g
     id="g11" /><g
     id="g13" /><g
     id="g15" /><g
     id="g17" /><g
     id="g19" /><g
     id="g21" /><g
     id="g23" /><g
     id="g25" /><g
     id="g27" /><g
     id="g29" /><g
     id="g31" /><g
     id="g33" /><g
     id="g35" /><g
     id="g37" /></svg>