<?xml version="1.0" encoding="UTF-8" standalone="no"?>
<!-- Generator: Adobe Illustrator 18.0.0, SVG Export Plug-In . SVG Version: 6.00 Build 0)  -->

<svg
   xmlns:dc="http://purl.org/dc/elements/1.1/"
   xmlns:cc="http://creativecommons.org/ns#"
   xmlns:rdf="http://www.w3.org/1999/02/22-rdf-syntax-ns#"
   xmlns:svg="http://www.w3.org/2000/svg"
   xmlns="http://www.w3.org/2000/svg"
   xmlns:sodipodi="http://sodipodi.sourceforge.net/DTD/sodipodi-0.dtd"
   xmlns:inkscape="http://www.inkscape.org/namespaces/inkscape"
   version="1.1"
   id="Capa_1"
   x="0px"
   y="0px"
   viewBox="0 0 374.117 374.117"
   style="enable-background:new 0 0 374.117 374.117;"
   xml:space="preserve"
   inkscape:version="0.91 r13725"
   sodipodi:docname="scraper2vdr.svg"><metadata
     id="metadata43"><rdf:RDF><cc:Work
         rdf:about=""><dc:format>image/svg+xml</dc:format><dc:type
           rdf:resource="http://purl.org/dc/dcmitype/StillImage" /></cc:Work></rdf:RDF></metadata><defs
     id="defs41" /><sodipodi:namedview
     pagecolor="#ffffff"
     bordercolor="#666666"
     borderopacity="1"
     objecttolerance="10"
     gridtolerance="10"
     guidetolerance="10"
     inkscape:pageopacity="0"
     inkscape:pageshadow="2"
     inkscape:window-width="1920"
     inkscape:window-height="1017"
     id="namedview39"
     showgrid="false"
     inkscape:zoom="0.63081869"
     inkscape:cx="-288.51396"
     inkscape:cy="187.0585"
     inkscape:window-x="-8"
     inkscape:window-y="-8"
     inkscape:window-maximized="1"
     inkscape:current-layer="Capa_1" /><g
     id="g3"
     style="fill:#{sdcol(icon)}"><path
       d="M344.059,207.508c-16.568,0-30,13.432-30,30v76.609h-254v-76.609c0-16.568-13.432-30-30-30s-30,13.432-30,30v106.609   c0,16.568,13.432,30,30,30h314c16.568,0,30-13.432,30-30V237.508C374.059,220.939,360.627,207.508,344.059,207.508z"
       id="path5"
       style="fill:#{sdcol(icon)}" /><path
       d="M250.547,108.287l-33.488,33.488V30c0-16.568-13.432-30-30-30s-30,13.432-30,30v111.775l-33.488-33.488   c-5.857-5.857-13.535-8.787-21.213-8.787c-7.678,0-15.355,2.93-21.213,8.787c-11.715,11.717-11.715,30.711,0,42.426l84.701,84.701   c11.715,11.717,30.711,11.717,42.426,0l84.701-84.701c11.717-11.715,11.717-30.709,0-42.426   C281.258,96.57,262.262,96.57,250.547,108.287z"
       id="path7"
       style="fill:#{sdcol(icon)}" /></g><g
     id="g9" /><g
     id="g11" /><g
     id="g13" /><g
     id="g15" /><g
     id="g17" /><g
     id="g19" /><g
     id="g21" /><g
     id="g23" /><g
     id="g25" /><g
     id="g27" /><g
     id="g29" /><g
     id="g31" /><g
     id="g33" /><g
     id="g35" /><g
     id="g37" /></svg>