<?xml version="1.0" encoding="UTF-8" standalone="no"?>
<!-- Generator: Adobe Illustrator 17.1.0, SVG Export Plug-In . SVG Version: 6.00 Build 0)  -->

<svg
   xmlns:dc="http://purl.org/dc/elements/1.1/"
   xmlns:cc="http://creativecommons.org/ns#"
   xmlns:rdf="http://www.w3.org/1999/02/22-rdf-syntax-ns#"
   xmlns:svg="http://www.w3.org/2000/svg"
   xmlns="http://www.w3.org/2000/svg"
   xmlns:sodipodi="http://sodipodi.sourceforge.net/DTD/sodipodi-0.dtd"
   xmlns:inkscape="http://www.inkscape.org/namespaces/inkscape"
   version="1.1"
   id="Capa_1"
   x="0px"
   y="0px"
   viewBox="0 0 357.102 357.102"
   style="enable-background:new 0 0 357.102 357.102;"
   xml:space="preserve"
   width="512px"
   height="512px"
   inkscape:version="0.91 r13725"
   sodipodi:docname="sleeptimer.svg"><metadata
     id="metadata43"><rdf:RDF><cc:Work
         rdf:about=""><dc:format>image/svg+xml</dc:format><dc:type
           rdf:resource="http://purl.org/dc/dcmitype/StillImage" /></cc:Work></rdf:RDF></metadata><defs
     id="defs41" /><sodipodi:namedview
     pagecolor="#ffffff"
     bordercolor="#666666"
     borderopacity="1"
     objecttolerance="10"
     gridtolerance="10"
     guidetolerance="10"
     inkscape:pageopacity="0"
     inkscape:pageshadow="2"
     inkscape:window-width="1448"
     inkscape:window-height="852"
     id="namedview39"
     showgrid="false"
     inkscape:zoom="0.4609375"
     inkscape:cx="-14.101695"
     inkscape:cy="256"
     inkscape:window-x="0"
     inkscape:window-y="0"
     inkscape:window-maximized="0"
     inkscape:current-layer="Capa_1" /><g
     id="g3"
     style="fill:#{sdcol(iconactive)};fill-opacity:1"><path
       d="M192.349,13.8c-90.484,0-164.387,73.614-164.741,164.096l-0.007,1.74c0,3.442-2.359,5.117-7.013,5.117H5.91   c-2.831,0-4.688,0.974-5.517,2.756c-1.241,2.666,0.784,5.613,1.616,6.64l39.939,63.027l0.243,0.331   c1.074,1.224,2.489,1.929,3.882,1.929c1.134,0,2.782-0.437,4.237-2.596l39.441-62.379c0.918-1.075,3.102-4.123,1.872-6.864   c-0.825-1.84-2.751-2.844-5.724-2.844H71.05c-4.432,0-6.998-1.062-6.998-6.853c0-70.426,57.554-127.686,128.297-127.686   c70.749,0,128.308,57.574,128.308,128.321c0,70.748-57.559,128.314-128.308,128.314c-18.913,0-37.12-4.01-54.114-11.928   c-2.433-1.134-5.018-1.707-7.684-1.707c-7.063,0-13.552,4.135-16.533,10.532c-4.241,9.11-0.283,19.972,8.823,24.214   c21.852,10.18,45.237,15.342,69.508,15.342c90.845,0,164.753-73.907,164.753-164.751C357.102,87.707,283.194,13.8,192.349,13.8z"
       fill="#FFFFFF"
       id="path5"
       style="fill:#{sdcol(iconactive)};fill-opacity:1" /><path
       d="M186.553,98.752c-8.284,0-15,6.716-15,15v63c0,7.883,4.452,16.048,11.081,20.319l54.797,35.291   c2.513,1.619,5.326,2.392,8.108,2.392c4.929-0.001,9.757-2.428,12.624-6.88c4.486-6.965,2.477-16.247-4.488-20.732l-52.122-33.569   v-59.82C201.553,105.468,194.837,98.752,186.553,98.752z"
       fill="#FFFFFF"
       id="path7"
       style="fill:#{sdcol(iconactive)};fill-opacity:1" /></g><g
     id="g9" /><g
     id="g11" /><g
     id="g13" /><g
     id="g15" /><g
     id="g17" /><g
     id="g19" /><g
     id="g21" /><g
     id="g23" /><g
     id="g25" /><g
     id="g27" /><g
     id="g29" /><g
     id="g31" /><g
     id="g33" /><g
     id="g35" /><g
     id="g37" /></svg>