<?xml version="1.0" encoding="UTF-8" standalone="no"?>
<!-- Generator: Adobe Illustrator 18.1.1, SVG Export Plug-In . SVG Version: 6.00 Build 0)  -->

<svg
   xmlns:dc="http://purl.org/dc/elements/1.1/"
   xmlns:cc="http://creativecommons.org/ns#"
   xmlns:rdf="http://www.w3.org/1999/02/22-rdf-syntax-ns#"
   xmlns:svg="http://www.w3.org/2000/svg"
   xmlns="http://www.w3.org/2000/svg"
   xmlns:sodipodi="http://sodipodi.sourceforge.net/DTD/sodipodi-0.dtd"
   xmlns:inkscape="http://www.inkscape.org/namespaces/inkscape"
   version="1.1"
   id="Capa_1"
   x="0px"
   y="0px"
   viewBox="0 0 478.165 478.165"
   style="enable-background:new 0 0 478.165 478.165;"
   xml:space="preserve"
   width="512px"
   height="512px"
   inkscape:version="0.91 r13725"
   sodipodi:docname="streamdev-server.svg"><metadata
     id="metadata40"><rdf:RDF><cc:Work
         rdf:about=""><dc:format>image/svg+xml</dc:format><dc:type
           rdf:resource="http://purl.org/dc/dcmitype/StillImage" /></cc:Work></rdf:RDF></metadata><defs
     id="defs38" /><sodipodi:namedview
     pagecolor="#ffffff"
     bordercolor="#666666"
     borderopacity="1"
     objecttolerance="10"
     gridtolerance="10"
     guidetolerance="10"
     inkscape:pageopacity="0"
     inkscape:pageshadow="2"
     inkscape:window-width="1920"
     inkscape:window-height="1017"
     id="namedview36"
     showgrid="false"
     inkscape:zoom="0.4609375"
     inkscape:cx="-14.101695"
     inkscape:cy="256"
     inkscape:window-x="-8"
     inkscape:window-y="-8"
     inkscape:window-maximized="1"
     inkscape:current-layer="Capa_1" /><g
     id="g3"
     style="fill:#{sdcol(icon)};fill-opacity:1"><path
       id="Spotify_2_"
       d="M84.476,421.243c36.719-53.156,97.904-87.863,167.318-87.863c63.377,0,119.541,28.929,157.157,74.175   c42.656-43.374,69.214-102.686,69.214-168.453C478.165,106.989,371.195,0,239.082,0C106.989,0,0,106.989,0,239.102   C0,312.042,32.854,377.352,84.476,421.243z M366.932,310.887c-3.606,7.631-9.723,9.344-17.094,5.798   c-31.798-14.604-67.262-22.912-104.618-22.912c-38.333,0-74.594,8.766-107.049,24.247c-3.487,1.514-11.177,2.311-14.644-7.531   c-3.447-9.862,2.052-15.481,5.16-17.094c35.424-16.457,74.912-25.841,116.533-25.841c41.042,0,80.352,7.85,114.819,25.163   C365.537,295.227,370.339,303.057,366.932,310.887z M387.174,249.781c-2.391,3.367-6.196,5.698-10.838,5.698   c-1.315,0-2.371-0.179-3.666-0.558c-38.851-17.234-82.105-26.976-127.471-26.976c-45.067,0-87.803,9.543-126.594,26.558   c-1.415,0.458-2.829,0.936-4.423,0.936c-4.662,0-8.627-2.431-11.018-6.077l-2.59-7.73c0.02-3.965,1.913-7.471,4.702-10.002   c42.736-19.147,90.094-29.925,139.903-29.925c49.948,0,97.167,10.739,140.003,29.925c2.849,2.391,4.662,6.037,4.702,10.041   L387.174,249.781z M87.962,153.172c48.613-19.625,101.65-30.563,157.256-30.563c55.128,0,107.766,10.739,155.941,30.065   c6.555,3.307,11.177,9.842,11.177,17.752c0,10.998-8.926,20.083-20.083,20.083c-1.494,0-2.949-0.418-4.562-0.677   c-43.971-17.772-92.047-27.753-142.473-27.753s-98.542,9.962-142.513,27.734c-1.395,0.279-2.829,0.677-4.423,0.677   c-11.018,0-20.063-9.085-20.063-20.083C78.22,163.014,82.145,156.699,87.962,153.172z M251.794,412.357   c-40.445,0-76.247,19.525-99.12,49.45c26.837,10.38,55.846,16.357,86.408,16.357c37.855,0,73.418-8.926,105.415-24.685   C321.386,428.236,288.533,412.357,251.794,412.357z"
       fill="#FFFFFF"
       style="fill:#{sdcol(icon)};fill-opacity:1" /></g><g
     id="g6" /><g
     id="g8" /><g
     id="g10" /><g
     id="g12" /><g
     id="g14" /><g
     id="g16" /><g
     id="g18" /><g
     id="g20" /><g
     id="g22" /><g
     id="g24" /><g
     id="g26" /><g
     id="g28" /><g
     id="g30" /><g
     id="g32" /><g
     id="g34" /></svg>