<?xml version="1.0" encoding="UTF-8" standalone="no"?>
<!-- Generator: Adobe Illustrator 18.1.1, SVG Export Plug-In . SVG Version: 6.00 Build 0)  -->

<svg
   xmlns:dc="http://purl.org/dc/elements/1.1/"
   xmlns:cc="http://creativecommons.org/ns#"
   xmlns:rdf="http://www.w3.org/1999/02/22-rdf-syntax-ns#"
   xmlns:svg="http://www.w3.org/2000/svg"
   xmlns="http://www.w3.org/2000/svg"
   xmlns:sodipodi="http://sodipodi.sourceforge.net/DTD/sodipodi-0.dtd"
   xmlns:inkscape="http://www.inkscape.org/namespaces/inkscape"
   version="1.1"
   id="Capa_1"
   x="0px"
   y="0px"
   viewBox="0 0 478.165 478.165"
   style="enable-background:new 0 0 478.165 478.165;"
   xml:space="preserve"
   width="512px"
   height="512px"
   inkscape:version="0.91 r13725"
   sodipodi:docname="Applications.svg"><metadata
     id="metadata40"><rdf:RDF><cc:Work
         rdf:about=""><dc:format>image/svg+xml</dc:format><dc:type
           rdf:resource="http://purl.org/dc/dcmitype/StillImage" /></cc:Work></rdf:RDF></metadata><defs
     id="defs38" /><sodipodi:namedview
     pagecolor="#ffffff"
     bordercolor="#666666"
     borderopacity="1"
     objecttolerance="10"
     gridtolerance="10"
     guidetolerance="10"
     inkscape:pageopacity="0"
     inkscape:pageshadow="2"
     inkscape:window-width="965"
     inkscape:window-height="840"
     id="namedview36"
     showgrid="false"
     inkscape:zoom="0.4609375"
     inkscape:cx="-14.101695"
     inkscape:cy="256"
     inkscape:window-x="0"
     inkscape:window-y="0"
     inkscape:window-maximized="0"
     inkscape:current-layer="Capa_1" /><g
     id="g3"
     style="fill:#{sdcol(icon)};fill-opacity:1"><path
       id="App_Store_3_"
       d="M0,287.651V222.74c0-5.857,4.921-10.779,10.958-10.779h114.62L75.63,298.429H10.958   C4.921,298.429,0,293.628,0,287.651z M81.686,420.381l-36.6,24.984c-4.941,3.347-8.408,1.116-7.73-4.642l4.921-42.517   c0.677-5.957,5.539-8.288,10.699-5.419l28.271,16.258C86.388,411.894,86.608,417.074,81.686,420.381z M90.413,396.513   l-28.271-16.078c-5.16-3.068-6.993-9.643-3.985-14.783l131.177-227.248c2.909-5.28,9.623-6.993,14.803-4.124l28.391,16.118   c5.16,3.028,6.874,9.723,3.985,14.863L105.336,392.648C102.307,397.808,95.693,399.601,90.413,396.513z M190.27,298.429   l49.948-86.468h28.71l40.584,86.468H190.27z M352.925,324.171c-11.456-5.638-67.959-135.321-82.204-169.111   c-14.704-33.87-58.276-123.984-44.19-130.957c10.041-4.981,46.163,65.987,73.299,108.504   c26.996,42.557,83.579,152.335,90.592,164.867c6.933,12.572-6.615,22.932-14.365,26.16   C368.506,326.781,364.222,329.729,352.925,324.171z M389.943,383.881l-16.975-26.757c-3.666-5.618-1.793-12.552,3.865-15.381   l16.238-8.368c5.678-2.889,12.95-0.777,15.979,5.24l13.508,25.741c3.148,5.877,0.976,13.409-4.562,16.676l-11.675,6.953   C401.021,391.273,393.549,389.38,389.943,383.881z M452.842,454.311c-3.686-11.556-30.822-12.173-42.955-29.347   c-12.392-16.975-2.212-25.781,2.032-29.885C461.349,367.405,452.842,454.311,452.842,454.311z M478.165,287.651   c0,6.017-4.782,10.779-10.838,10.779h-57.38c-0.777-3.307-1.753-6.615-3.347-9.802c-1.634-2.73-5.399-9.782-10.639-19.704   c-7.531-14.504-18.589-35.205-30.264-56.902h101.67c6.017-0.06,10.799,4.821,10.799,10.719V287.651z"
       fill="#FFFFFF"
       style="fill:#{sdcol(icon)};fill-opacity:1" /></g><g
     id="g6" /><g
     id="g8" /><g
     id="g10" /><g
     id="g12" /><g
     id="g14" /><g
     id="g16" /><g
     id="g18" /><g
     id="g20" /><g
     id="g22" /><g
     id="g24" /><g
     id="g26" /><g
     id="g28" /><g
     id="g30" /><g
     id="g32" /><g
     id="g34" /></svg>