<?xml version="1.0" encoding="UTF-8" standalone="no"?>
<!-- Generator: Adobe Illustrator 18.0.0, SVG Export Plug-In . SVG Version: 6.00 Build 0)  -->

<svg
   xmlns:dc="http://purl.org/dc/elements/1.1/"
   xmlns:cc="http://creativecommons.org/ns#"
   xmlns:rdf="http://www.w3.org/1999/02/22-rdf-syntax-ns#"
   xmlns:svg="http://www.w3.org/2000/svg"
   xmlns="http://www.w3.org/2000/svg"
   xmlns:sodipodi="http://sodipodi.sourceforge.net/DTD/sodipodi-0.dtd"
   xmlns:inkscape="http://www.inkscape.org/namespaces/inkscape"
   version="1.1"
   id="Capa_1"
   x="0px"
   y="0px"
   viewBox="0 0 60 60"
   style="enable-background:new 0 0 60 60;"
   xml:space="preserve"
   width="512px"
   height="512px"
   inkscape:version="0.91 r13725"
   sodipodi:docname="Media.svg"><metadata
     id="metadata49"><rdf:RDF><cc:Work
         rdf:about=""><dc:format>image/svg+xml</dc:format><dc:type
           rdf:resource="http://purl.org/dc/dcmitype/StillImage" /></cc:Work></rdf:RDF></metadata><defs
     id="defs47" /><sodipodi:namedview
     pagecolor="#ffffff"
     bordercolor="#666666"
     borderopacity="1"
     objecttolerance="10"
     gridtolerance="10"
     guidetolerance="10"
     inkscape:pageopacity="0"
     inkscape:pageshadow="2"
     inkscape:window-width="742"
     inkscape:window-height="480"
     id="namedview45"
     showgrid="false"
     inkscape:zoom="0.4609375"
     inkscape:cx="-14.101695"
     inkscape:cy="256"
     inkscape:window-x="0"
     inkscape:window-y="0"
     inkscape:window-maximized="0"
     inkscape:current-layer="Capa_1" /><g
     id="g3"><path
       d="M27,55.5h8v-7h-8V55.5z M33,49.5c0.552,0,1,0.448,1,1s-0.448,1-1,1s-1-0.448-1-1S32.448,49.5,33,49.5z"
       fill="#FFFFFF"
       id="path5" /><path
       d="M40,55.5h7v4h6v-4v-2v-4H40V55.5z M42,50.5c0.552,0,1,0.448,1,1s-0.448,1-1,1s-1-0.448-1-1S41.448,50.5,42,50.5z"
       fill="#FFFFFF"
       id="path7" /></g><g
     id="g9"
     style="fill:#{sdcol(icon)};fill-opacity:1"><rect
       x="2"
       y="0.5"
       width="56"
       height="23"
       fill="#FFFFFF"
       id="rect11"
       style="fill:#{sdcol(icon)};fill-opacity:1" /><path
       d="M60,39.5c0-3.309-2.691-6-6-6H39v-3h-8v-1h27v-4H2v4h27v1h-8v3h-2v10h-2v-10h-2v10h-2v-10h-2v10H9v-10H6   c-3.309,0-6,2.691-6,6c0,2.086,1.071,3.925,2.69,5C1.071,45.575,0,47.414,0,49.5c0,3.309,2.691,6,6,6h1v4h6v-4h9v-6H9v4H7v-6h17v8   h1v-9h12v9h1v-8h17v7.91c2.833-0.478,5-2.942,5-5.91c0-2.086-1.071-3.925-2.69-5C58.929,43.425,60,41.586,60,39.5z M11,50.5   c0.552,0,1,0.448,1,1s-0.448,1-1,1s-1-0.448-1-1S10.448,50.5,11,50.5z M39,42.5c-0.552,0-1-0.448-1-1s0.448-1,1-1s1,0.448,1,1   S39.552,42.5,39,42.5z M44,43.5h-2v-4H28v4h-2v-6h18V43.5z"
       fill="#FFFFFF"
       id="path13"
       style="fill:#{sdcol(icon)};fill-opacity:1" /></g><g
     id="g15" /><g
     id="g17" /><g
     id="g19" /><g
     id="g21" /><g
     id="g23" /><g
     id="g25" /><g
     id="g27" /><g
     id="g29" /><g
     id="g31" /><g
     id="g33" /><g
     id="g35" /><g
     id="g37" /><g
     id="g39" /><g
     id="g41" /><g
     id="g43" /></svg>