<?xml version="1.0" encoding="UTF-8" standalone="no"?>
<!-- Generator: Adobe Illustrator 19.0.0, SVG Export Plug-In . SVG Version: 6.00 Build 0)  -->

<svg
   xmlns:dc="http://purl.org/dc/elements/1.1/"
   xmlns:cc="http://creativecommons.org/ns#"
   xmlns:rdf="http://www.w3.org/1999/02/22-rdf-syntax-ns#"
   xmlns:svg="http://www.w3.org/2000/svg"
   xmlns="http://www.w3.org/2000/svg"
   xmlns:sodipodi="http://sodipodi.sourceforge.net/DTD/sodipodi-0.dtd"
   xmlns:inkscape="http://www.inkscape.org/namespaces/inkscape"
   version="1.1"
   id="Capa_1"
   x="0px"
   y="0px"
   viewBox="0 0 490.411 490.411"
   style="enable-background:new 0 0 490.411 490.411;"
   xml:space="preserve"
   width="512px"
   height="512px"
   inkscape:version="0.91 r13725"
   sodipodi:docname="Reboot system.svg"><metadata
     id="metadata47"><rdf:RDF><cc:Work
         rdf:about=""><dc:format>image/svg+xml</dc:format><dc:type
           rdf:resource="http://purl.org/dc/dcmitype/StillImage" /></cc:Work></rdf:RDF></metadata><defs
     id="defs45" /><sodipodi:namedview
     pagecolor="#ffffff"
     bordercolor="#666666"
     borderopacity="1"
     objecttolerance="10"
     gridtolerance="10"
     guidetolerance="10"
     inkscape:pageopacity="0"
     inkscape:pageshadow="2"
     inkscape:window-width="979"
     inkscape:window-height="679"
     id="namedview43"
     showgrid="false"
     inkscape:zoom="0.4609375"
     inkscape:cx="-14.101695"
     inkscape:cy="256"
     inkscape:window-x="0"
     inkscape:window-y="0"
     inkscape:window-maximized="0"
     inkscape:current-layer="Capa_1" /><g
     id="g3"
     style="fill:#{sdcol(iconactive)};fill-opacity:1"><g
       id="g5"
       style="fill:#{sdcol(iconactive)};fill-opacity:1"><g
         id="g7"
         style="fill:#{sdcol(iconactive)};fill-opacity:1"><g
           id="g9"
           style="fill:#{sdcol(iconactive)};fill-opacity:1"><path
             d="M378.906,335.856c14.2,0,25.7-11.5,25.7-25.7v-180.7c0-14.2-11.5-25.7-25.7-25.7h-267.4c-14.2,0-25.7,11.5-25.7,25.7      v180.6c0,14.2,11.5,25.7,25.7,25.7h104.8v32h-20.5c-3.4,0-6.2,2.8-6.2,6.2v17.9c0,3.4,2.8,6.2,6.2,6.2h98.5      c3.4,0,6.2-2.8,6.2-6.2v-17.9c0-3.4-2.8-6.2-6.2-6.2h-20.5v-32h105.1V335.856z M120.906,300.456v-161.6h248.6v161.6H120.906z       M19.206,443.856l56.5-38c3.1-2.1,7.2,0.1,7.2,3.9v20.6h355.4v-318.2c0-2.5,1.3-4.9,3.4-6.3l27.4-18.4c1.8-1.2,4.1,0.1,4.1,2.2      v358c0,9.6-7.8,17.5-17.5,17.5h-372.8v20.6c0,3.7-4.2,5.9-7.2,3.9l-56.5-38C16.506,449.656,16.506,445.656,19.206,443.856z       M407.506,80.656v-20.6h-355.4v318c0,2.5-1.3,4.9-3.4,6.3l-27.4,18.4c-1.8,1.2-4.1-0.1-4.1-2.2v-358c0-9.6,7.8-17.4,17.4-17.4      h372.9v-20.5c0-3.7,4.2-5.9,7.2-3.9l56.5,38c2.7,1.8,2.7,5.9,0,7.7l-56.5,38C411.606,86.556,407.506,84.356,407.506,80.656z"
             fill="#FFFFFF"
             id="path11"
             style="fill:#{sdcol(iconactive)};fill-opacity:1" /></g></g></g></g><g
     id="g13" /><g
     id="g15" /><g
     id="g17" /><g
     id="g19" /><g
     id="g21" /><g
     id="g23" /><g
     id="g25" /><g
     id="g27" /><g
     id="g29" /><g
     id="g31" /><g
     id="g33" /><g
     id="g35" /><g
     id="g37" /><g
     id="g39" /><g
     id="g41" /></svg>