<?xml version="1.0" encoding="UTF-8" standalone="no"?>
<!-- Generator: Adobe Illustrator 16.0.0, SVG Export Plug-In . SVG Version: 6.00 Build 0)  -->

<svg
   xmlns:dc="http://purl.org/dc/elements/1.1/"
   xmlns:cc="http://creativecommons.org/ns#"
   xmlns:rdf="http://www.w3.org/1999/02/22-rdf-syntax-ns#"
   xmlns:svg="http://www.w3.org/2000/svg"
   xmlns="http://www.w3.org/2000/svg"
   xmlns:sodipodi="http://sodipodi.sourceforge.net/DTD/sodipodi-0.dtd"
   xmlns:inkscape="http://www.inkscape.org/namespaces/inkscape"
   version="1.1"
   id="Capa_1"
   x="0px"
   y="0px"
   width="512px"
   height="512px"
   viewBox="0 0 425.189 425.189"
   style="enable-background:new 0 0 425.189 425.189;"
   xml:space="preserve"
   inkscape:version="0.91 r13725"
   sodipodi:docname="Remote wakeup.svg"><metadata
     id="metadata41"><rdf:RDF><cc:Work
         rdf:about=""><dc:format>image/svg+xml</dc:format><dc:type
           rdf:resource="http://purl.org/dc/dcmitype/StillImage" /></cc:Work></rdf:RDF></metadata><defs
     id="defs39" /><sodipodi:namedview
     pagecolor="#ffffff"
     bordercolor="#666666"
     borderopacity="1"
     objecttolerance="10"
     gridtolerance="10"
     guidetolerance="10"
     inkscape:pageopacity="0"
     inkscape:pageshadow="2"
     inkscape:window-width="1038"
     inkscape:window-height="661"
     id="namedview37"
     showgrid="false"
     inkscape:zoom="0.4609375"
     inkscape:cx="-14.101695"
     inkscape:cy="256"
     inkscape:window-x="0"
     inkscape:window-y="0"
     inkscape:window-maximized="0"
     inkscape:current-layer="Capa_1" /><g
     id="g3"
     style="fill:#{sdcol(icon)};fill-opacity:1"><path
       d="M325.824,3.724L255.76,73.787c-13.191-1.866-27.064,2.225-37.219,12.378l-62.407,62.4   c-11.083,11.086-36.016,47.65-43.089,72.211c-2.442,0.92-4.737,2.32-6.7,4.29c-6.42,6.425-7.256,16.307-2.528,23.65l-42.709,42.709   l20.547,20.548L0,393.631l27.83,27.835l81.659-81.65l19.928,19.927l42.392-42.391l0.879,0.88c7.403,7.398,19.403,7.398,26.813,0   c2.245-2.243,3.731-4.941,4.609-7.78c25.666-6.392,61.374-29.023,73.133-40.771l62.403-62.412   c8.679-8.678,12.952-20.093,12.839-31.472l72.704-72.704L325.824,3.724z M350.986,164.868c-1.923-7.217-5.677-14.046-11.34-19.713   l-13.078-13.089l-59.692,59.688l-6.596-6.596l-21.054,21.05l-15.762-15.762l21.051-21.051l-5.303-5.308l59.68-59.686   l-18.245-18.238c-4.422-4.421-9.555-7.677-15.026-9.822l60.203-60.203l5.937,5.935l-32.651,32.651l6.208,6.208l32.656-32.651   l8.279,8.287l-32.651,32.646l6.204,6.213l32.656-32.657l7.354,7.357L327.165,82.78l6.21,6.208l32.657-32.648l7.138,7.124   L340.51,96.115l6.205,6.208l32.651-32.649l8.281,8.287l-32.646,32.648l6.205,6.211l32.651-32.658l7.358,7.358l-32.657,32.656   l6.211,6.203l32.651-32.651l5.346,5.34L350.986,164.868z"
       fill="#FFFFFF"
       id="path5"
       style="fill:#{sdcol(icon)};fill-opacity:1" /></g><g
     id="g7" /><g
     id="g9" /><g
     id="g11" /><g
     id="g13" /><g
     id="g15" /><g
     id="g17" /><g
     id="g19" /><g
     id="g21" /><g
     id="g23" /><g
     id="g25" /><g
     id="g27" /><g
     id="g29" /><g
     id="g31" /><g
     id="g33" /><g
     id="g35" /></svg>