<?xml version="1.0" encoding="UTF-8" standalone="no"?>
<!-- Generator: Adobe Illustrator 17.1.0, SVG Export Plug-In . SVG Version: 6.00 Build 0)  -->

<svg
   xmlns:dc="http://purl.org/dc/elements/1.1/"
   xmlns:cc="http://creativecommons.org/ns#"
   xmlns:rdf="http://www.w3.org/1999/02/22-rdf-syntax-ns#"
   xmlns:svg="http://www.w3.org/2000/svg"
   xmlns="http://www.w3.org/2000/svg"
   xmlns:sodipodi="http://sodipodi.sourceforge.net/DTD/sodipodi-0.dtd"
   xmlns:inkscape="http://www.inkscape.org/namespaces/inkscape"
   version="1.1"
   id="Capa_1"
   x="0px"
   y="0px"
   viewBox="0 0 281.51 281.51"
   style="enable-background:new 0 0 281.51 281.51;"
   xml:space="preserve"
   width="512px"
   height="512px"
   inkscape:version="0.91 r13725"
   sodipodi:docname="Safely remove usb mass storage.svg"><metadata
     id="metadata43"><rdf:RDF><cc:Work
         rdf:about=""><dc:format>image/svg+xml</dc:format><dc:type
           rdf:resource="http://purl.org/dc/dcmitype/StillImage" /></cc:Work></rdf:RDF></metadata><defs
     id="defs41" /><sodipodi:namedview
     pagecolor="#ffffff"
     bordercolor="#666666"
     borderopacity="1"
     objecttolerance="10"
     gridtolerance="10"
     guidetolerance="10"
     inkscape:pageopacity="0"
     inkscape:pageshadow="2"
     inkscape:window-width="742"
     inkscape:window-height="480"
     id="namedview39"
     showgrid="false"
     inkscape:zoom="0.4609375"
     inkscape:cx="-14.101695"
     inkscape:cy="256"
     inkscape:window-x="0"
     inkscape:window-y="0"
     inkscape:window-maximized="0"
     inkscape:current-layer="Capa_1" /><g
     id="g3"
     style="fill:#{sdcol(iconactive)};fill-opacity:1"><path
       d="M175.443,103.452V90.249c0-7.086-5-10.484-9-11.699V23.49c0-12.683-10.428-23.49-23.11-23.49H62.972   C50.289,0,39.443,10.808,39.443,23.49v55.161c-5,1.299-9,4.704-9,11.597v123.563c0,37.328,32.496,67.697,72.667,67.697   c19.857,0,37.878-7.423,50.944-19.439c5.431,1.164,11.101,1.79,16.875,1.79c44.268,0,80.137-36.015,80.137-80.283   C251.066,140.924,217.443,105.948,175.443,103.452z M136.443,30v48h-67V30H136.443z M170.971,233.861   c-27.727,0-50.283-22.557-50.283-50.283c0-27.727,22.557-50.283,50.283-50.283s50.283,22.557,50.283,50.283   C221.254,211.305,198.697,233.861,170.971,233.861z"
       fill="#FFFFFF"
       id="path5"
       style="fill:#{sdcol(iconactive)};fill-opacity:1" /><path
       d="M201.63,161.045l-8.158-8.031c-1.064-1.048-2.475-1.618-3.973-1.607s-2.9,0.604-3.948,1.669l-14.765,14.997l-14.997-14.765   c-1.064-1.048-2.475-1.618-3.973-1.606c-1.498,0.012-2.9,0.604-3.948,1.669l-8.031,8.158c-2.167,2.201-2.139,5.754,0.062,7.921   l14.997,14.764l-14.12,14.343c-2.166,2.201-2.139,5.754,0.062,7.921l8.158,8.031c1.064,1.048,2.475,1.618,3.973,1.606   c1.498-0.012,2.9-0.604,3.948-1.668l14.12-14.342l14.342,14.12c1.064,1.048,2.475,1.618,3.973,1.606   c1.498-0.012,2.9-0.604,3.948-1.668l8.031-8.158c2.166-2.201,2.139-5.754-0.062-7.921l-14.342-14.12l14.764-14.997   C203.859,166.766,203.831,163.212,201.63,161.045z"
       fill="#FFFFFF"
       id="path7"
       style="fill:#{sdcol(iconactive)};fill-opacity:1" /></g><g
     id="g9" /><g
     id="g11" /><g
     id="g13" /><g
     id="g15" /><g
     id="g17" /><g
     id="g19" /><g
     id="g21" /><g
     id="g23" /><g
     id="g25" /><g
     id="g27" /><g
     id="g29" /><g
     id="g31" /><g
     id="g33" /><g
     id="g35" /><g
     id="g37" /></svg>