<?xml version="1.0" encoding="UTF-8" standalone="no"?>
<!-- Generator: Adobe Illustrator 18.1.1, SVG Export Plug-In . SVG Version: 6.00 Build 0)  -->

<svg
   xmlns:dc="http://purl.org/dc/elements/1.1/"
   xmlns:cc="http://creativecommons.org/ns#"
   xmlns:rdf="http://www.w3.org/1999/02/22-rdf-syntax-ns#"
   xmlns:svg="http://www.w3.org/2000/svg"
   xmlns="http://www.w3.org/2000/svg"
   xmlns:sodipodi="http://sodipodi.sourceforge.net/DTD/sodipodi-0.dtd"
   xmlns:inkscape="http://www.inkscape.org/namespaces/inkscape"
   version="1.1"
   id="Capa_1"
   x="0px"
   y="0px"
   viewBox="0 0 19.858 19.858"
   style="enable-background:new 0 0 19.858 19.858;"
   xml:space="preserve"
   width="512px"
   height="512px"
   inkscape:version="0.91 r13725"
   sodipodi:docname="System.svg"><metadata
     id="metadata55"><rdf:RDF><cc:Work
         rdf:about=""><dc:format>image/svg+xml</dc:format><dc:type
           rdf:resource="http://purl.org/dc/dcmitype/StillImage" /></cc:Work></rdf:RDF></metadata><defs
     id="defs53" /><sodipodi:namedview
     pagecolor="#ffffff"
     bordercolor="#666666"
     borderopacity="1"
     objecttolerance="10"
     gridtolerance="10"
     guidetolerance="10"
     inkscape:pageopacity="0"
     inkscape:pageshadow="2"
     inkscape:window-width="1094"
     inkscape:window-height="668"
     id="namedview51"
     showgrid="false"
     inkscape:zoom="0.4609375"
     inkscape:cx="-14.101695"
     inkscape:cy="256"
     inkscape:window-x="0"
     inkscape:window-y="0"
     inkscape:window-maximized="0"
     inkscape:current-layer="Capa_1" /><g
     id="g3"
     style="fill:#{sdcol(icon)};fill-opacity:1"><g
       id="g5"
       style="fill:#{sdcol(icon)};fill-opacity:1"><rect
         x="7.084"
         y="16.38"
         width="5.688"
         height="1.012"
         fill="#FFFFFF"
         id="rect7"
         style="fill:#{sdcol(icon)};fill-opacity:1" /><polygon
         points="4.173,17.761 3.882,18.906 15.975,18.906 15.685,17.761   "
         fill="#FFFFFF"
         id="polygon9"
         style="fill:#{sdcol(icon)};fill-opacity:1" /><path
         d="M18.983,0.952H0.875C0.392,0.952,0,1.344,0,1.827v13.022c0,0.482,0.392,0.875,0.875,0.875h18.108    c0.483,0,0.875-0.393,0.875-0.875V1.828C19.858,1.345,19.466,0.952,18.983,0.952z M18.108,13.972H1.751V2.702h16.357    C18.108,2.702,18.108,13.972,18.108,13.972z"
         fill="#FFFFFF"
         id="path11"
         style="fill:#{sdcol(icon)};fill-opacity:1" /><path
         d="M6.696,12.423c0.501,0.016,1.358,0.324,1.358,0.324c0.229,0,0.488-0.129,0.635-0.309    c0.147-0.18-0.227-0.725-0.259-0.807c-0.033-0.08-0.994-1.332-1.157-1.398c-0.165-0.066-0.412,0.156-0.478,0.32    C6.73,10.715,6.445,10.5,6.281,10.5s-0.393,0.436-0.262,0.533c0.292,0.27,0.065,0.646,0.065,0.646s-0.075,0.1-0.108,0.395    C5.792,12.585,6.45,12.392,6.696,12.423z"
         fill="#FFFFFF"
         id="path13"
         style="fill:#{sdcol(icon)};fill-opacity:1" /><path
         d="M9.334,11.732c0,0-0.252-0.014-0.252,0.18c0,0.107-0.062,0.379,0.092,0.379c0.152,0,1.41,0,1.472,0    c0.061,0,0.091-0.09,0.091-0.152c0-0.061,0-0.975,0-0.975s-0.685,0.598-0.899,0.582C9.623,11.73,9.471,11.732,9.334,11.732z"
         fill="#FFFFFF"
         id="path15"
         style="fill:#{sdcol(icon)};fill-opacity:1" /><path
         d="M12.688,10.333c-0.225,0.264-0.563,0.605-0.886,0.549c-0.32-0.059-0.177-0.736-0.478-0.736    c-0.302,0-0.358,0.057-0.358,0.283l0.015,1.701c0,0-0.132,0.66,0.265,0.793c0.395,0.133,0.595-0.139,1.048-0.348    c0.452-0.205,0.869-0.508,1.075-0.621c0.209-0.113,0.491-0.697,0.228-0.773c-0.265-0.076-0.542-0.049-0.579-0.217    C12.98,10.792,13.046,10.134,12.688,10.333z"
         fill="#FFFFFF"
         id="path17"
         style="fill:#{sdcol(icon)};fill-opacity:1" /><path
         d="M7.327,9.859c0.199,0.252,1.06,1.375,1.06,1.375s0.222,0.258,0.402,0.094    C8.972,11.162,8.545,10.5,8.545,10.5C7.637,9.727,7.601,9.586,7.601,9.586C7.404,8.908,8.205,8.123,8.205,8.041    C8.393,7.71,8.577,7.133,8.577,7.133S9.209,7.444,9.6,7.444c0,0,0.913,0.063,1.229-0.512C10.88,6.84,10.97,7.404,10.97,7.568    c0,0.166,0.026,0.363,0.356,0.891c0.33,0.53,0.333,1.215,0.333,1.215c0,0.639,0.306,0.773,0.306,0.773    c0.221,0,0.845-0.572,0.845-0.572c0-0.287-0.204-1.829-0.866-2.38c-0.66-0.55-0.923-0.968-0.923-0.968s0.035-0.764,0.005-1.883    c-0.111-1.058-1.549-1.182-1.549-1.182c-0.892,0-1.52,0.822-1.619,1.234C7.76,5.109,8.303,6.883,8.204,7.112    c-0.007,0.229-1.222,1.534-1.225,1.54c-0.248,0.347-0.334,1.25-0.334,1.25C6.762,9.72,7.327,9.859,7.327,9.859z M10.242,4.672    c0.331,0,0.431,0.446,0.431,0.446c0,0.149-0.015,0.461-0.015,0.461c0,0.019-0.167,0.055-0.374,0.063    c0.021-0.043,0.038-0.092,0.045-0.149c0.022-0.163-0.029-0.274-0.112-0.285c-0.082-0.011-0.164,0.08-0.186,0.244    c-0.01,0.069-0.004,0.132,0.009,0.185C9.942,5.629,9.846,5.611,9.76,5.581C9.538,4.554,10.242,4.672,10.242,4.672z M10.112,5.752    c0.01,0.006,0.017,0.015,0.027,0.017c0.004,0,0.009-0.003,0.013-0.003c0.181,0.059,0.344,0.127,0.424,0.186    c0.259,0.258-0.056,0.603-0.104,0.593c-0.011-0.002-0.46,0.281-0.898,0.278C9.176,6.821,8.793,6.531,8.596,6.499    C8.358,6.398,8.452,6.285,8.502,6.201c0,0,0.165-0.201,0.404-0.366c0.001,0,0.002,0.001,0.003,0.001l0.065-0.037    c0.001-0.001,0-0.005,0.002-0.008c0.141-0.088,0.303-0.158,0.472-0.167C9.595,5.615,9.866,5.675,10.112,5.752z M8.551,4.682    c0.808-0.058,0.651,0.831,0.651,0.831l-0.221,0.12C8.972,5.564,8.956,5.495,8.943,5.452C8.915,5.35,8.757,5.209,8.668,5.235    C8.579,5.26,8.61,5.531,8.64,5.632c0.012,0.043,0.055,0.091,0.105,0.13l-0.22,0.12C8.342,5.749,8.215,5.28,8.215,5.28    C8.216,4.769,8.551,4.682,8.551,4.682z"
         fill="#FFFFFF"
         id="path19"
         style="fill:#{sdcol(icon)};fill-opacity:1" /></g></g><g
     id="g21" /><g
     id="g23" /><g
     id="g25" /><g
     id="g27" /><g
     id="g29" /><g
     id="g31" /><g
     id="g33" /><g
     id="g35" /><g
     id="g37" /><g
     id="g39" /><g
     id="g41" /><g
     id="g43" /><g
     id="g45" /><g
     id="g47" /><g
     id="g49" /></svg>