<?xml version="1.0" encoding="UTF-8" standalone="no"?>
<!-- Generator: Adobe Illustrator 18.0.0, SVG Export Plug-In . SVG Version: 6.00 Build 0)  -->

<svg
   xmlns:dc="http://purl.org/dc/elements/1.1/"
   xmlns:cc="http://creativecommons.org/ns#"
   xmlns:rdf="http://www.w3.org/1999/02/22-rdf-syntax-ns#"
   xmlns:svg="http://www.w3.org/2000/svg"
   xmlns="http://www.w3.org/2000/svg"
   xmlns:sodipodi="http://sodipodi.sourceforge.net/DTD/sodipodi-0.dtd"
   xmlns:inkscape="http://www.inkscape.org/namespaces/inkscape"
   version="1.1"
   id="Capa_1"
   x="0px"
   y="0px"
   viewBox="0 0 58 58"
   style="enable-background:new 0 0 58 58;"
   xml:space="preserve"
   width="512px"
   height="512px"
   inkscape:version="0.91 r13725"
   sodipodi:docname="Update vdr recordings list.svg"><metadata
     id="metadata43"><rdf:RDF><cc:Work
         rdf:about=""><dc:format>image/svg+xml</dc:format><dc:type
           rdf:resource="http://purl.org/dc/dcmitype/StillImage" /></cc:Work></rdf:RDF></metadata><defs
     id="defs41" /><sodipodi:namedview
     pagecolor="#ffffff"
     bordercolor="#666666"
     borderopacity="1"
     objecttolerance="10"
     gridtolerance="10"
     guidetolerance="10"
     inkscape:pageopacity="0"
     inkscape:pageshadow="2"
     inkscape:window-width="742"
     inkscape:window-height="480"
     id="namedview39"
     showgrid="false"
     inkscape:zoom="0.4609375"
     inkscape:cx="-14.101695"
     inkscape:cy="256"
     inkscape:window-x="0"
     inkscape:window-y="0"
     inkscape:window-maximized="0"
     inkscape:current-layer="Capa_1" /><g
     id="g3"
     style="fill:#{sdcol(icon)};fill-opacity:1"><path
       d="M44,30.5c-3.764,0-7.317,1.581-9.75,4.338c-0.365,0.415-0.326,1.047,0.088,1.412c0.415,0.366,1.045,0.327,1.412-0.088   C37.803,33.835,40.811,32.5,44,32.5c6.065,0,11,4.935,11,11s-4.935,11-11,11c-4.992,0-9.407-3.367-10.741-8H38v-2h-8v8h2v-3.663   c2.093,4.531,6.781,7.663,12,7.663c7.168,0,13-5.832,13-13S51.168,30.5,44,30.5z"
       fill="#FFFFFF"
       id="path5"
       style="fill:#{sdcol(icon)};fill-opacity:1" /><path
       d="M57,1.5H1c-0.552,0-1,0.447-1,1v44c0,0.553,0.448,1,1,1h26.648C27.235,46.056,27,44.538,27,42.964   c0-9.117,7.418-16.535,16.536-16.535c1.548,0,3.042,0.229,4.464,0.629V25.5h8v6.632c0.759,0.873,1.435,1.819,2,2.837V2.5   C58,1.947,57.552,1.5,57,1.5z M10,45.5H2v-9h8V45.5z M10,34.5H2v-9h8V34.5z M10,23.5H2v-9h8V23.5z M10,12.5H2v-9h8V12.5z    M36.537,25.344l-11,7C25.374,32.447,25.187,32.5,25,32.5c-0.166,0-0.331-0.041-0.481-0.123C24.199,32.201,24,31.865,24,31.5v-14   c0-0.365,0.199-0.701,0.519-0.877c0.32-0.175,0.71-0.162,1.019,0.033l11,7C36.825,23.84,37,24.158,37,24.5   S36.825,25.16,36.537,25.344z M56,23.5h-8v-9h8V23.5z M56,12.5h-8v-9h8V12.5z"
       fill="#FFFFFF"
       id="path7"
       style="fill:#{sdcol(icon)};fill-opacity:1" /></g><g
     id="g9" /><g
     id="g11" /><g
     id="g13" /><g
     id="g15" /><g
     id="g17" /><g
     id="g19" /><g
     id="g21" /><g
     id="g23" /><g
     id="g25" /><g
     id="g27" /><g
     id="g29" /><g
     id="g31" /><g
     id="g33" /><g
     id="g35" /><g
     id="g37" /></svg>