<?xml version="1.0" encoding="UTF-8" standalone="no"?>
<!-- Generator: Adobe Illustrator 17.1.0, SVG Export Plug-In . SVG Version: 6.00 Build 0)  -->

<svg
   xmlns:dc="http://purl.org/dc/elements/1.1/"
   xmlns:cc="http://creativecommons.org/ns#"
   xmlns:rdf="http://www.w3.org/1999/02/22-rdf-syntax-ns#"
   xmlns:svg="http://www.w3.org/2000/svg"
   xmlns="http://www.w3.org/2000/svg"
   xmlns:sodipodi="http://sodipodi.sourceforge.net/DTD/sodipodi-0.dtd"
   xmlns:inkscape="http://www.inkscape.org/namespaces/inkscape"
   version="1.1"
   id="Capa_1"
   x="0px"
   y="0px"
   viewBox="0 0 197.442 197.442"
   style="enable-background:new 0 0 197.442 197.442;"
   xml:space="preserve"
   inkscape:version="0.91 r13725"
   sodipodi:docname="Video.svg"><metadata
     id="metadata39"><rdf:RDF><cc:Work
         rdf:about=""><dc:format>image/svg+xml</dc:format><dc:type
           rdf:resource="http://purl.org/dc/dcmitype/StillImage" /></cc:Work></rdf:RDF></metadata><defs
     id="defs37" /><sodipodi:namedview
     pagecolor="#ffffff"
     bordercolor="#666666"
     borderopacity="1"
     objecttolerance="10"
     gridtolerance="10"
     guidetolerance="10"
     inkscape:pageopacity="0"
     inkscape:pageshadow="2"
     inkscape:window-width="1920"
     inkscape:window-height="1017"
     id="namedview35"
     showgrid="false"
     inkscape:zoom="1.1952877"
     inkscape:cx="-299.09116"
     inkscape:cy="98.720997"
     inkscape:window-x="-8"
     inkscape:window-y="-8"
     inkscape:window-maximized="1"
     inkscape:current-layer="Capa_1" /><path
     d="M186.696,83.902H40.775l136.473-49.707c1.246-0.454,2.261-1.384,2.821-2.586c0.56-1.202,0.62-2.577,0.166-3.823  l-8.923-24.497c-0.945-2.596-3.815-3.928-6.409-2.987L9.035,57.074c-1.246,0.454-2.26,1.384-2.821,2.586  c-0.56,1.202-0.62,2.577-0.166,3.823l8.922,24.496c0.159,0.436,0.381,0.828,0.638,1.188v103.275c0,2.762,2.239,5,5,5h166.088  c2.762,0,5-2.238,5-5v-77.469V88.902C191.696,86.14,189.458,83.902,186.696,83.902z M166.123,18.262l3.005,8.248l-4.662,1.698  L166.123,18.262z M128.872,24.068l19.34-7.044l-3.034,18.209l-19.34,7.044L128.872,24.068z M90.245,38.137l19.339-7.044  l-3.034,18.209l-19.339,7.044L90.245,38.137z M51.617,52.207l19.339-7.044l-3.034,18.208l-19.338,7.044L51.617,52.207z   M32.328,59.233l-3.034,18.208l-6.638,2.418l-5.5-15.1L32.328,59.233z M32.876,109.973h-7.065V93.902h16.148L32.876,109.973z   M73.986,109.973H53.405l9.083-16.071h20.582L73.986,109.973z M115.097,109.973H94.515l9.082-16.071h20.583L115.097,109.973z   M156.208,109.973h-20.583l9.083-16.071h20.583L156.208,109.973z M181.696,109.973h-4.961l4.961-8.778V109.973z"
     id="path3"
     style="fill:#{sdcol(iconactive)};fill-opacity:1" /><g
     id="g5" /><g
     id="g7" /><g
     id="g9" /><g
     id="g11" /><g
     id="g13" /><g
     id="g15" /><g
     id="g17" /><g
     id="g19" /><g
     id="g21" /><g
     id="g23" /><g
     id="g25" /><g
     id="g27" /><g
     id="g29" /><g
     id="g31" /><g
     id="g33" /></svg>