<?xml version="1.0" encoding="UTF-8" standalone="no"?>
<!-- Generator: Adobe Illustrator 16.0.0, SVG Export Plug-In . SVG Version: 6.00 Build 0)  -->

<svg
   xmlns:dc="http://purl.org/dc/elements/1.1/"
   xmlns:cc="http://creativecommons.org/ns#"
   xmlns:rdf="http://www.w3.org/1999/02/22-rdf-syntax-ns#"
   xmlns:svg="http://www.w3.org/2000/svg"
   xmlns="http://www.w3.org/2000/svg"
   xmlns:sodipodi="http://sodipodi.sourceforge.net/DTD/sodipodi-0.dtd"
   xmlns:inkscape="http://www.inkscape.org/namespaces/inkscape"
   version="1.1"
   id="Capa_1"
   x="0px"
   y="0px"
   width="468.6px"
   height="468.6px"
   viewBox="0 0 468.6 468.6"
   style="enable-background:new 0 0 468.6 468.6;"
   xml:space="preserve"
   inkscape:version="0.91 r13725"
   sodipodi:docname="clear-night.svg"><metadata
     id="metadata49"><rdf:RDF><cc:Work
         rdf:about=""><dc:format>image/svg+xml</dc:format><dc:type
           rdf:resource="http://purl.org/dc/dcmitype/StillImage" /></cc:Work></rdf:RDF></metadata><defs
     id="defs47" /><sodipodi:namedview
     pagecolor="#ffffff"
     bordercolor="#666666"
     borderopacity="1"
     objecttolerance="10"
     gridtolerance="10"
     guidetolerance="10"
     inkscape:pageopacity="0"
     inkscape:pageshadow="2"
     inkscape:window-width="1920"
     inkscape:window-height="1017"
     id="namedview45"
     showgrid="false"
     inkscape:zoom="0.50362782"
     inkscape:cx="-12.906356"
     inkscape:cy="234.3"
     inkscape:window-x="-8"
     inkscape:window-y="-8"
     inkscape:window-maximized="1"
     inkscape:current-layer="Capa_1" /><g
     id="g3"
     style="fill:#{sdcol(icon)};fill-opacity:1"><g
       id="g5"
       style="fill:#{sdcol(icon)};fill-opacity:1"><path
         d="M95.6,239.049c0-9.599,1.9-19.099,5.7-28.699c-7.6,0-13.4,1.9-21,3.8C34.4,225.65,0,265.75,0,315.549    c0,57.4,47.8,105.201,105.2,105.201c49.7,0,89.9-34.4,101.4-80.301c1.9-7.699,1.9-13.4,3.8-21c-9.6,3.801-19.1,5.701-28.7,5.701    C133.9,325.15,95.6,286.85,95.6,239.049z"
         id="path7"
         style="fill:#{sdcol(icon)};fill-opacity:1" /><polygon
         points="315.6,124.35 271.6,109.05 248.6,47.85 225.7,109.05 181.7,124.35 225.7,139.65 248.6,200.85 271.6,139.65   "
         id="polygon9"
         style="fill:#{sdcol(icon)};fill-opacity:1" /><polygon
         points="325.1,200.85 302.2,262.049 258.2,277.35 302.2,292.65 325.1,353.85 348.1,292.65 392.1,277.35 348.1,262.049       "
         id="polygon11"
         style="fill:#{sdcol(icon)};fill-opacity:1" /><polygon
         points="438,151.05 420.7,105.15 403.5,151.05 372.9,162.55 403.5,174.05 420.7,219.95 438,174.05 468.6,162.55   "
         id="polygon13"
         style="fill:#{sdcol(icon)};fill-opacity:1" /></g></g><g
     id="g15" /><g
     id="g17" /><g
     id="g19" /><g
     id="g21" /><g
     id="g23" /><g
     id="g25" /><g
     id="g27" /><g
     id="g29" /><g
     id="g31" /><g
     id="g33" /><g
     id="g35" /><g
     id="g37" /><g
     id="g39" /><g
     id="g41" /><g
     id="g43" /></svg>