<?xml version="1.0" encoding="UTF-8" standalone="no"?>
<!-- Generator: Adobe Illustrator 18.1.1, SVG Export Plug-In . SVG Version: 6.00 Build 0)  -->

<svg
   xmlns:dc="http://purl.org/dc/elements/1.1/"
   xmlns:cc="http://creativecommons.org/ns#"
   xmlns:rdf="http://www.w3.org/1999/02/22-rdf-syntax-ns#"
   xmlns:svg="http://www.w3.org/2000/svg"
   xmlns="http://www.w3.org/2000/svg"
   xmlns:sodipodi="http://sodipodi.sourceforge.net/DTD/sodipodi-0.dtd"
   xmlns:inkscape="http://www.inkscape.org/namespaces/inkscape"
   version="1.1"
   id="Capa_1"
   x="0px"
   y="0px"
   viewBox="0 0 611.998 611.998"
   style="enable-background:new 0 0 611.998 611.998;"
   xml:space="preserve"
   inkscape:version="0.91 r13725"
   sodipodi:docname="clear-day.svg"><metadata
     id="metadata61"><rdf:RDF><cc:Work
         rdf:about=""><dc:format>image/svg+xml</dc:format><dc:type
           rdf:resource="http://purl.org/dc/dcmitype/StillImage" /></cc:Work></rdf:RDF></metadata><defs
     id="defs59" /><sodipodi:namedview
     pagecolor="#ffffff"
     bordercolor="#666666"
     borderopacity="1"
     objecttolerance="10"
     gridtolerance="10"
     guidetolerance="10"
     inkscape:pageopacity="0"
     inkscape:pageshadow="2"
     inkscape:window-width="1920"
     inkscape:window-height="1017"
     id="namedview57"
     showgrid="false"
     inkscape:zoom="0.38562218"
     inkscape:cx="-16.855877"
     inkscape:cy="305.99899"
     inkscape:window-x="-8"
     inkscape:window-y="-8"
     inkscape:window-maximized="1"
     inkscape:current-layer="Capa_1" /><g
     id="g3"
     style="fill:#{sdcol(icon)};fill-opacity:1"><g
       id="g5"
       style="fill:#{sdcol(icon)};fill-opacity:1"><path
         d="M425.373,314.142c0-65.924-53.455-119.373-119.379-119.373s-119.379,53.449-119.379,119.373    c0,65.935,53.455,119.379,119.379,119.379C371.918,433.521,425.373,380.075,425.373,314.142z"
         id="path7"
         style="fill:#{sdcol(icon)};fill-opacity:1" /><path
         d="M409.268,191.07c7.454,6.255,16.531,9.31,25.556,9.31c11.356,0,22.633-4.836,30.502-14.215l44.901-53.512    c14.126-16.836,11.931-41.932-4.905-56.061c-16.836-14.12-41.938-11.931-56.061,4.905l-44.901,53.512    C390.236,151.844,392.431,176.941,409.268,191.07z"
         id="path9"
         style="fill:#{sdcol(icon)};fill-opacity:1" /><path
         d="M611.386,260.293c-3.815-21.641-24.457-36.104-46.098-32.277l-68.792,12.132c-21.641,3.815-36.092,24.455-32.277,46.098    c3.403,19.305,20.191,32.89,39.142,32.89c2.293,0,4.62-0.199,6.957-0.613l68.792-12.132    C600.753,302.577,615.204,281.937,611.386,260.293z"
         id="path11"
         style="fill:#{sdcol(icon)};fill-opacity:1" /><path
         d="M559.985,414.837l-60.501-34.927c-19.029-10.984-43.368-4.468-54.358,14.566c-10.987,19.031-4.465,43.368,14.566,54.358    l60.501,34.927c6.266,3.619,13.108,5.337,19.857,5.337c13.752,0,27.13-7.138,34.498-19.906    C585.542,450.161,579.02,425.825,559.985,414.837z"
         id="path13"
         style="fill:#{sdcol(icon)};fill-opacity:1" /><path
         d="M411.949,488.897c-7.515-20.651-30.35-31.305-51.004-23.784c-20.654,7.518-31.302,30.35-23.787,51.004l23.891,65.642    c5.881,16.16,21.14,26.195,37.398,26.195c4.517,0,9.114-0.777,13.605-2.411c20.654-7.515,31.302-30.35,23.787-51.001    L411.949,488.897z"
         id="path15"
         style="fill:#{sdcol(icon)};fill-opacity:1" /><path
         d="M251.044,465.119c-20.651-7.515-43.486,3.133-51.004,23.784l-23.891,65.636c-7.518,20.651,3.13,43.486,23.784,51.001    c4.494,1.634,9.086,2.411,13.605,2.411c16.252,0,31.515-10.035,37.395-26.195l23.891-65.636    C282.346,495.471,271.698,472.634,251.044,465.119z"
         id="path17"
         style="fill:#{sdcol(icon)};fill-opacity:1" /><path
         d="M112.504,379.914l-60.498,34.924c-19.034,10.984-25.556,35.321-14.569,54.358c7.371,12.768,20.746,19.906,34.501,19.906    c6.749,0,13.594-1.72,19.857-5.337l60.498-34.924c19.034-10.984,25.556-35.321,14.569-54.355    C155.875,375.448,131.536,368.923,112.504,379.914z"
         id="path19"
         style="fill:#{sdcol(icon)};fill-opacity:1" /><path
         d="M101.672,318.524c2.339,0.414,4.664,0.613,6.957,0.613c18.945,0,35.735-13.585,39.142-32.89    c3.818-21.641-10.633-42.281-32.277-46.098l-68.786-12.132C25.06,224.175,4.427,238.65,0.612,260.293    c-3.818,21.641,10.633,42.281,32.277,46.098L101.672,318.524z"
         id="path21"
         style="fill:#{sdcol(icon)};fill-opacity:1" /><path
         d="M146.663,186.164c7.871,9.382,19.146,14.215,30.505,14.215c9.025,0,18.102-3.058,25.556-9.31    c16.836-14.126,19.031-39.225,4.905-56.061l-44.896-53.507c-14.126-16.833-39.225-19.031-56.061-4.905    c-16.833,14.126-19.031,39.228-4.905,56.061L146.663,186.164z"
         id="path23"
         style="fill:#{sdcol(icon)};fill-opacity:1" /><path
         d="M305.995,153.481c21.977,0,39.795-17.814,39.795-39.792V43.836c0-21.977-17.817-39.792-39.795-39.792    c-21.977,0-39.792,17.817-39.792,39.792v69.851C266.203,135.664,284.017,153.481,305.995,153.481z"
         id="path25"
         style="fill:#{sdcol(icon)};fill-opacity:1" /></g></g><g
     id="g27" /><g
     id="g29" /><g
     id="g31" /><g
     id="g33" /><g
     id="g35" /><g
     id="g37" /><g
     id="g39" /><g
     id="g41" /><g
     id="g43" /><g
     id="g45" /><g
     id="g47" /><g
     id="g49" /><g
     id="g51" /><g
     id="g53" /><g
     id="g55" /></svg>