<?xml version="1.0" encoding="UTF-8" standalone="no"?>
<!-- Generator: Adobe Illustrator 19.0.0, SVG Export Plug-In . SVG Version: 6.00 Build 0)  -->

<svg
   xmlns:dc="http://purl.org/dc/elements/1.1/"
   xmlns:cc="http://creativecommons.org/ns#"
   xmlns:rdf="http://www.w3.org/1999/02/22-rdf-syntax-ns#"
   xmlns:svg="http://www.w3.org/2000/svg"
   xmlns="http://www.w3.org/2000/svg"
   xmlns:sodipodi="http://sodipodi.sourceforge.net/DTD/sodipodi-0.dtd"
   xmlns:inkscape="http://www.inkscape.org/namespaces/inkscape"
   version="1.1"
   id="Layer_1"
   x="0px"
   y="0px"
   viewBox="0 0 455 455"
   style="enable-background:new 0 0 455 455;"
   xml:space="preserve"
   inkscape:version="0.91 r13725"
   sodipodi:docname="cloudy.svg"><metadata
     id="metadata43"><rdf:RDF><cc:Work
         rdf:about=""><dc:format>image/svg+xml</dc:format><dc:type
           rdf:resource="http://purl.org/dc/dcmitype/StillImage" /></cc:Work></rdf:RDF></metadata><defs
     id="defs41" /><sodipodi:namedview
     pagecolor="#ffffff"
     bordercolor="#666666"
     borderopacity="1"
     objecttolerance="10"
     gridtolerance="10"
     guidetolerance="10"
     inkscape:pageopacity="0"
     inkscape:pageshadow="2"
     inkscape:window-width="1920"
     inkscape:window-height="1017"
     id="namedview39"
     showgrid="false"
     inkscape:zoom="0.51868132"
     inkscape:cx="-12.53178"
     inkscape:cy="227.5"
     inkscape:window-x="-8"
     inkscape:window-y="-8"
     inkscape:window-maximized="1"
     inkscape:current-layer="Layer_1" /><g
     id="g3"
     style="fill:#{sdcol(icon)};fill-opacity:1"><path
       d="M350.359,236.02c-7.814-66.133-64.062-117.431-132.296-117.431S93.581,169.887,85.768,236.02   C38.402,236.02,0,274.417,0,321.783s38.397,85.763,85.763,85.763h264.601c47.366,0,85.763-38.397,85.763-85.763   S397.725,236.02,350.359,236.02z"
       id="path5"
       style="fill:#{sdcol(icon)};fill-opacity:1" /><path
       d="M391.016,135.059c-5.829-49.336-47.791-87.605-98.694-87.605c-33.184,0-62.556,16.272-80.607,41.262   c2.108-0.081,4.224-0.127,6.349-0.127c74.519,0,138.462,50.218,157.487,120.164c21.304,4.704,40.867,15.374,56.667,31.173   c1.403,1.403,2.764,2.836,4.085,4.297C447.852,232.648,455,216.682,455,199.04C455,163.704,426.351,135.059,391.016,135.059z"
       id="path7"
       style="fill:#{sdcol(icon)};fill-opacity:1" /></g><g
     id="g9" /><g
     id="g11" /><g
     id="g13" /><g
     id="g15" /><g
     id="g17" /><g
     id="g19" /><g
     id="g21" /><g
     id="g23" /><g
     id="g25" /><g
     id="g27" /><g
     id="g29" /><g
     id="g31" /><g
     id="g33" /><g
     id="g35" /><g
     id="g37" /></svg>