<?xml version="1.0" encoding="UTF-8" standalone="no"?>
<!-- Generator: Adobe Illustrator 16.0.0, SVG Export Plug-In . SVG Version: 6.00 Build 0)  -->

<svg
   xmlns:dc="http://purl.org/dc/elements/1.1/"
   xmlns:cc="http://creativecommons.org/ns#"
   xmlns:rdf="http://www.w3.org/1999/02/22-rdf-syntax-ns#"
   xmlns:svg="http://www.w3.org/2000/svg"
   xmlns="http://www.w3.org/2000/svg"
   xmlns:sodipodi="http://sodipodi.sourceforge.net/DTD/sodipodi-0.dtd"
   xmlns:inkscape="http://www.inkscape.org/namespaces/inkscape"
   version="1.1"
   id="Capa_1"
   x="0px"
   y="0px"
   width="45.46px"
   height="45.46px"
   viewBox="0 0 45.46 45.46"
   style="enable-background:new 0 0 45.46 45.46;"
   xml:space="preserve"
   inkscape:version="0.91 r13725"
   sodipodi:docname="cpu.svg"><metadata
     id="metadata45"><rdf:RDF><cc:Work
         rdf:about=""><dc:format>image/svg+xml</dc:format><dc:type
           rdf:resource="http://purl.org/dc/dcmitype/StillImage" /></cc:Work></rdf:RDF></metadata><defs
     id="defs43" /><sodipodi:namedview
     pagecolor="#ffffff"
     bordercolor="#666666"
     borderopacity="1"
     objecttolerance="10"
     gridtolerance="10"
     guidetolerance="10"
     inkscape:pageopacity="0"
     inkscape:pageshadow="2"
     inkscape:window-width="1519"
     inkscape:window-height="954"
     id="namedview41"
     showgrid="false"
     inkscape:zoom="5.1913771"
     inkscape:cx="-35.058135"
     inkscape:cy="22.73"
     inkscape:window-x="491"
     inkscape:window-y="0"
     inkscape:window-maximized="0"
     inkscape:current-layer="Capa_1" /><g
     id="g3"
     style="fill:#{sdcol(icon)};fill-opacity:1"><g
       id="g5"
       style="fill:#{sdcol(icon)};fill-opacity:1"><path
         d="M29.436,15.745H16.025c-0.155,0-0.28,0.126-0.28,0.28v13.412c0,0.153,0.125,0.278,0.28,0.278h13.411    c0.154,0,0.279-0.125,0.279-0.278V16.025C29.715,15.871,29.59,15.745,29.436,15.745z"
         id="path7"
         style="fill:#{sdcol(icon)};fill-opacity:1" /><path
         d="M42.877,25.308c1.428,0,2.583-1.149,2.583-2.577s-1.155-2.577-2.583-2.577H38.83v-2.092h4.047    c1.428,0,2.583-1.15,2.583-2.577c0-1.427-1.155-2.578-2.583-2.578h-4.046c-0.247-3.354-2.925-6.029-6.276-6.276V2.584    c0-1.427-1.152-2.583-2.578-2.583S27.4,1.157,27.4,2.584v4.047h-2.092V2.584c0-1.427-1.152-2.583-2.579-2.583    c-1.427,0-2.578,1.156-2.578,2.583v4.047H18.06V2.584c0.001-1.427-1.15-2.583-2.577-2.583c-1.427,0-2.578,1.156-2.578,2.583V6.63    c-3.353,0.247-6.029,2.924-6.276,6.276H2.583C1.156,12.906,0,14.057,0,15.484c0,1.427,1.156,2.577,2.583,2.577H6.63v2.092H2.583    C1.156,20.153,0,21.303,0,22.73s1.156,2.578,2.583,2.578H6.63v2.092H2.583C1.156,27.399,0,28.55,0,29.978    c0,1.426,1.156,2.576,2.583,2.576h4.046c0.247,3.354,2.924,6.029,6.276,6.276v4.047c0,1.426,1.151,2.582,2.578,2.582    c1.427,0,2.577-1.156,2.577-2.582v-4.048h2.092v4.048c0,1.426,1.151,2.582,2.578,2.582c1.426,0,2.579-1.156,2.579-2.582v-4.048    H27.4v4.048c0,1.426,1.149,2.582,2.576,2.582c1.428,0,2.578-1.156,2.578-2.582v-4.046c3.354-0.247,6.029-2.924,6.276-6.275h4.046    c1.428,0,2.583-1.15,2.583-2.578c0-1.427-1.155-2.576-2.583-2.576H38.83v-2.094H42.877z M33.824,29.437    c0,2.434-1.956,4.39-4.389,4.39H16.025c-2.434,0-4.389-1.956-4.389-4.39V16.025c0-2.433,1.956-4.389,4.389-4.389h13.411    c2.434,0,4.389,1.956,4.389,4.389V29.437z"
         id="path9"
         style="fill:#{sdcol(icon)};fill-opacity:1" /></g></g><g
     id="g11" /><g
     id="g13" /><g
     id="g15" /><g
     id="g17" /><g
     id="g19" /><g
     id="g21" /><g
     id="g23" /><g
     id="g25" /><g
     id="g27" /><g
     id="g29" /><g
     id="g31" /><g
     id="g33" /><g
     id="g35" /><g
     id="g37" /><g
     id="g39" /></svg>