<?xml version="1.0" encoding="UTF-8" standalone="no"?>
<!-- Generator: Adobe Illustrator 16.0.0, SVG Export Plug-In . SVG Version: 6.00 Build 0)  -->

<svg
   xmlns:dc="http://purl.org/dc/elements/1.1/"
   xmlns:cc="http://creativecommons.org/ns#"
   xmlns:rdf="http://www.w3.org/1999/02/22-rdf-syntax-ns#"
   xmlns:svg="http://www.w3.org/2000/svg"
   xmlns="http://www.w3.org/2000/svg"
   xmlns:sodipodi="http://sodipodi.sourceforge.net/DTD/sodipodi-0.dtd"
   xmlns:inkscape="http://www.inkscape.org/namespaces/inkscape"
   version="1.1"
   id="Capa_1"
   x="0px"
   y="0px"
   width="612px"
   height="612px"
   viewBox="0 0 612 612"
   style="enable-background:new 0 0 612 612;"
   xml:space="preserve"
   inkscape:version="0.91 r13725"
   sodipodi:docname="fog.svg"><metadata
     id="metadata44"><rdf:RDF><cc:Work
         rdf:about=""><dc:format>image/svg+xml</dc:format><dc:type
           rdf:resource="http://purl.org/dc/dcmitype/StillImage" /></cc:Work></rdf:RDF></metadata><defs
     id="defs42" /><sodipodi:namedview
     pagecolor="#ffffff"
     bordercolor="#666666"
     borderopacity="1"
     objecttolerance="10"
     gridtolerance="10"
     guidetolerance="10"
     inkscape:pageopacity="0"
     inkscape:pageshadow="2"
     inkscape:window-width="1920"
     inkscape:window-height="1017"
     id="namedview40"
     showgrid="false"
     inkscape:zoom="0.38562092"
     inkscape:cx="-16.855932"
     inkscape:cy="306"
     inkscape:window-x="-8"
     inkscape:window-y="-8"
     inkscape:window-maximized="1"
     inkscape:current-layer="Capa_1" /><g
     id="g3"
     style="fill:#{sdcol(icon)};fill-opacity:1"><g
       id="Cloud_x5F_Fog"
       style="fill:#{sdcol(icon)};fill-opacity:1"><g
         id="g6"
         style="fill:#{sdcol(icon)};fill-opacity:1"><path
           d="M405,423H225c-14.904,0-27,12.078-27,27s12.096,27,27,27h180c14.904,0,27-12.078,27-27S419.904,423,405,423z M405,513     H225c-14.904,0-27,12.078-27,27s12.096,27,27,27h180c14.904,0,27-12.078,27-27S419.904,513,405,513z M405,333H225     c-14.904,0-27,12.078-27,27s12.096,27,27,27h180c14.904,0,27-12.078,27-27S419.904,333,405,333z M540,252     c0-73.08-58.086-132.426-130.572-134.766C374.814,73.296,321.282,45,261,45C160.542,45,78.624,123.426,72.576,222.372     C29.466,244.89,0,289.962,0,342c0,74.574,60.426,135,135,135c14.904,0,27-12.078,27-27s-12.096-27-27-27     c-44.658,0-81-36.342-81-81c0-30.222,16.704-57.726,43.596-71.766l27.018-14.13l1.854-30.438C130.824,154.638,189.918,99,261,99     c41.526,0,80.154,18.828,106.02,51.642l15.553,19.746l25.128,0.81c43.901,1.422,78.3,36.9,78.3,80.802v35.982l33.229,13.86     C542.771,311.67,558,334.494,558,360c0,34.74-28.26,63-63,63c-14.904,0-27,12.078-27,27s12.096,27,27,27     c64.62,0,117-52.38,117-117C612,311.328,582.282,269.622,540,252z"
           id="path8"
           style="fill:#{sdcol(icon)};fill-opacity:1" /></g></g></g><g
     id="g10" /><g
     id="g12" /><g
     id="g14" /><g
     id="g16" /><g
     id="g18" /><g
     id="g20" /><g
     id="g22" /><g
     id="g24" /><g
     id="g26" /><g
     id="g28" /><g
     id="g30" /><g
     id="g32" /><g
     id="g34" /><g
     id="g36" /><g
     id="g38" /></svg>