<?xml version="1.0" encoding="UTF-8" standalone="no"?>
<!-- Generator: Adobe Illustrator 17.1.0, SVG Export Plug-In . SVG Version: 6.00 Build 0)  -->

<svg
   xmlns:dc="http://purl.org/dc/elements/1.1/"
   xmlns:cc="http://creativecommons.org/ns#"
   xmlns:rdf="http://www.w3.org/1999/02/22-rdf-syntax-ns#"
   xmlns:svg="http://www.w3.org/2000/svg"
   xmlns="http://www.w3.org/2000/svg"
   xmlns:sodipodi="http://sodipodi.sourceforge.net/DTD/sodipodi-0.dtd"
   xmlns:inkscape="http://www.inkscape.org/namespaces/inkscape"
   version="1.1"
   id="Capa_1"
   x="0px"
   y="0px"
   viewBox="0 0 293 293"
   style="enable-background:new 0 0 293 293;"
   xml:space="preserve"
   inkscape:version="0.91 r13725"
   sodipodi:docname="harddisc.svg"><metadata
     id="metadata43"><rdf:RDF><cc:Work
         rdf:about=""><dc:format>image/svg+xml</dc:format><dc:type
           rdf:resource="http://purl.org/dc/dcmitype/StillImage" /><dc:title /></cc:Work></rdf:RDF></metadata><defs
     id="defs41" /><sodipodi:namedview
     pagecolor="#ffffff"
     bordercolor="#666666"
     borderopacity="1"
     objecttolerance="10"
     gridtolerance="10"
     guidetolerance="10"
     inkscape:pageopacity="0"
     inkscape:pageshadow="2"
     inkscape:window-width="1920"
     inkscape:window-height="1017"
     id="namedview39"
     showgrid="false"
     inkscape:zoom="0.80546075"
     inkscape:cx="-225.95763"
     inkscape:cy="146.5"
     inkscape:window-x="-8"
     inkscape:window-y="-8"
     inkscape:window-maximized="1"
     inkscape:current-layer="Capa_1" /><g
     id="g3"
     style="fill:#{sdcol(icon)};fill-opacity:1"><path
       d="M271.5,25c0-13.807-11.193-25-25-25h-200c-13.807,0-25,11.193-25,25v243c0,13.807,11.193,25,25,25h200   c13.807,0,25-11.193,25-25V25z M53.011,20.816c8.951,0,16.208,7.257,16.208,16.208s-7.257,16.208-16.208,16.208   c-8.952,0-16.208-7.257-16.208-16.208S44.059,20.816,53.011,20.816z M53.011,278.496c-8.952,0-16.208-7.257-16.208-16.208   c0-8.951,7.257-16.208,16.208-16.208c8.951,0,16.208,7.257,16.208,16.208C69.219,271.239,61.963,278.496,53.011,278.496z    M163.624,193.807l3.574-30.99c0.266-2.298-0.328-4.393-1.672-5.899c-2.088-2.344-5.626-2.813-8.777-1.035l-49.005,27.652   c-22.588-13.885-37.656-38.818-37.656-67.276c0-43.587,35.334-78.922,78.922-78.922s78.922,35.335,78.922,78.922   C227.931,154.85,200.225,186.951,163.624,193.807z M240.655,278.496c-8.952,0-16.208-7.257-16.208-16.208   c0-8.951,7.257-16.208,16.208-16.208s16.208,7.257,16.208,16.208C256.864,271.239,249.607,278.496,240.655,278.496z    M240.655,53.232c-8.952,0-16.208-7.257-16.208-16.208s7.257-16.208,16.208-16.208s16.208,7.257,16.208,16.208   S249.607,53.232,240.655,53.232z"
       id="path5"
       style="fill:#{sdcol(icon)};fill-opacity:1" /><circle
       cx="149.01"
       cy="116.258"
       r="28.452"
       id="circle7"
       style="fill:#{sdcol(icon)};fill-opacity:1" /></g><g
     id="g9" /><g
     id="g11" /><g
     id="g13" /><g
     id="g15" /><g
     id="g17" /><g
     id="g19" /><g
     id="g21" /><g
     id="g23" /><g
     id="g25" /><g
     id="g27" /><g
     id="g29" /><g
     id="g31" /><g
     id="g33" /><g
     id="g35" /><g
     id="g37" /></svg>