<?xml version="1.0" encoding="UTF-8" standalone="no"?>
<!-- Generator: Adobe Illustrator 17.1.0, SVG Export Plug-In . SVG Version: 6.00 Build 0)  -->

<svg
   xmlns:dc="http://purl.org/dc/elements/1.1/"
   xmlns:cc="http://creativecommons.org/ns#"
   xmlns:rdf="http://www.w3.org/1999/02/22-rdf-syntax-ns#"
   xmlns:svg="http://www.w3.org/2000/svg"
   xmlns="http://www.w3.org/2000/svg"
   xmlns:sodipodi="http://sodipodi.sourceforge.net/DTD/sodipodi-0.dtd"
   xmlns:inkscape="http://www.inkscape.org/namespaces/inkscape"
   version="1.1"
   id="Capa_1"
   x="0px"
   y="0px"
   viewBox="0 0 258.37 258.37"
   style="enable-background:new 0 0 258.37 258.37;"
   xml:space="preserve"
   inkscape:version="0.91 r13725"
   sodipodi:docname="ico_recfolder.svg"><metadata
     id="metadata45"><rdf:RDF><cc:Work
         rdf:about=""><dc:format>image/svg+xml</dc:format><dc:type
           rdf:resource="http://purl.org/dc/dcmitype/StillImage" /></cc:Work></rdf:RDF></metadata><defs
     id="defs43" /><sodipodi:namedview
     pagecolor="#ffffff"
     bordercolor="#666666"
     borderopacity="1"
     objecttolerance="10"
     gridtolerance="10"
     guidetolerance="10"
     inkscape:pageopacity="0"
     inkscape:pageshadow="2"
     inkscape:window-width="1920"
     inkscape:window-height="1017"
     id="namedview41"
     showgrid="false"
     inkscape:zoom="0.91341876"
     inkscape:cx="-199.25144"
     inkscape:cy="129.185"
     inkscape:window-x="-8"
     inkscape:window-y="-8"
     inkscape:window-maximized="1"
     inkscape:current-layer="Capa_1" /><g
     id="g3"
     style="fill:#{sdcol(icon)};fill-opacity:1"><path
       style="fill:#{sdcol(icon)};fill-opacity:1"
       d="M221.869,0H36.501c-9.649,0-17.5,7.851-17.5,17.5v223.37c0,9.65,7.85,17.5,17.5,17.5h185.368   c9.649,0,17.499-7.85,17.499-17.5V17.5C239.368,7.851,231.518,0,221.869,0z M55.694,124.186H34.002V88.851h21.692V124.186z    M34.002,134.186h21.692v35.335H34.002V134.186z M55.694,78.851H34.002V43.516h21.692V78.851z M34.002,179.52h21.692v35.335H34.002   V179.52z M70.694,43.516h117.673v171.34H70.694V43.516z M224.368,43.516v35.335h-21.001V43.516h10.501H224.368z M203.367,88.851   h21.001v35.335h-21.001V88.851z M203.367,134.186h21.001v35.335h-21.001V134.186z M188.367,33.516H70.694V15h117.673V33.516z    M188.367,224.855v18.515H70.694v-18.515H188.367z M203.367,179.52h21.001v35.335h-21.001V179.52z M224.368,17.5v16.016h-10.5   h-10.501V15h18.501C223.224,15,224.368,16.145,224.368,17.5z M36.501,15h19.193v18.516H34.002V17.5   C34.002,16.145,35.146,15,36.501,15z M34.002,240.87v-16.015h21.692v18.515H36.501C35.146,243.37,34.002,242.225,34.002,240.87z    M221.869,243.37h-18.501v-18.515h21.001v16.015C224.368,242.225,223.224,243.37,221.869,243.37z"
       id="path5" /><path
       style="fill:#{sdcol(icon)};fill-opacity:1"
       d="M129.034,86.297c-23.648,0-42.888,19.24-42.888,42.889c0,23.649,19.24,42.889,42.888,42.889   c23.649,0,42.889-19.24,42.889-42.889C171.923,105.537,152.683,86.297,129.034,86.297z M129.034,162.074   c-18.135,0-32.888-14.754-32.888-32.889c0-18.135,14.754-32.889,32.888-32.889c18.135,0,32.889,14.754,32.889,32.889   C161.923,147.32,147.169,162.074,129.034,162.074z"
       id="path7" /><path
       style="fill:#{sdcol(icon)};fill-opacity:1"
       d="M149.656,122.262l-24.676-16.156c-1.513-0.99-3.15-1.514-4.736-1.514   c-3.571,0-7.186,2.733-7.186,7.958v33.272c0,5.225,3.615,7.958,7.185,7.958c1.586,0,3.225-0.524,4.737-1.514l24.677-16.16   c2.533-1.658,3.986-4.182,3.986-6.922C153.642,126.444,152.189,123.921,149.656,122.262z M123.057,141.569l0.001-24.768   l18.914,12.383L123.057,141.569z"
       id="path9" /></g><g
     id="g11" /><g
     id="g13" /><g
     id="g15" /><g
     id="g17" /><g
     id="g19" /><g
     id="g21" /><g
     id="g23" /><g
     id="g25" /><g
     id="g27" /><g
     id="g29" /><g
     id="g31" /><g
     id="g33" /><g
     id="g35" /><g
     id="g37" /><g
     id="g39" /></svg>