<?xml version="1.0" encoding="UTF-8" standalone="no"?>
<!-- Created with Inkscape (http://www.inkscape.org/) -->

<svg
   xmlns:dc="http://purl.org/dc/elements/1.1/"
   xmlns:cc="http://creativecommons.org/ns#"
   xmlns:rdf="http://www.w3.org/1999/02/22-rdf-syntax-ns#"
   xmlns:svg="http://www.w3.org/2000/svg"
   xmlns="http://www.w3.org/2000/svg"
   xmlns:sodipodi="http://sodipodi.sourceforge.net/DTD/sodipodi-0.dtd"
   xmlns:inkscape="http://www.inkscape.org/namespaces/inkscape"
   width="512"
   height="512"
   viewBox="0 0 512.00001 512.00001"
   id="svg4150"
   version="1.1"
   inkscape:version="0.91 r13725"
   sodipodi:docname="ico_sort_number.svg">
  <defs
     id="defs4152" />
  <sodipodi:namedview
     id="base"
     pagecolor="#ffffff"
     bordercolor="#666666"
     borderopacity="1.0"
     inkscape:pageopacity="0.0"
     inkscape:pageshadow="2"
     inkscape:zoom="1.0921209"
     inkscape:cx="644.56867"
     inkscape:cy="160.12472"
     inkscape:document-units="px"
     inkscape:current-layer="layer1"
     showgrid="false"
     units="px"
     inkscape:window-width="1920"
     inkscape:window-height="1017"
     inkscape:window-x="-8"
     inkscape:window-y="-8"
     inkscape:window-maximized="1"
     showguides="true"
     inkscape:guide-bbox="true">
    <sodipodi:guide
       position="379.07893,238.98454"
       orientation="1,0"
       id="guide4168" />
  </sodipodi:namedview>
  <metadata
     id="metadata4155">
    <rdf:RDF>
      <cc:Work
         rdf:about="">
        <dc:format>image/svg+xml</dc:format>
        <dc:type
           rdf:resource="http://purl.org/dc/dcmitype/StillImage" />
        <dc:title></dc:title>
      </cc:Work>
    </rdf:RDF>
  </metadata>
  <g
     inkscape:label="Ebene 1"
     inkscape:groupmode="layer"
     id="layer1"
     transform="translate(0,-540.36216)">
    <path
       style="opacity:1;fill:#{sdcol(icon)};fill-opacity:1;stroke:none;stroke-width:2;stroke-linecap:round;stroke-linejoin:miter;stroke-miterlimit:4;stroke-dasharray:none;stroke-opacity:1"
       inkscape:transform-center-y="31.930225"
       d="m 473.05112,885.63534 -71.02268,123.01496 c -15.1909,26.9432 -27.82493,27.012 -44.15095,0 L 284.00802,880.70485 c -10.89066,-17.12199 -5.99226,-25.39733 10.04766,-25.39733 l 166.03382,0 c 21.43502,-0.25461 22.50281,13.8071 12.96124,30.33315 z"
       id="path4153"
       inkscape:connector-curvature="0"
       sodipodi:nodetypes="cccccccc" />
    <rect
       style="opacity:1;fill:#{sdcol(icon)};fill-opacity:1;stroke:none;stroke-width:2;stroke-linecap:round;stroke-linejoin:miter;stroke-miterlimit:4;stroke-dasharray:none;stroke-opacity:1"
       id="rect4166"
       width="83.18721"
       height="277.97858"
       x="337.64508"
       y="603.1571"
       ry="22.891239" />
    <g
       style="font-style:normal;font-variant:normal;font-weight:900;font-stretch:normal;font-size:246.37945557px;line-height:125%;font-family:'Segoe UI';-inkscape-font-specification:'Segoe UI Heavy';letter-spacing:0px;word-spacing:0px;fill:#{sdcol(icon)};fill-opacity:1;stroke:none;stroke-width:1px;stroke-linecap:butt;stroke-linejoin:miter;stroke-opacity:1"
       id="text4188">
      <path
         d="m 128.76845,778.58295 0,-124.15215 q -8.42118,4.9324 -17.44386,7.57905 -9.02269,2.52636 -20.451422,3.72938 l 0,-38.49679 q 16.240832,-2.76696 30.195922,-8.66178 14.07539,-6.01512 28.75229,-16.36113 l 30.19592,0 0,176.36342 -51.24885,0 z"
         style=""
         id="path4211" />
    </g>
    <g
       style="font-style:normal;font-variant:normal;font-weight:900;font-stretch:normal;font-size:246.37945557px;line-height:125%;font-family:'Segoe UI';-inkscape-font-specification:'Segoe UI Heavy';letter-spacing:0px;word-spacing:0px;fill:#{sdcol(icon)};fill-opacity:1;stroke:none;stroke-width:1px;stroke-linecap:butt;stroke-linejoin:miter;stroke-opacity:1"
       id="text4188-2">
      <path
         d="m 212.17544,901.60097 q 0,45.23373 -21.05293,70.85816 -21.05293,25.50412 -58.10609,25.50412 -22.73717,0 -39.579516,-6.73694 l 0,-39.57951 q 5.052704,3.60907 14.797206,6.25573 9.8648,2.52635 17.68446,2.52635 18.04537,0 27.54927,-9.9851 9.62419,-9.98511 9.8648,-29.35381 l -0.72182,0 q -11.30843,14.4363 -32.96287,14.4363 -12.87237,0 -23.69959,-6.61664 -10.706919,-6.73693 -16.842345,-18.64688 -6.015123,-12.03025 -6.015123,-27.42896 0,-19.00779 7.939963,-33.44409 8.060265,-14.43629 22.616865,-22.13565 14.6769,-7.69936 33.68469,-7.69936 19.7296,0 34.76741,10.22571 15.03781,10.22571 22.49657,28.39138 7.57905,18.16567 7.57905,43.42919 z M 161.4078,879.10441 q 0,-8.78208 -3.96998,-14.9175 -3.96998,-6.25573 -10.58662,-6.25573 -6.49633,0 -10.82722,5.29331 -4.21059,5.173 -4.21059,16.12053 0,10.22571 4.21059,15.51901 4.21058,5.29331 10.58662,5.29331 7.21814,0 10.94752,-5.77452 3.84968,-5.89482 3.84968,-15.27841 z"
         style=""
         id="path4214" />
    </g>
  </g>
</svg>
