<?xml version="1.0" encoding="UTF-8" standalone="no"?>
<!-- Generator: Adobe Illustrator 16.0.0, SVG Export Plug-In . SVG Version: 6.00 Build 0)  -->

<svg
   xmlns:dc="http://purl.org/dc/elements/1.1/"
   xmlns:cc="http://creativecommons.org/ns#"
   xmlns:rdf="http://www.w3.org/1999/02/22-rdf-syntax-ns#"
   xmlns:svg="http://www.w3.org/2000/svg"
   xmlns="http://www.w3.org/2000/svg"
   xmlns:sodipodi="http://sodipodi.sourceforge.net/DTD/sodipodi-0.dtd"
   xmlns:inkscape="http://www.inkscape.org/namespaces/inkscape"
   version="1.1"
   id="Capa_1"
   x="0px"
   y="0px"
   width="387.363px"
   height="387.363px"
   viewBox="0 0 387.363 387.363"
   style="enable-background:new 0 0 387.363 387.363;"
   xml:space="preserve"
   inkscape:version="0.91 r13725"
   sodipodi:docname="ico_cutted.svg"><metadata
     id="metadata41"><rdf:RDF><cc:Work
         rdf:about=""><dc:format>image/svg+xml</dc:format><dc:type
           rdf:resource="http://purl.org/dc/dcmitype/StillImage" /></cc:Work></rdf:RDF></metadata><defs
     id="defs39" /><sodipodi:namedview
     pagecolor="#ffffff"
     bordercolor="#666666"
     borderopacity="1"
     objecttolerance="10"
     gridtolerance="10"
     guidetolerance="10"
     inkscape:pageopacity="0"
     inkscape:pageshadow="2"
     inkscape:window-width="1408"
     inkscape:window-height="792"
     id="namedview37"
     showgrid="false"
     inkscape:zoom="0.60924765"
     inkscape:cx="-298.7291"
     inkscape:cy="193.6815"
     inkscape:window-x="0"
     inkscape:window-y="0"
     inkscape:window-maximized="0"
     inkscape:current-layer="Capa_1" /><g
     id="g3"
     style="fill:#{sdcol(iconactive)};fill-opacity:1"><path
       d="M333.381,288.65c-10.341-18.002-26.8-31.189-45.187-36.209c-12.502-3.417-25.202-2.774-36.251,1.724l-32.414-56.704   c28.806-52.881,71.47-131.12,76.855-140.53c13.169-23.019-8.448-48.576-9.373-49.645L280.731,0l-87.042,152.248L106.64,0.012   l-6.278,7.287c-0.934,1.068-22.548,26.625-9.382,49.647c5.38,9.4,48.053,87.64,76.861,140.527l-32.417,56.703   c-11.058-4.497-23.749-5.14-36.26-1.724c-18.381,5.014-34.846,18.207-45.177,36.215c-19.413,33.934-11.586,75.061,17.438,91.664   c8.104,4.665,17.087,7.031,26.697,7.031c5.278,0,10.761-0.414,15.976-2.191c31.114-10.587,47.05-36.023,54.683-62.132   c0.327-1.123,15.678-63.327,24.25-76.88c0,0,0.265-0.486,0.658-1.213c0.39,0.727,0.661,1.213,0.661,1.213   c8.571,13.553,23.92,75.757,24.25,76.88c7.62,26.108,23.569,51.551,54.68,62.132c5.212,1.777,10.694,2.191,15.973,2.191   c9.614,0,18.591-2.366,26.704-7.031C344.964,363.71,352.783,322.59,333.381,288.65z M134.157,334.575   c-6.446,11.247-16.792,19.737-27.634,22.686c-2.853,0.769-5.663,1.159-8.355,1.159c-4.501,0-8.653-1.093-12.328-3.2   c-15.183-8.671-18.209-32.102-6.722-52.194c6.542-11.396,16.621-19.653,27.616-22.649c7.506-2.03,14.775-1.382,20.726,2.018   C142.63,291.094,145.635,314.507,134.157,334.575z M301.52,355.22c-3.682,2.113-7.824,3.206-12.328,3.206   c-2.69,0-5.507-0.396-8.353-1.165c-10.845-2.942-21.191-11.433-27.634-22.68c-11.481-20.074-8.474-43.48,6.688-52.164   c5.957-3.404,13.223-4.059,20.729-2.018c11.001,2.984,21.077,11.241,27.616,22.645C319.726,323.13,316.706,346.549,301.52,355.22z"
       id="path5"
       style="fill:#{sdcol(iconactive)};fill-opacity:1" /></g><g
     id="g7" /><g
     id="g9" /><g
     id="g11" /><g
     id="g13" /><g
     id="g15" /><g
     id="g17" /><g
     id="g19" /><g
     id="g21" /><g
     id="g23" /><g
     id="g25" /><g
     id="g27" /><g
     id="g29" /><g
     id="g31" /><g
     id="g33" /><g
     id="g35" /></svg>