<?xml version="1.0" encoding="UTF-8" standalone="no"?>
<!-- Generator: Adobe Illustrator 18.0.0, SVG Export Plug-In . SVG Version: 6.00 Build 0)  -->

<svg
   xmlns:dc="http://purl.org/dc/elements/1.1/"
   xmlns:cc="http://creativecommons.org/ns#"
   xmlns:rdf="http://www.w3.org/1999/02/22-rdf-syntax-ns#"
   xmlns:svg="http://www.w3.org/2000/svg"
   xmlns="http://www.w3.org/2000/svg"
   xmlns:sodipodi="http://sodipodi.sourceforge.net/DTD/sodipodi-0.dtd"
   xmlns:inkscape="http://www.inkscape.org/namespaces/inkscape"
   version="1.1"
   id="Capa_1"
   x="0px"
   y="0px"
   viewBox="0 0 512 512"
   style="enable-background:new 0 0 512 512;"
   xml:space="preserve"
   inkscape:version="0.91 r13725"
   sodipodi:docname="mute.svg"><metadata
     id="metadata43"><rdf:RDF><cc:Work
         rdf:about=""><dc:format>image/svg+xml</dc:format><dc:type
           rdf:resource="http://purl.org/dc/dcmitype/StillImage" /></cc:Work></rdf:RDF></metadata><defs
     id="defs41" /><sodipodi:namedview
     pagecolor="#ffffff"
     bordercolor="#666666"
     borderopacity="1"
     objecttolerance="10"
     gridtolerance="10"
     guidetolerance="10"
     inkscape:pageopacity="0"
     inkscape:pageshadow="2"
     inkscape:window-width="1920"
     inkscape:window-height="1017"
     id="namedview39"
     showgrid="false"
     inkscape:zoom="0.4609375"
     inkscape:cx="-14.101695"
     inkscape:cy="256"
     inkscape:window-x="-8"
     inkscape:window-y="-8"
     inkscape:window-maximized="1"
     inkscape:current-layer="Capa_1" /><g
     id="g3"
     style="fill:#{sdcol(icon)};fill-opacity:1"><path
       d="M461.253,256l25.375-25.375c12.496-12.492,12.496-32.758,0-45.25c-12.5-12.5-32.758-12.5-45.258,0l-25.371,25.371   l-25.371-25.371c-12.5-12.5-32.758-12.5-45.258,0c-12.496,12.492-12.496,32.758,0,45.25L370.745,256l-25.375,25.375   c-12.496,12.492-12.496,32.758,0,45.25c6.25,6.25,14.438,9.375,22.629,9.375s16.379-3.125,22.629-9.375l25.371-25.371   l25.371,25.371c6.25,6.25,14.438,9.375,22.629,9.375s16.379-3.125,22.629-9.375c12.496-12.492,12.496-32.758,0-45.25L461.253,256z"
       id="path5"
       style="fill:#{sdcol(icon)};fill-opacity:1" /><path
       d="M287.999,0h-48l-144,160h-48C30.327,160,16,174.326,16,192v128c0,17.672,14.327,32,31.999,32h48l144,160h48   c8.836,0,16.001-7.164,16.001-16V16C304,7.164,296.835,0,287.999,0z"
       id="path7"
       style="fill:#{sdcol(icon)};fill-opacity:1" /></g><g
     id="g9" /><g
     id="g11" /><g
     id="g13" /><g
     id="g15" /><g
     id="g17" /><g
     id="g19" /><g
     id="g21" /><g
     id="g23" /><g
     id="g25" /><g
     id="g27" /><g
     id="g29" /><g
     id="g31" /><g
     id="g33" /><g
     id="g35" /><g
     id="g37" /></svg>