<?xml version="1.0" encoding="UTF-8" standalone="no"?>
<!-- Generator: Adobe Illustrator 18.1.1, SVG Export Plug-In . SVG Version: 6.00 Build 0)  -->

<svg
   xmlns:dc="http://purl.org/dc/elements/1.1/"
   xmlns:cc="http://creativecommons.org/ns#"
   xmlns:rdf="http://www.w3.org/1999/02/22-rdf-syntax-ns#"
   xmlns:svg="http://www.w3.org/2000/svg"
   xmlns="http://www.w3.org/2000/svg"
   xmlns:sodipodi="http://sodipodi.sourceforge.net/DTD/sodipodi-0.dtd"
   xmlns:inkscape="http://www.inkscape.org/namespaces/inkscape"
   version="1.1"
   id="Capa_1"
   x="0px"
   y="0px"
   viewBox="0 0 460.411 460.411"
   style="enable-background:new 0 0 460.411 460.411;"
   xml:space="preserve"
   inkscape:version="0.91 r13725"
   sodipodi:docname="partly-cloudy-night.svg"><metadata
     id="metadata43"><rdf:RDF><cc:Work
         rdf:about=""><dc:format>image/svg+xml</dc:format><dc:type
           rdf:resource="http://purl.org/dc/dcmitype/StillImage" /></cc:Work></rdf:RDF></metadata><defs
     id="defs41" /><sodipodi:namedview
     pagecolor="#ffffff"
     bordercolor="#666666"
     borderopacity="1"
     objecttolerance="10"
     gridtolerance="10"
     guidetolerance="10"
     inkscape:pageopacity="0"
     inkscape:pageshadow="2"
     inkscape:window-width="1920"
     inkscape:window-height="1017"
     id="namedview39"
     showgrid="false"
     inkscape:zoom="0.51258548"
     inkscape:cx="-12.680812"
     inkscape:cy="230.20551"
     inkscape:window-x="-8"
     inkscape:window-y="-8"
     inkscape:window-maximized="1"
     inkscape:current-layer="Capa_1" /><g
     id="g3"
     style="fill:#{sdcol(icon)};fill-opacity:1"><g
       id="g5"
       style="fill:#{sdcol(icon)};fill-opacity:1"><path
         style="fill:#{sdcol(icon)};fill-opacity:1"
         d="M250.173,223.142c28.653,0,55.104,15.607,69.028,40.724l1.479,2.65l2.951-0.65    c50.584-11.161,96.007,27.897,96.007,76.986c0,43.504-35.392,78.904-78.888,78.904H78.888C35.384,421.755,0,386.355,0,342.851    c0-40.529,30.352-74.255,70.613-78.457l3.617-0.845v-3.65c0-43.504,35.392-78.904,78.896-78.904    c29.816,0,56.754,16.574,70.312,43.244l1.528,2.999l3.227-0.935 M403.974,283.22c-19.281-20.468-48.227-31.661-79.156-25.881    c-15.704-26.19-44.032-42.334-74.645-42.334c-1.634,0-3.268,0.211-4.91,0.301c-8.137-16.997-12.811-35.945-12.811-56.022    c0-53.177,31.929-100.494,80.416-120.628c-14.794,22.321-22.549,48.129-22.549,75.197c0,75.409,61.338,136.747,136.747,136.747    c11.274,0,22.443-1.382,33.343-4.113C444.95,263.776,425.482,276.189,403.974,283.22z"
         id="path7" /></g></g><g
     id="g9" /><g
     id="g11" /><g
     id="g13" /><g
     id="g15" /><g
     id="g17" /><g
     id="g19" /><g
     id="g21" /><g
     id="g23" /><g
     id="g25" /><g
     id="g27" /><g
     id="g29" /><g
     id="g31" /><g
     id="g33" /><g
     id="g35" /><g
     id="g37" /></svg>