<?xml version="1.0" encoding="UTF-8" standalone="no"?>
<!-- Generator: Adobe Illustrator 16.0.0, SVG Export Plug-In . SVG Version: 6.00 Build 0)  -->

<svg
   xmlns:dc="http://purl.org/dc/elements/1.1/"
   xmlns:cc="http://creativecommons.org/ns#"
   xmlns:rdf="http://www.w3.org/1999/02/22-rdf-syntax-ns#"
   xmlns:svg="http://www.w3.org/2000/svg"
   xmlns="http://www.w3.org/2000/svg"
   xmlns:sodipodi="http://sodipodi.sourceforge.net/DTD/sodipodi-0.dtd"
   xmlns:inkscape="http://www.inkscape.org/namespaces/inkscape"
   version="1.1"
   id="Capa_1"
   x="0px"
   y="0px"
   width="45.846px"
   height="45.846px"
   viewBox="0 0 45.846 45.846"
   style="enable-background:new 0 0 45.846 45.846;"
   xml:space="preserve"
   inkscape:version="0.91 r13725"
   sodipodi:docname="partly-cloudy-day.svg"><metadata
     id="metadata53"><rdf:RDF><cc:Work
         rdf:about=""><dc:format>image/svg+xml</dc:format><dc:type
           rdf:resource="http://purl.org/dc/dcmitype/StillImage" /></cc:Work></rdf:RDF></metadata><defs
     id="defs51" /><sodipodi:namedview
     pagecolor="#ffffff"
     bordercolor="#666666"
     borderopacity="1"
     objecttolerance="10"
     gridtolerance="10"
     guidetolerance="10"
     inkscape:pageopacity="0"
     inkscape:pageshadow="2"
     inkscape:window-width="1920"
     inkscape:window-height="1017"
     id="namedview49"
     showgrid="false"
     inkscape:zoom="5.1476682"
     inkscape:cx="-1.2627076"
     inkscape:cy="22.923"
     inkscape:window-x="-8"
     inkscape:window-y="-8"
     inkscape:window-maximized="1"
     inkscape:current-layer="Capa_1" /><g
     id="g3"
     style="fill:#{sdcol(icon)};fill-opacity:1"><g
       id="g5"
       style="fill:#{sdcol(icon)};fill-opacity:1"><path
         d="M16.047,22.231c0.338,0,0.675,0.018,1.01,0.053c1.081-2.263,3.016-4.02,5.338-4.896c-0.919-3.147-3.831-5.454-7.272-5.454    c-4.177,0-7.574,3.398-7.574,7.576c0,1.988,0.771,3.802,2.03,5.155C11.302,23.151,13.567,22.231,16.047,22.231z"
         id="path7"
         style="fill:#{sdcol(icon)};fill-opacity:1" /><path
         d="M15.131,9.709c0.816,0,1.464-0.662,1.464-1.479V5.866c0-0.816-0.647-1.478-1.464-1.478c-0.817,0-1.465,0.661-1.465,1.478    V8.23C13.666,9.047,14.314,9.709,15.131,9.709z"
         id="path9"
         style="fill:#{sdcol(icon)};fill-opacity:1" /><path
         d="M24.143,12.579l1.672-1.673c0.578-0.576,0.578-1.512,0-2.09c-0.576-0.576-1.512-0.576-2.09,0l-1.671,1.672    c-0.577,0.578-0.577,1.514,0,2.091C22.63,13.156,23.566,13.156,24.143,12.579z"
         id="path11"
         style="fill:#{sdcol(icon)};fill-opacity:1" /><path
         d="M3.843,18.026H1.478C0.661,18.026,0,18.673,0,19.49s0.66,1.465,1.478,1.465h2.365c0.816,0,1.478-0.648,1.478-1.465    S4.659,18.026,3.843,18.026z"
         id="path13"
         style="fill:#{sdcol(icon)};fill-opacity:1" /><path
         d="M8.191,10.488L6.519,8.817c-0.577-0.577-1.514-0.577-2.091,0c-0.577,0.577-0.577,1.513,0,2.089l1.673,1.673    c0.577,0.577,1.514,0.577,2.09,0C8.768,12.002,8.768,11.066,8.191,10.488z"
         id="path15"
         style="fill:#{sdcol(icon)};fill-opacity:1" /><path
         d="M37.415,23.931c-1.509,0-2.905,0.396-4.125,1.09c-0.128,0.072-0.271,0.109-0.415,0.109c-0.105,0-0.213-0.021-0.314-0.062    c-0.237-0.096-0.42-0.293-0.492-0.539c-0.812-2.727-3.326-4.712-6.315-4.712c-3.164,0-5.792,2.226-6.438,5.196    c-0.051,0.233-0.2,0.437-0.407,0.554c-0.129,0.072-0.273,0.109-0.417,0.109c-0.09,0-0.182-0.016-0.268-0.044    c-0.682-0.231-1.414-0.358-2.176-0.358c-3.715,0-6.725,2.975-6.725,6.641c0,7.363,5.188,9.545,9.396,9.545h18.09    c4.99,0,9.037-4.051,9.037-9.042C45.846,27.731,42.102,23.931,37.415,23.931z"
         id="path17"
         style="fill:#{sdcol(icon)};fill-opacity:1" /></g></g><g
     id="g19" /><g
     id="g21" /><g
     id="g23" /><g
     id="g25" /><g
     id="g27" /><g
     id="g29" /><g
     id="g31" /><g
     id="g33" /><g
     id="g35" /><g
     id="g37" /><g
     id="g39" /><g
     id="g41" /><g
     id="g43" /><g
     id="g45" /><g
     id="g47" /></svg>