<?xml version="1.0" encoding="UTF-8" standalone="no"?>
<!-- Created with Inkscape (http://www.inkscape.org/) -->

<svg
   xmlns:dc="http://purl.org/dc/elements/1.1/"
   xmlns:cc="http://creativecommons.org/ns#"
   xmlns:rdf="http://www.w3.org/1999/02/22-rdf-syntax-ns#"
   xmlns:svg="http://www.w3.org/2000/svg"
   xmlns="http://www.w3.org/2000/svg"
   xmlns:sodipodi="http://sodipodi.sourceforge.net/DTD/sodipodi-0.dtd"
   xmlns:inkscape="http://www.inkscape.org/namespaces/inkscape"
   width="200"
   height="200"
   viewBox="0 0 199.99999 200"
   id="svg2"
   version="1.1"
   inkscape:version="0.91 r13725"
   sodipodi:docname="forward_1x.svg">
  <defs
     id="defs4" />
  <sodipodi:namedview
     id="base"
     pagecolor="#ffffff"
     bordercolor="#666666"
     borderopacity="1.0"
     inkscape:pageopacity="0.0"
     inkscape:pageshadow="2"
     inkscape:zoom="3.9626168"
     inkscape:cx="100.5"
     inkscape:cy="101"
     inkscape:document-units="px"
     inkscape:current-layer="layer2"
     showgrid="false"
     units="px"
     showguides="true"
     inkscape:guide-bbox="true"
     inkscape:window-width="1920"
     inkscape:window-height="1017"
     inkscape:window-x="-8"
     inkscape:window-y="-8"
     inkscape:window-maximized="1" />
  <metadata
     id="metadata7">
    <rdf:RDF>
      <cc:Work
         rdf:about="">
        <dc:format>image/svg+xml</dc:format>
        <dc:type
           rdf:resource="http://purl.org/dc/dcmitype/StillImage" />
        <dc:title></dc:title>
      </cc:Work>
    </rdf:RDF>
  </metadata>
  <g
     inkscape:groupmode="layer"
     id="layer2"
     inkscape:label="Back"
     style="display:inline" />
  <g
     inkscape:label="Ebene 1"
     inkscape:groupmode="layer"
     id="layer1"
     transform="translate(0,-852.36212)"
     style="display:inline">
    <path
       style="opacity:1;fill:none;fill-opacity:1;stroke:#{sdcol(iconrecactive)};stroke-width:13.55476284;stroke-linecap:round;stroke-linejoin:miter;stroke-miterlimit:4;stroke-dasharray:none;stroke-opacity:{sdopac(iconrecactive)}"
       id="path4684"
       sodipodi:type="arc"
       sodipodi:cx="100.01171"
       sodipodi:cy="952.3623"
       sodipodi:rx="90.867577"
       sodipodi:ry="90.84462"
       sodipodi:start="0.68837356"
       sodipodi:end="0.68534999"
       d="M 170.18695,1010.0743 A 90.867577,90.84462 0 0 1 42.338241,1022.5634 90.867577,90.84462 0 0 1 29.749283,894.75649 90.867577,90.84462 0 0 1 157.57896,882.0741 a 90.867577,90.84462 0 0 1 12.78221,127.7878"
       sodipodi:open="true" />
  </g>
  <g
     inkscape:groupmode="layer"
     id="layer3"
     inkscape:label="Ebene 2">
    <path
       style="opacity:1;fill:#{sdcol(iconrecactive)};fill-opacity:{sdopac(iconrecactive)};stroke:#cccccc;stroke-width:1.09313786;stroke-linecap:round;stroke-linejoin:miter;stroke-miterlimit:4;stroke-dasharray:none;stroke-opacity:1"
       d="M 55.541016 44.847656 C 50.786168 44.529951 50.135274 51.305647 50.111328 70.568359 L 50.111328 129.75586 C 50.111328 164.76445 54.83815 156.62851 80.050781 141.46289 L 122.04297 116.80469 C 149.94303 99.937611 149.95183 99.937494 122.27734 83.318359 L 80.099609 58.548828 C 67.126134 50.930208 59.73647 45.127985 55.541016 44.847656 z M 73.75 63.697266 L 135.99219 99.632812 L 121.38477 108.06641 L 121.38477 115.45898 L 108.58008 115.45898 L 73.75 135.56836 L 73.75 63.697266 z "
       transform="translate(-7.6293945e-6,0)"
       id="path4140" />
    <path
       style="opacity:1;fill:#{sdcol(iconrecactive)};fill-opacity:{sdopac(iconrecactive)};stroke:#cccccc;stroke-width:1.09313786;stroke-linecap:round;stroke-linejoin:miter;stroke-miterlimit:4;stroke-dasharray:none;stroke-opacity:1"
       d="M 75.541016 44.847656 C 70.786168 44.529951 70.135274 51.305647 70.111328 70.568359 L 70.111328 129.75586 C 70.111328 164.76445 74.838155 156.62851 100.05078 141.46289 L 142.04297 116.80469 C 169.94303 99.937611 169.95183 99.937494 142.27734 83.318359 L 100.09961 58.548828 C 87.126135 50.930208 79.736469 45.127985 75.541016 44.847656 z M 88.169922 84.414062 L 93.072266 84.414062 L 93.072266 113.04688 L 84.751953 113.04688 L 84.751953 92.890625 C 83.8405 93.424479 82.896489 93.834635 81.919922 94.121094 C 80.943362 94.394531 79.836589 94.596354 78.599609 94.726562 L 78.599609 88.476562 C 80.357423 88.177083 81.99154 87.708333 83.501953 87.070312 C 85.025393 86.41927 86.581382 85.533854 88.169922 84.414062 z M 96.724609 93.046875 L 106.33398 93.046875 L 108.48242 97.695312 C 108.76888 98.229168 109.05534 98.958333 109.3418 99.882812 L 109.41992 99.882812 C 109.79753 98.75 110.06446 98.007813 110.2207 97.65625 L 112.25195 93.046875 L 121.33398 93.046875 L 114.84961 102.40234 L 121.29492 113.04688 L 111.72461 113.04688 L 109.57617 108.49609 C 109.32878 107.98828 109.04883 107.29167 108.73633 106.40625 L 108.6582 106.40625 C 108.38477 107.29167 108.20899 107.83853 108.13086 108.04688 C 108.05273 108.24218 107.29102 109.90884 105.8457 113.04688 L 96.333984 113.04688 L 102.97461 102.96875 L 96.724609 93.046875 z "
       transform="translate(-7.6293945e-6,0)"
       id="path4139" />
    <g
       transform="translate(309.03773,101.49528)"
       style="font-style:normal;font-weight:normal;font-size:40px;line-height:125%;font-family:sans-serif;letter-spacing:0px;word-spacing:0px;fill:#000000;fill-opacity:1;stroke:none;stroke-width:1px;stroke-linecap:butt;stroke-linejoin:miter;stroke-opacity:1"
       id="flowRoot4145" />
  </g>
</svg>
