<?xml version="1.0" encoding="UTF-8" standalone="no"?>
<!-- Created with Inkscape (http://www.inkscape.org/) -->

<svg
   xmlns:dc="http://purl.org/dc/elements/1.1/"
   xmlns:cc="http://creativecommons.org/ns#"
   xmlns:rdf="http://www.w3.org/1999/02/22-rdf-syntax-ns#"
   xmlns:svg="http://www.w3.org/2000/svg"
   xmlns="http://www.w3.org/2000/svg"
   xmlns:sodipodi="http://sodipodi.sourceforge.net/DTD/sodipodi-0.dtd"
   xmlns:inkscape="http://www.inkscape.org/namespaces/inkscape"
   width="200"
   height="200"
   viewBox="0 0 199.99999 200"
   id="svg2"
   version="1.1"
   inkscape:version="0.91 r13725"
   sodipodi:docname="back_3x.svg">
  <defs
     id="defs4" />
  <sodipodi:namedview
     id="base"
     pagecolor="#ffffff"
     bordercolor="#666666"
     borderopacity="1.0"
     inkscape:pageopacity="0.0"
     inkscape:pageshadow="2"
     inkscape:zoom="3.4074945"
     inkscape:cx="34.135622"
     inkscape:cy="90.076975"
     inkscape:document-units="px"
     inkscape:current-layer="layer2"
     showgrid="false"
     units="px"
     showguides="true"
     inkscape:guide-bbox="true"
     inkscape:window-width="1920"
     inkscape:window-height="1017"
     inkscape:window-x="-8"
     inkscape:window-y="-8"
     inkscape:window-maximized="1" />
  <metadata
     id="metadata7">
    <rdf:RDF>
      <cc:Work
         rdf:about="">
        <dc:format>image/svg+xml</dc:format>
        <dc:type
           rdf:resource="http://purl.org/dc/dcmitype/StillImage" />
        <dc:title></dc:title>
      </cc:Work>
    </rdf:RDF>
  </metadata>
  <g
     inkscape:groupmode="layer"
     id="layer2"
     inkscape:label="Back"
     style="display:inline" />
  <g
     inkscape:label="Ebene 1"
     inkscape:groupmode="layer"
     id="layer1"
     transform="translate(0,-852.36212)"
     style="display:inline">
    <path
       style="opacity:1;fill:none;fill-opacity:1;stroke:#{sdcol(iconrecactive)};stroke-width:13.55476284;stroke-linecap:round;stroke-linejoin:miter;stroke-miterlimit:4;stroke-dasharray:none;stroke-opacity:{sdopac(iconrecactive)}"
       id="path4684"
       sodipodi:type="arc"
       sodipodi:cx="100.01171"
       sodipodi:cy="952.3623"
       sodipodi:rx="90.867577"
       sodipodi:ry="90.84462"
       sodipodi:start="0.68837356"
       sodipodi:end="0.68534999"
       d="M 170.18695,1010.0743 A 90.867577,90.84462 0 0 1 42.338241,1022.5634 90.867577,90.84462 0 0 1 29.749283,894.75649 90.867577,90.84462 0 0 1 157.57896,882.0741 a 90.867577,90.84462 0 0 1 12.78221,127.7878"
       sodipodi:open="true" />
  </g>
  <g
     inkscape:groupmode="layer"
     id="layer3"
     inkscape:label="Ebene 2">
    <path
       style="opacity:1;fill:#{sdcol(iconrecactive)};fill-opacity:{sdopac(iconrecactive)};stroke:#cccccc;stroke-width:1.09313786;stroke-linecap:round;stroke-linejoin:miter;stroke-miterlimit:4;stroke-dasharray:none;stroke-opacity:1"
       d="M 143.57031 44.847656 C 139.37486 45.127985 131.98519 50.930208 119.01172 58.548828 L 76.833984 83.318359 C 64.092463 90.969921 57.236965 95.096735 56.251953 98.970703 L 125.83594 57.751953 L 125.83594 145.25 L 63.642578 108.41211 C 66.998595 110.71157 71.459896 113.41407 77.068359 116.80469 L 119.06055 141.46289 C 144.27317 156.62851 149 164.76445 149 129.75586 L 149 70.568359 C 148.97604 51.305647 148.32516 44.529951 143.57031 44.847656 z "
       transform="translate(-7.6293945e-6,0)"
       id="path4139" />
    <path
       style="opacity:1;fill:#{sdcol(iconrecactive)};fill-opacity:{sdopac(iconrecactive)};stroke:#cccccc;stroke-width:1.09313786;stroke-linecap:round;stroke-linejoin:miter;stroke-miterlimit:4;stroke-dasharray:none;stroke-opacity:1"
       d="M 123.57031 44.847656 C 119.37486 45.127985 111.9852 50.930208 99.011719 58.548828 L 56.833984 83.318359 C 29.159494 99.937494 29.168299 99.937611 57.068359 116.80469 L 99.060547 141.46289 C 124.27318 156.62851 129 164.76445 129 129.75586 L 129 70.568359 C 128.97604 51.305647 128.32516 44.529951 123.57031 44.847656 z M 81.871094 85.830078 C 84.970052 85.830078 87.398437 86.461589 89.15625 87.724609 C 90.914063 88.98763 91.792969 90.738932 91.792969 92.978516 C 91.792969 94.723308 91.317708 96.188151 90.367188 97.373047 C 89.429688 98.557942 88.108073 99.332682 86.402344 99.697266 L 86.402344 99.794922 C 88.290364 100.05534 89.78125 100.778 90.875 101.96289 C 91.96875 103.13476 92.515625 104.58007 92.515625 106.29883 C 92.515625 108.99414 91.539062 111.08399 89.585938 112.56836 C 87.632812 114.05273 84.839844 114.79492 81.207031 114.79492 C 79.852865 114.79492 78.511718 114.67773 77.183594 114.44336 C 75.855468 114.22201 74.716146 113.92253 73.765625 113.54492 L 73.765625 107.02148 C 74.638021 107.54232 75.634115 107.95248 76.753906 108.25195 C 77.873698 108.55143 79.00651 108.70117 80.152344 108.70117 C 81.480468 108.70117 82.496093 108.46679 83.199219 107.99805 C 83.915365 107.51627 84.273438 106.83268 84.273438 105.94727 C 84.273438 105.04883 83.83724 104.3457 82.964844 103.83789 C 82.092448 103.33008 80.875 103.07617 79.3125 103.07617 L 76.617188 103.07617 L 76.617188 96.943359 L 79 96.943359 C 80.575521 96.943359 81.734374 96.702474 82.476562 96.220703 C 83.23177 95.725911 83.609375 95.087891 83.609375 94.306641 C 83.609375 93.564453 83.322917 92.978515 82.75 92.548828 C 82.190104 92.119141 81.324218 91.904297 80.152344 91.904297 C 78.342448 91.904297 76.532552 92.42513 74.722656 93.466797 L 74.722656 87.236328 C 76.988282 86.298828 79.371094 85.830078 81.871094 85.830078 z M 94.810547 94.013672 L 104.41992 94.013672 L 106.56836 98.662109 C 106.85482 99.195964 107.14127 99.925132 107.42773 100.84961 L 107.50586 100.84961 C 107.88347 99.716799 108.15039 98.97461 108.30664 98.623047 L 110.33789 94.013672 L 119.41992 94.013672 L 112.93555 103.36914 L 119.38086 114.01367 L 109.81055 114.01367 L 107.66211 109.46289 C 107.41472 108.95508 107.13477 108.25847 106.82227 107.37305 L 106.74414 107.37305 C 106.47071 108.25847 106.29492 108.80534 106.2168 109.01367 C 106.13867 109.20899 105.37695 110.87565 103.93164 114.01367 L 94.419922 114.01367 L 101.06055 103.93555 L 94.810547 94.013672 z "
       transform="translate(-7.6293945e-6,0)"
       id="path4140" />
    <g
       style="font-style:normal;font-weight:normal;font-size:40px;line-height:125%;font-family:sans-serif;letter-spacing:0px;word-spacing:0px;fill:#000000;fill-opacity:1;stroke:none;stroke-width:1px;stroke-linecap:butt;stroke-linejoin:miter;stroke-opacity:1"
       id="text4151" />
    <g
       style="font-style:normal;font-weight:normal;font-size:40px;line-height:125%;font-family:sans-serif;letter-spacing:0px;word-spacing:0px;fill:#000000;fill-opacity:1;stroke:none;stroke-width:1px;stroke-linecap:butt;stroke-linejoin:miter;stroke-opacity:1"
       id="text4155" />
  </g>
</svg>
