<?xml version="1.0" encoding="UTF-8" standalone="no"?>
<!-- Generator: Adobe Illustrator 16.0.0, SVG Export Plug-In . SVG Version: 6.00 Build 0)  -->

<svg
   xmlns:dc="http://purl.org/dc/elements/1.1/"
   xmlns:cc="http://creativecommons.org/ns#"
   xmlns:rdf="http://www.w3.org/1999/02/22-rdf-syntax-ns#"
   xmlns:svg="http://www.w3.org/2000/svg"
   xmlns="http://www.w3.org/2000/svg"
   xmlns:sodipodi="http://sodipodi.sourceforge.net/DTD/sodipodi-0.dtd"
   xmlns:inkscape="http://www.inkscape.org/namespaces/inkscape"
   version="1.1"
   id="Capa_1"
   x="0px"
   y="0px"
   width="940px"
   height="940px"
   viewBox="0 0 940 940"
   style="enable-background:new 0 0 940 940;"
   xml:space="preserve"
   inkscape:version="0.91 r13725"
   sodipodi:docname="recording.svg"><metadata
     id="metadata41"><rdf:RDF><cc:Work
         rdf:about=""><dc:format>image/svg+xml</dc:format><dc:type
           rdf:resource="http://purl.org/dc/dcmitype/StillImage" /></cc:Work></rdf:RDF></metadata><defs
     id="defs39" /><sodipodi:namedview
     pagecolor="#ffffff"
     bordercolor="#666666"
     borderopacity="1"
     objecttolerance="10"
     gridtolerance="10"
     guidetolerance="10"
     inkscape:pageopacity="0"
     inkscape:pageshadow="2"
     inkscape:window-width="1202"
     inkscape:window-height="721"
     id="namedview37"
     showgrid="false"
     inkscape:zoom="0.25106383"
     inkscape:cx="-724.91525"
     inkscape:cy="470"
     inkscape:window-x="0"
     inkscape:window-y="0"
     inkscape:window-maximized="0"
     inkscape:current-layer="Capa_1" /><g
     id="g3"
     style="fill:#{sdcol(icon)};fill-opacity:1"><path
       d="M900.199,0h-46.514c-11.046,0-20,8.954-20,20v24.89c0,11.045-8.954,20-20,20h-43.37c-11.046,0-20-8.955-20-20V20   c0-11.046-8.953-20-20-20H208.121c-11.046,0-20,8.954-20,20v24.89c0,11.045-8.954,20-20,20h-43.37c-11.046,0-20-8.955-20-20V20   c0-11.046-8.954-20-20-20h-44.95c-11.046,0-20,8.954-20,20v900c0,11.046,8.954,20,20,20h44.95c11.046,0,20-8.954,20-20v-18.285   c0-11.046,8.954-20,20-20h43.37c11.046,0,20,8.954,20,20V920c0,11.046,8.954,20,20,20h522.194c11.047,0,20-8.954,20-20v-18.285   c0-11.046,8.954-20,20-20h43.37c11.046,0,20,8.954,20,20V920c0,11.046,8.954,20,20,20h46.514c11.046,0,20-8.954,20-20V20   C920.199,8.955,911.245,0,900.199,0z M188.121,765.369c0,11.046-8.954,20-20,20h-43.37c-11.046,0-20-8.954-20-20v-43.37   c0-11.045,8.954-20,20-20h43.37c11.046,0,20,8.955,20,20V765.369z M188.121,585.653c0,11.045-8.954,20-20,20h-43.37   c-11.046,0-20-8.955-20-20v-43.371c0-11.045,8.954-20,20-20h43.37c11.046,0,20,8.955,20,20V585.653z M188.121,405.936   c0,11.047-8.954,20-20,20h-43.37c-11.046,0-20-8.953-20-20v-43.37c0-11.046,8.954-20,20-20h43.37c11.046,0,20,8.954,20,20V405.936z    M188.121,226.22c0,11.046-8.954,20-20,20h-43.37c-11.046,0-20-8.954-20-20v-43.37c0-11.045,8.954-20,20-20h43.37   c11.046,0,20,8.955,20,20V226.22z M663.836,834.267c0,11.047-8.954,20-20,20H296.164c-11.046,0-20-8.953-20-20V673.545   c0-11.046,8.954-20,20-20h347.672c11.046,0,20,8.954,20,20V834.267L663.836,834.267z M663.836,550.361c0,11.046-8.954,20-20,20   H296.164c-11.046,0-20-8.954-20-20V389.639c0-11.045,8.954-20,20-20h347.672c11.046,0,20,8.955,20,20V550.361L663.836,550.361z    M663.836,266.454c0,11.046-8.954,20-20,20H296.164c-11.046,0-20-8.954-20-20V105.732c0-11.045,8.954-20,20-20h347.672   c11.046,0,20,8.955,20,20V266.454L663.836,266.454z M833.686,765.369c0,11.046-8.954,20-20,20h-43.37c-11.046,0-20-8.954-20-20   v-43.37c0-11.045,8.954-20,20-20h43.37c11.046,0,20,8.955,20,20V765.369z M833.686,585.653c0,11.045-8.954,20-20,20h-43.37   c-11.046,0-20-8.955-20-20v-43.371c0-11.045,8.954-20,20-20h43.37c11.046,0,20,8.955,20,20V585.653z M833.686,405.936   c0,11.047-8.954,20-20,20h-43.37c-11.046,0-20-8.953-20-20v-43.37c0-11.046,8.954-20,20-20h43.37c11.046,0,20,8.954,20,20V405.936z    M833.686,226.22c0,11.046-8.954,20-20,20h-43.37c-11.046,0-20-8.954-20-20v-43.37c0-11.045,8.954-20,20-20h43.37   c11.046,0,20,8.955,20,20V226.22z"
       id="path5"
       style="fill:#{sdcol(icon)};fill-opacity:1" /></g><g
     id="g7" /><g
     id="g9" /><g
     id="g11" /><g
     id="g13" /><g
     id="g15" /><g
     id="g17" /><g
     id="g19" /><g
     id="g21" /><g
     id="g23" /><g
     id="g25" /><g
     id="g27" /><g
     id="g29" /><g
     id="g31" /><g
     id="g33" /><g
     id="g35" /></svg>