<?xml version="1.0" encoding="UTF-8" standalone="no"?>
<!-- Generator: Adobe Illustrator 16.0.0, SVG Export Plug-In . SVG Version: 6.00 Build 0)  -->

<svg
   xmlns:dc="http://purl.org/dc/elements/1.1/"
   xmlns:cc="http://creativecommons.org/ns#"
   xmlns:rdf="http://www.w3.org/1999/02/22-rdf-syntax-ns#"
   xmlns:svg="http://www.w3.org/2000/svg"
   xmlns="http://www.w3.org/2000/svg"
   xmlns:sodipodi="http://sodipodi.sourceforge.net/DTD/sodipodi-0.dtd"
   xmlns:inkscape="http://www.inkscape.org/namespaces/inkscape"
   version="1.1"
   id="Capa_1"
   x="0px"
   y="0px"
   width="67.093px"
   height="67.094px"
   viewBox="0 0 67.093 67.094"
   style="enable-background:new 0 0 67.093 67.094;"
   xml:space="preserve"
   inkscape:version="0.91 r13725"
   sodipodi:docname="sleet.svg"><metadata
     id="metadata41"><rdf:RDF><cc:Work
         rdf:about=""><dc:format>image/svg+xml</dc:format><dc:type
           rdf:resource="http://purl.org/dc/dcmitype/StillImage" /></cc:Work></rdf:RDF></metadata><defs
     id="defs39" /><sodipodi:namedview
     pagecolor="#ffffff"
     bordercolor="#666666"
     borderopacity="1"
     objecttolerance="10"
     gridtolerance="10"
     guidetolerance="10"
     inkscape:pageopacity="0"
     inkscape:pageshadow="2"
     inkscape:window-width="1920"
     inkscape:window-height="1017"
     id="namedview37"
     showgrid="false"
     inkscape:zoom="3.517453"
     inkscape:cx="-1.8484277"
     inkscape:cy="33.547001"
     inkscape:window-x="-8"
     inkscape:window-y="-8"
     inkscape:window-maximized="1"
     inkscape:current-layer="Capa_1" /><g
     id="g3"
     style="fill:#{sdcol(icon)};fill-opacity:1"><path
       d="M12.4,46.243c1.946,0,3.524,1.578,3.524,3.524c0,1.945-1.578,3.523-3.524,3.523s-3.524-1.578-3.524-3.523   C8.876,47.821,10.454,46.243,12.4,46.243z M19.448,60.046c1.946,0,3.524,1.578,3.524,3.524c0,1.945-1.578,3.523-3.524,3.523   c-1.946,0-3.524-1.578-3.524-3.523C15.924,61.624,17.502,60.046,19.448,60.046z M30.021,49.768c1.946,0,3.524,1.578,3.524,3.523   c0,1.946-1.578,3.523-3.524,3.523c-1.946,0-3.524-1.577-3.524-3.523C26.497,51.346,28.075,49.768,30.021,49.768z M47.837,46.243   c1.946,0,3.524,1.578,3.524,3.524c0,1.945-1.578,3.523-3.524,3.523c-1.945,0-3.523-1.578-3.523-3.523   C44.314,47.821,45.892,46.243,47.837,46.243z M40.791,60.046c1.945,0,3.523,1.578,3.523,3.524c0,1.945-1.578,3.523-3.523,3.523   c-1.947,0-3.524-1.578-3.524-3.523C37.266,61.624,38.843,60.046,40.791,60.046z M47.975,0c-3.334,0-6.58,0.894-9.441,2.592   C36.239,0.914,33.454,0,30.6,0c-5.886,0-10.961,3.73-12.763,9.215c-1.24-0.369-2.519-0.555-3.82-0.555   C6.6,8.66,0.566,14.694,0.566,22.112c0,7.417,6.034,13.45,13.451,13.45c2.045,0,4.053-0.469,5.885-1.363   c1.95,5.193,6.926,8.707,12.575,8.707c4.644,0,8.922-2.385,11.379-6.279c1.373,0.317,2.754,0.477,4.119,0.477   c10.229,0,18.553-8.321,18.553-18.551S58.205,0,47.975,0z"
       id="path5"
       style="fill:#{sdcol(icon)};fill-opacity:1" /></g><g
     id="g7" /><g
     id="g9" /><g
     id="g11" /><g
     id="g13" /><g
     id="g15" /><g
     id="g17" /><g
     id="g19" /><g
     id="g21" /><g
     id="g23" /><g
     id="g25" /><g
     id="g27" /><g
     id="g29" /><g
     id="g31" /><g
     id="g33" /><g
     id="g35" /></svg>