<?xml version="1.0" encoding="UTF-8" standalone="no"?>
<!-- Generator: Adobe Illustrator 18.0.0, SVG Export Plug-In . SVG Version: 6.00 Build 0)  -->

<svg
   xmlns:dc="http://purl.org/dc/elements/1.1/"
   xmlns:cc="http://creativecommons.org/ns#"
   xmlns:rdf="http://www.w3.org/1999/02/22-rdf-syntax-ns#"
   xmlns:svg="http://www.w3.org/2000/svg"
   xmlns="http://www.w3.org/2000/svg"
   xmlns:sodipodi="http://sodipodi.sourceforge.net/DTD/sodipodi-0.dtd"
   xmlns:inkscape="http://www.inkscape.org/namespaces/inkscape"
   version="1.1"
   id="Capa_1"
   x="0px"
   y="0px"
   viewBox="0 0 349.027 349.027"
   style="enable-background:new 0 0 349.027 349.027;"
   xml:space="preserve"
   inkscape:version="0.91 r13725"
   sodipodi:docname="snow.svg"><metadata
     id="metadata45"><rdf:RDF><cc:Work
         rdf:about=""><dc:format>image/svg+xml</dc:format><dc:type
           rdf:resource="http://purl.org/dc/dcmitype/StillImage" /></cc:Work></rdf:RDF></metadata><defs
     id="defs43" /><sodipodi:namedview
     pagecolor="#ffffff"
     bordercolor="#666666"
     borderopacity="1"
     objecttolerance="10"
     gridtolerance="10"
     guidetolerance="10"
     inkscape:pageopacity="0"
     inkscape:pageshadow="2"
     inkscape:window-width="1920"
     inkscape:window-height="1017"
     id="namedview41"
     showgrid="false"
     inkscape:zoom="0.67616544"
     inkscape:cx="-9.613032"
     inkscape:cy="174.5135"
     inkscape:window-x="-8"
     inkscape:window-y="-8"
     inkscape:window-maximized="1"
     inkscape:current-layer="Capa_1" /><g
     id="g3"
     style="fill:#{sdcol(icon)};fill-opacity:1"><polygon
       points="155.314,285.028 143.907,277.953 132.471,296.473 121.014,277.953 109.606,285.028 120.438,302.513    99.867,302.513 99.867,315.926 120.438,315.926 109.606,333.406 121.014,340.475 132.471,321.941 143.907,340.475 155.314,333.406    144.484,315.926 165.064,315.926 165.064,302.513 144.484,302.513  "
       id="polygon5"
       style="fill:#{sdcol(icon)};fill-opacity:1" /><polygon
       points="230.363,253.771 218.977,246.717 207.523,265.244 196.066,246.717 184.672,253.771 195.489,271.254    174.93,271.254 174.93,284.658 195.489,284.658 184.672,302.165 196.066,309.219 207.523,290.709 218.977,309.219 230.363,302.165    219.556,284.658 240.116,284.658 240.116,271.254 219.556,271.254  "
       id="polygon7"
       style="fill:#{sdcol(icon)};fill-opacity:1" /><path
       d="M274.057,80.616c-10.97-28.288-38.415-48.313-70.557-48.313c-3.059,0-6.078,0.189-9.063,0.566   c-13.815-14.95-33.563-24.316-55.528-24.316c-40.891,0-74.202,32.471-75.585,73.041C27.408,87.49,0,118.65,0,156.268   c0,41.773,33.862,75.629,75.647,75.629h197.717c41.78,0,75.663-33.855,75.663-75.629   C349.027,114.711,315.526,80.994,274.057,80.616z"
       id="path9"
       style="fill:#{sdcol(icon)};fill-opacity:1" /></g><g
     id="g11" /><g
     id="g13" /><g
     id="g15" /><g
     id="g17" /><g
     id="g19" /><g
     id="g21" /><g
     id="g23" /><g
     id="g25" /><g
     id="g27" /><g
     id="g29" /><g
     id="g31" /><g
     id="g33" /><g
     id="g35" /><g
     id="g37" /><g
     id="g39" /></svg>