<?xml version="1.0" encoding="UTF-8" standalone="no"?>
<!-- Generator: Adobe Illustrator 17.1.0, SVG Export Plug-In . SVG Version: 6.00 Build 0)  -->

<svg
   xmlns:dc="http://purl.org/dc/elements/1.1/"
   xmlns:cc="http://creativecommons.org/ns#"
   xmlns:rdf="http://www.w3.org/1999/02/22-rdf-syntax-ns#"
   xmlns:svg="http://www.w3.org/2000/svg"
   xmlns="http://www.w3.org/2000/svg"
   xmlns:sodipodi="http://sodipodi.sourceforge.net/DTD/sodipodi-0.dtd"
   xmlns:inkscape="http://www.inkscape.org/namespaces/inkscape"
   version="1.1"
   id="Capa_1"
   x="0px"
   y="0px"
   viewBox="0 0 339.716 339.716"
   style="enable-background:new 0 0 339.716 339.716;"
   xml:space="preserve"
   inkscape:version="0.91 r13725"
   sodipodi:docname="thunder.svg"><metadata
     id="metadata43"><rdf:RDF><cc:Work
         rdf:about=""><dc:format>image/svg+xml</dc:format><dc:type
           rdf:resource="http://purl.org/dc/dcmitype/StillImage" /></cc:Work></rdf:RDF></metadata><defs
     id="defs41" /><sodipodi:namedview
     pagecolor="#ffffff"
     bordercolor="#666666"
     borderopacity="1"
     objecttolerance="10"
     gridtolerance="10"
     guidetolerance="10"
     inkscape:pageopacity="0"
     inkscape:pageshadow="2"
     inkscape:window-width="1920"
     inkscape:window-height="1017"
     id="namedview39"
     showgrid="false"
     inkscape:zoom="0.69469792"
     inkscape:cx="-9.3565848"
     inkscape:cy="169.858"
     inkscape:window-x="-8"
     inkscape:window-y="-8"
     inkscape:window-maximized="1"
     inkscape:current-layer="Capa_1" /><g
     id="g3"
     style="fill:#{sdcol(icon)};fill-opacity:1"><path
       d="M237.228,250.389L199.4,239.924l29.289-45.899c1.347-2.111,1.571-4.542,0.613-6.667c-0.958-2.125-2.926-3.568-5.399-3.958   l-54.941-8.66c-0.425-0.067-0.862-0.101-1.299-0.101c-3.471,0-6.785,2.063-8.247,5.132l-32.251,67.731   c-0.968,2.032-1.011,4.346-0.119,6.348c0.892,2.003,2.642,3.518,4.8,4.157l46.611,13.804l-28.489,59.403   c-1.11,2.315-1.123,4.364-0.036,6.089c0.951,1.51,2.589,2.413,4.382,2.413h0c2.06,0,3.539-1.161,4.472-2.034l81.225-75.974   c1.905-1.782,2.704-4.223,2.137-6.527C241.582,252.876,239.742,251.084,237.228,250.389z"
       id="path5"
       style="fill:#{sdcol(icon)};fill-opacity:1" /><path
       d="M286.373,95.61c1.955-6.747,2.943-13.723,2.943-20.809C289.315,33.556,255.76,0,214.515,0   c-17.158,0-33.92,5.958-47.198,16.776c-11.879,9.679-20.542,22.856-24.724,37.474c-27.749-2.719-52.919,14.938-60.632,40.706   c-4.268-0.994-8.632-1.497-13.033-1.497c-31.703,0-57.495,25.809-57.495,57.531c0,31.723,25.792,57.531,57.495,57.531h42.065   c0.232,0.016,0.558,0.03,0.964,0.03c3.173,0,14.041-0.989,20.669-13.719c2.508-4.818,5.453-10.736,8.301-16.459   c3.519-7.072,6.843-13.753,9.199-18.09c3.19-5.873,7.639-6.507,9.403-6.507c0.08,0,0.145,0.001,0.157,0l93.782,13.237   c0.516,0.33,6.392,0.995,6.637,1.83c0.266,0.904-0.21,2.314-1.337,3.971c-2.138,3.139-5.459,8.382-8.671,13.453   c-1.809,2.856-3.592,5.671-5.118,8.038c-2.561,3.973-1.705,7.135-0.966,8.665c2.213,4.59,8.175,5.408,9.348,5.525l17.427,0.025   c31.703,0,57.495-25.809,57.495-57.531C328.282,124.926,310.97,102.482,286.373,95.61z"
       id="path7"
       style="fill:#{sdcol(icon)};fill-opacity:1" /></g><g
     id="g9" /><g
     id="g11" /><g
     id="g13" /><g
     id="g15" /><g
     id="g17" /><g
     id="g19" /><g
     id="g21" /><g
     id="g23" /><g
     id="g25" /><g
     id="g27" /><g
     id="g29" /><g
     id="g31" /><g
     id="g33" /><g
     id="g35" /><g
     id="g37" /></svg>