<?xml version="1.0" encoding="UTF-8" standalone="no"?>
<!-- Generator: Adobe Illustrator 18.0.0, SVG Export Plug-In . SVG Version: 6.00 Build 0)  -->

<svg
   xmlns:dc="http://purl.org/dc/elements/1.1/"
   xmlns:cc="http://creativecommons.org/ns#"
   xmlns:rdf="http://www.w3.org/1999/02/22-rdf-syntax-ns#"
   xmlns:svg="http://www.w3.org/2000/svg"
   xmlns="http://www.w3.org/2000/svg"
   xmlns:sodipodi="http://sodipodi.sourceforge.net/DTD/sodipodi-0.dtd"
   xmlns:inkscape="http://www.inkscape.org/namespaces/inkscape"
   version="1.1"
   id="Capa_1"
   x="0px"
   y="0px"
   viewBox="0 0 512 512"
   style="enable-background:new 0 0 512 512;"
   xml:space="preserve"
   inkscape:version="0.91 r13725"
   sodipodi:docname="volume.svg"><metadata
     id="metadata45"><rdf:RDF><cc:Work
         rdf:about=""><dc:format>image/svg+xml</dc:format><dc:type
           rdf:resource="http://purl.org/dc/dcmitype/StillImage" /></cc:Work></rdf:RDF></metadata><defs
     id="defs43" /><sodipodi:namedview
     pagecolor="#ffffff"
     bordercolor="#666666"
     borderopacity="1"
     objecttolerance="10"
     gridtolerance="10"
     guidetolerance="10"
     inkscape:pageopacity="0"
     inkscape:pageshadow="2"
     inkscape:window-width="1920"
     inkscape:window-height="1017"
     id="namedview41"
     showgrid="false"
     inkscape:zoom="0.4609375"
     inkscape:cx="-14.101695"
     inkscape:cy="256"
     inkscape:window-x="-8"
     inkscape:window-y="-8"
     inkscape:window-maximized="1"
     inkscape:current-layer="Capa_1" /><g
     id="g3"
     style="fill:#{sdcol(icon)};fill-opacity:1"><path
       d="M277.549,0h-48l-144,160h-48c-17.672,0-32.375,14.326-32.375,32v128c0,17.672,14.703,32,32.375,32h48l144,160h48   c8.836,0,15.625-7.164,15.625-16V16C293.174,7.164,286.385,0,277.549,0z"
       id="path5"
       style="fill:#{sdcol(icon)};fill-opacity:1" /><path
       d="M382.456,187.906c-11.109-13.727-31.297-15.891-44.961-4.844c-13.75,11.047-15.941,31.234-4.879,45   c11.77,14.625,11.77,41.25-0.008,55.883c-11.055,13.758-8.863,33.945,4.883,44.992c5.664,4.555,12.781,7.063,20.043,7.063   c9.762,0,18.859-4.352,24.953-11.938C413.182,285.898,413.182,226.102,382.456,187.906z"
       id="path7"
       style="fill:#{sdcol(icon)};fill-opacity:1" /><path
       d="M459.936,138.578c-6.426-6.664-15.07-10.414-24.34-10.578c-9.477,0.141-18.035,3.297-24.684,9.727   c-13.738,13.266-14.133,35.25-0.867,49.023c36.879,38.18,36.879,100.313-0.016,138.508c-13.25,13.758-12.855,35.742,0.859,48.984   c6.484,6.297,15.043,9.758,24.098,9.758c9.352,0,18.441-3.852,24.949-10.578C522.456,308.672,522.456,203.32,459.936,138.578z"
       id="path9"
       style="fill:#{sdcol(icon)};fill-opacity:1" /></g><g
     id="g11" /><g
     id="g13" /><g
     id="g15" /><g
     id="g17" /><g
     id="g19" /><g
     id="g21" /><g
     id="g23" /><g
     id="g25" /><g
     id="g27" /><g
     id="g29" /><g
     id="g31" /><g
     id="g33" /><g
     id="g35" /><g
     id="g37" /><g
     id="g39" /></svg>